<svg width="120" height="180" viewBox="0 0 120 180" fill="none" xmlns="http://www.w3.org/2000/svg">
<path d="M0 0H120V180H0V0Z" fill="#FF9200" fill-opacity="0.8"/>
<path d="M10.072 59L11.524 54.8H12.028L13.48 59H12.952L12.58 57.878H10.972L10.6 59H10.072ZM11.14 57.374H12.412L11.776 55.484L11.14 57.374ZM18.1948 56.87V59H17.6908V56.978C17.6908 56.588 17.5228 56.384 17.2048 56.384C16.7668 56.384 16.4008 56.876 16.4008 57.758V59H15.8968V56.978C15.8968 56.588 15.7288 56.384 15.4108 56.384C14.9728 56.384 14.6068 56.876 14.6068 57.758V59H14.1028V55.976H14.6068V56.534C14.7988 56.156 15.1288 55.928 15.5488 55.928C15.9688 55.928 16.2628 56.162 16.3588 56.558C16.5688 56.162 16.9168 55.928 17.3428 55.928C17.8948 55.928 18.1948 56.288 18.1948 56.87ZM21.7202 57.362V57.596H19.5002C19.5302 58.154 19.8062 58.592 20.3522 58.592C20.7962 58.592 21.0242 58.388 21.1922 58.016L21.6362 58.208C21.3542 58.796 20.9762 59.048 20.3522 59.048C19.4342 59.048 18.9842 58.298 18.9842 57.488C18.9842 56.678 19.4342 55.928 20.3522 55.928C21.2462 55.928 21.7202 56.612 21.7202 57.362ZM20.3522 56.384C19.8842 56.384 19.6202 56.702 19.5302 57.14H21.1922C21.1022 56.708 20.8382 56.384 20.3522 56.384ZM22.2027 56.432V55.976H22.7247V55.07L23.2287 54.752V55.976H24.0207V56.432H23.2287V58.094C23.2287 58.418 23.3787 58.592 23.6307 58.592C23.7627 58.592 23.8647 58.568 23.9727 58.496L24.0927 58.934C23.9487 59.018 23.7747 59.048 23.6007 59.048C23.0907 59.048 22.7247 58.736 22.7247 58.052V56.432H22.2027ZM30.5698 56.87V59H30.0658V56.978C30.0658 56.588 29.8978 56.384 29.5798 56.384C29.1418 56.384 28.7758 56.876 28.7758 57.758V59H28.2718V56.978C28.2718 56.588 28.1038 56.384 27.7858 56.384C27.3478 56.384 26.9818 56.876 26.9818 57.758V59H26.4778V55.976H26.9818V56.534C27.1738 56.156 27.5038 55.928 27.9238 55.928C28.3438 55.928 28.6378 56.162 28.7338 56.558C28.9438 56.162 29.2918 55.928 29.7178 55.928C30.2698 55.928 30.5698 56.288 30.5698 56.87ZM31.5932 55.976H32.0972V59H31.5932V55.976ZM31.4672 55.136C31.4672 54.92 31.6292 54.752 31.8452 54.752C32.0612 54.752 32.2232 54.92 32.2232 55.136C32.2232 55.346 32.0612 55.508 31.8452 55.508C31.6292 55.508 31.4672 55.346 31.4672 55.136ZM35.3874 56.87V59H34.8834V57.002C34.8834 56.588 34.6974 56.384 34.3614 56.384C33.9114 56.384 33.4974 56.894 33.4974 57.734V59H32.9934V55.976H33.4974V56.534C33.7194 56.144 34.0794 55.928 34.4994 55.928C35.0514 55.928 35.3874 56.27 35.3874 56.87ZM36.3744 55.976H36.8784V59H36.3744V55.976ZM36.2484 55.136C36.2484 54.92 36.4104 54.752 36.6264 54.752C36.8424 54.752 37.0044 54.92 37.0044 55.136C37.0044 55.346 36.8424 55.508 36.6264 55.508C36.4104 55.508 36.2484 55.346 36.2484 55.136ZM42.0073 56.87V59H41.5033V56.978C41.5033 56.588 41.3353 56.384 41.0173 56.384C40.5793 56.384 40.2133 56.876 40.2133 57.758V59H39.7093V56.978C39.7093 56.588 39.5413 56.384 39.2233 56.384C38.7853 56.384 38.4193 56.876 38.4193 57.758V59H37.9153V55.976H38.4193V56.534C38.6113 56.156 38.9413 55.928 39.3613 55.928C39.7813 55.928 40.0753 56.162 40.1713 56.558C40.3813 56.162 40.7293 55.928 41.1553 55.928C41.7073 55.928 42.0073 56.288 42.0073 56.87ZM48.7866 56.87V59H48.2826V56.978C48.2826 56.588 48.1146 56.384 47.7966 56.384C47.3586 56.384 46.9926 56.876 46.9926 57.758V59H46.4886V56.978C46.4886 56.588 46.3206 56.384 46.0026 56.384C45.5646 56.384 45.1986 56.876 45.1986 57.758V59H44.6946V55.976H45.1986V56.534C45.3906 56.156 45.7206 55.928 46.1406 55.928C46.5606 55.928 46.8546 56.162 46.9506 56.558C47.1606 56.162 47.5086 55.928 47.9346 55.928C48.4866 55.928 48.7866 56.288 48.7866 56.87ZM49.576 57.488C49.576 56.666 50.122 55.928 51.028 55.928C51.934 55.928 52.48 56.666 52.48 57.488C52.48 58.31 51.934 59.048 51.028 59.048C50.122 59.048 49.576 58.31 49.576 57.488ZM50.092 57.488C50.092 58.046 50.41 58.592 51.028 58.592C51.646 58.592 51.964 58.046 51.964 57.488C51.964 56.93 51.646 56.384 51.028 56.384C50.41 56.384 50.092 56.93 50.092 57.488ZM53.2666 54.752H53.7706V59H53.2666V54.752ZM54.7666 54.752H55.2706V59H54.7666V54.752ZM56.1732 55.976H56.6772V59H56.1732V55.976ZM56.0472 55.136C56.0472 54.92 56.2092 54.752 56.4252 54.752C56.6412 54.752 56.8032 54.92 56.8032 55.136C56.8032 55.346 56.6412 55.508 56.4252 55.508C56.2092 55.508 56.0472 55.346 56.0472 55.136ZM57.3648 56.432V55.976H57.8868V55.07L58.3908 54.752V55.976H59.1828V56.432H58.3908V58.094C58.3908 58.418 58.5408 58.592 58.7928 58.592C58.9248 58.592 59.0268 58.568 59.1348 58.496L59.2548 58.934C59.1108 59.018 58.9368 59.048 58.7628 59.048C58.2528 59.048 57.8868 58.736 57.8868 58.052V56.432H57.3648ZM64.0339 56.87V59H63.5299V57.002C63.5299 56.588 63.3439 56.384 63.0079 56.384C62.5579 56.384 62.1439 56.894 62.1439 57.734V59H61.6399V55.976H62.1439V56.534C62.3659 56.144 62.7259 55.928 63.1459 55.928C63.6979 55.928 64.0339 56.27 64.0339 56.87ZM64.8045 57.488C64.8045 56.666 65.3505 55.928 66.2565 55.928C67.1625 55.928 67.7085 56.666 67.7085 57.488C67.7085 58.31 67.1625 59.048 66.2565 59.048C65.3505 59.048 64.8045 58.31 64.8045 57.488ZM65.3205 57.488C65.3205 58.046 65.6385 58.592 66.2565 58.592C66.8745 58.592 67.1925 58.046 67.1925 57.488C67.1925 56.93 66.8745 56.384 66.2565 56.384C65.6385 56.384 65.3205 56.93 65.3205 57.488ZM70.9362 56.87V59H70.4322V57.002C70.4322 56.588 70.2462 56.384 69.9102 56.384C69.4602 56.384 69.0462 56.894 69.0462 57.734V59H68.5422V55.976H69.0462V56.534C69.2682 56.144 69.6282 55.928 70.0482 55.928C70.6002 55.928 70.9362 56.27 70.9362 56.87ZM73.3826 57.488C73.3826 56.582 73.8386 55.928 74.7266 55.928C75.1106 55.928 75.5066 56.162 75.6086 56.336V54.752H76.1126V59H75.6086V58.628C75.4646 58.85 75.0926 59.048 74.7266 59.048C73.8386 59.048 73.3826 58.394 73.3826 57.488ZM73.8986 57.488C73.8986 58.136 74.2406 58.592 74.7746 58.592C75.3266 58.592 75.6506 58.136 75.6506 57.488C75.6506 56.84 75.3266 56.384 74.7746 56.384C74.2406 56.384 73.8986 56.84 73.8986 57.488ZM79.6459 57.362V57.596H77.4259C77.4559 58.154 77.7319 58.592 78.2779 58.592C78.7219 58.592 78.9499 58.388 79.1179 58.016L79.5619 58.208C79.2799 58.796 78.9019 59.048 78.2779 59.048C77.3599 59.048 76.9099 58.298 76.9099 57.488C76.9099 56.678 77.3599 55.928 78.2779 55.928C79.1719 55.928 79.6459 56.612 79.6459 57.362ZM78.2779 56.384C77.8099 56.384 77.5459 56.702 77.4559 57.14H79.1179C79.0279 56.708 78.7639 56.384 78.2779 56.384ZM81.3242 55.928C81.6962 55.928 81.9902 56.09 82.2002 56.39L81.8582 56.684C81.6602 56.468 81.5162 56.384 81.3062 56.384C81.1022 56.384 80.9402 56.522 80.9402 56.768C80.9402 57.314 82.3442 57.2 82.3442 58.088C82.3442 58.694 81.9542 59.048 81.3422 59.048C80.7242 59.048 80.3702 58.64 80.2142 58.232L80.6402 57.998C80.7722 58.322 81.0062 58.592 81.3422 58.592C81.6482 58.592 81.8282 58.436 81.8282 58.118C81.8282 57.554 80.4362 57.746 80.4362 56.762C80.4362 56.294 80.7782 55.928 81.3242 55.928ZM85.7163 57.362V57.596H83.4963C83.5263 58.154 83.8023 58.592 84.3483 58.592C84.7923 58.592 85.0203 58.388 85.1883 58.016L85.6323 58.208C85.3503 58.796 84.9723 59.048 84.3483 59.048C83.4303 59.048 82.9803 58.298 82.9803 57.488C82.9803 56.678 83.4303 55.928 84.3483 55.928C85.2423 55.928 85.7163 56.612 85.7163 57.362ZM84.3483 56.384C83.8803 56.384 83.6163 56.702 83.5263 57.14H85.1883C85.0983 56.708 84.8343 56.384 84.3483 56.384ZM88.2896 56.018L88.1876 56.468C88.0796 56.414 87.9596 56.384 87.8336 56.384C87.4196 56.384 86.9876 56.87 86.9876 57.854V59H86.4836V55.976H86.9876V56.492C87.1676 56.156 87.5396 55.928 87.8756 55.928C88.0436 55.928 88.1996 55.97 88.2896 56.018ZM88.9262 58.106V55.976H89.4302V57.974C89.4302 58.388 89.6162 58.592 89.9522 58.592C90.4022 58.592 90.8162 58.082 90.8162 57.242V55.976H91.3202V59H90.8162V58.442C90.5942 58.832 90.2342 59.048 89.8142 59.048C89.2622 59.048 88.9262 58.706 88.9262 58.106ZM94.7312 56.87V59H94.2272V57.002C94.2272 56.588 94.0412 56.384 93.7052 56.384C93.2552 56.384 92.8412 56.894 92.8412 57.734V59H92.3372V55.976H92.8412V56.534C93.0632 56.144 93.4232 55.928 93.8432 55.928C94.3952 55.928 94.7312 56.27 94.7312 56.87ZM95.3805 56.432V55.976H95.9025V55.07L96.4065 54.752V55.976H97.1985V56.432H96.4065V58.094C96.4065 58.418 96.5565 58.592 96.8085 58.592C96.9405 58.592 97.0425 58.568 97.1505 58.496L97.2705 58.934C97.1265 59.018 96.9525 59.048 96.7785 59.048C96.2685 59.048 95.9025 58.736 95.9025 58.052V56.432H95.3805ZM10.516 68.106V65.976H11.02V67.974C11.02 68.388 11.206 68.592 11.542 68.592C11.992 68.592 12.406 68.082 12.406 67.242V65.976H12.91V69H12.406V68.442C12.184 68.832 11.824 69.048 11.404 69.048C10.852 69.048 10.516 68.706 10.516 68.106ZM13.874 64.752H14.378V69H13.874V64.752ZM15.374 64.752H15.878V69H15.374V64.752ZM17.1977 68.13C17.1977 68.418 17.3777 68.592 17.6957 68.592C18.0857 68.592 18.5417 68.352 18.5417 67.668V67.596H18.0017C17.4857 67.596 17.1977 67.788 17.1977 68.13ZM19.0457 67.068V69H18.6497L18.5657 68.574C18.3737 68.85 18.0677 69.048 17.6177 69.048C17.1137 69.048 16.6817 68.778 16.6817 68.13C16.6817 67.482 17.2217 67.14 18.0497 67.14H18.5417V67.008C18.5417 66.54 18.2477 66.384 17.8817 66.384C17.5697 66.384 17.3177 66.558 17.2517 66.858L16.8077 66.756C16.8917 66.246 17.3117 65.928 17.8817 65.928C18.5477 65.928 19.0457 66.264 19.0457 67.068ZM24.019 66.87V69H23.515V66.978C23.515 66.588 23.347 66.384 23.029 66.384C22.591 66.384 22.225 66.876 22.225 67.758V69H21.721V66.978C21.721 66.588 21.553 66.384 21.235 66.384C20.797 66.384 20.431 66.876 20.431 67.758V69H19.927V65.976H20.431V66.534C20.623 66.156 20.953 65.928 21.373 65.928C21.793 65.928 22.087 66.162 22.183 66.558C22.393 66.162 22.741 65.928 23.167 65.928C23.719 65.928 24.019 66.288 24.019 66.87ZM27.0104 68.034L27.4484 68.214C27.2024 68.778 26.8064 69.048 26.1824 69.048C25.2584 69.048 24.8084 68.298 24.8084 67.488C24.8084 66.678 25.2584 65.928 26.1824 65.928C26.8064 65.928 27.2024 66.198 27.4484 66.762L27.0104 66.942C26.8544 66.576 26.5964 66.384 26.1824 66.384C25.5944 66.384 25.3244 66.882 25.3244 67.488C25.3244 68.094 25.5944 68.592 26.1824 68.592C26.5964 68.592 26.8544 68.4 27.0104 68.034ZM28.0603 67.488C28.0603 66.666 28.6063 65.928 29.5123 65.928C30.4183 65.928 30.9643 66.666 30.9643 67.488C30.9643 68.31 30.4183 69.048 29.5123 69.048C28.6063 69.048 28.0603 68.31 28.0603 67.488ZM28.5763 67.488C28.5763 68.046 28.8943 68.592 29.5123 68.592C30.1303 68.592 30.4483 68.046 30.4483 67.488C30.4483 66.93 30.1303 66.384 29.5123 66.384C28.8943 66.384 28.5763 66.93 28.5763 67.488ZM35.9526 67.362V67.596H33.7326C33.7626 68.154 34.0386 68.592 34.5846 68.592C35.0286 68.592 35.2566 68.388 35.4246 68.016L35.8686 68.208C35.5866 68.796 35.2086 69.048 34.5846 69.048C33.6666 69.048 33.2166 68.298 33.2166 67.488C33.2166 66.678 33.6666 65.928 34.5846 65.928C35.4786 65.928 35.9526 66.612 35.9526 67.362ZM34.5846 66.384C34.1166 66.384 33.8526 66.702 33.7626 67.14H35.4246C35.3346 66.708 35.0706 66.384 34.5846 66.384ZM37.6308 65.928C38.0028 65.928 38.2968 66.09 38.5068 66.39L38.1648 66.684C37.9668 66.468 37.8228 66.384 37.6128 66.384C37.4088 66.384 37.2468 66.522 37.2468 66.768C37.2468 67.314 38.6508 67.2 38.6508 68.088C38.6508 68.694 38.2608 69.048 37.6488 69.048C37.0308 69.048 36.6768 68.64 36.5208 68.232L36.9468 67.998C37.0788 68.322 37.3128 68.592 37.6488 68.592C37.9548 68.592 38.1348 68.436 38.1348 68.118C38.1348 67.554 36.7428 67.746 36.7428 66.762C36.7428 66.294 37.0848 65.928 37.6308 65.928ZM39.0777 66.432V65.976H39.5997V65.07L40.1037 64.752V65.976H40.8957V66.432H40.1037V68.094C40.1037 68.418 40.2537 68.592 40.5057 68.592C40.6377 68.592 40.7397 68.568 40.8477 68.496L40.9677 68.934C40.8237 69.018 40.6497 69.048 40.4757 69.048C39.9657 69.048 39.5997 68.736 39.5997 68.052V66.432H39.0777ZM44.2168 65.928C44.5888 65.928 44.8828 66.09 45.0928 66.39L44.7508 66.684C44.5528 66.468 44.4088 66.384 44.1988 66.384C43.9948 66.384 43.8328 66.522 43.8328 66.768C43.8328 67.314 45.2368 67.2 45.2368 68.088C45.2368 68.694 44.8468 69.048 44.2348 69.048C43.6168 69.048 43.2628 68.64 43.1068 68.232L43.5328 67.998C43.6648 68.322 43.8988 68.592 44.2348 68.592C44.5408 68.592 44.7208 68.436 44.7208 68.118C44.7208 67.554 43.3288 67.746 43.3288 66.762C43.3288 66.294 43.6708 65.928 44.2168 65.928ZM45.9955 65.976H46.4995V69H45.9955V65.976ZM45.8695 65.136C45.8695 64.92 46.0315 64.752 46.2475 64.752C46.4635 64.752 46.6255 64.92 46.6255 65.136C46.6255 65.346 46.4635 65.508 46.2475 65.508C46.0315 65.508 45.8695 65.346 45.8695 65.136ZM47.1871 66.432V65.976H47.7091V65.07L48.2131 64.752V65.976H49.0051V66.432H48.2131V68.094C48.2131 68.418 48.3631 68.592 48.6151 68.592C48.7471 68.592 48.8491 68.568 48.9571 68.496L49.0771 68.934C48.9331 69.018 48.7591 69.048 48.5851 69.048C48.0751 69.048 47.7091 68.736 47.7091 68.052V66.432H47.1871ZM51.7622 68.13C51.7622 68.418 51.9422 68.592 52.2602 68.592C52.6502 68.592 53.1062 68.352 53.1062 67.668V67.596H52.5662C52.0502 67.596 51.7622 67.788 51.7622 68.13ZM53.6102 67.068V69H53.2142L53.1302 68.574C52.9382 68.85 52.6322 69.048 52.1822 69.048C51.6782 69.048 51.2462 68.778 51.2462 68.13C51.2462 67.482 51.7862 67.14 52.6142 67.14H53.1062V67.008C53.1062 66.54 52.8122 66.384 52.4462 66.384C52.1342 66.384 51.8822 66.558 51.8162 66.858L51.3722 66.756C51.4562 66.246 51.8762 65.928 52.4462 65.928C53.1122 65.928 53.6102 66.264 53.6102 67.068ZM54.5205 64.752H55.0245V69H54.5205V64.752ZM55.9271 65.976H56.4311V69H55.9271V65.976ZM55.8011 65.136C55.8011 64.92 55.9631 64.752 56.1791 64.752C56.3951 64.752 56.5571 64.92 56.5571 65.136C56.5571 65.346 56.3951 65.508 56.1791 65.508C55.9631 65.508 55.8011 65.346 55.8011 65.136ZM57.2283 67.488C57.2283 66.582 57.6843 65.928 58.5723 65.928C58.9383 65.928 59.3103 66.126 59.4543 66.348V65.976H59.9583V70.224H59.4543V68.64C59.3523 68.814 58.9563 69.048 58.5723 69.048C57.6843 69.048 57.2283 68.394 57.2283 67.488ZM57.7443 67.488C57.7443 68.136 58.0863 68.592 58.6203 68.592C59.1723 68.592 59.4963 68.136 59.4963 67.488C59.4963 66.84 59.1723 66.384 58.6203 66.384C58.0863 66.384 57.7443 66.84 57.7443 67.488ZM60.8656 68.106V65.976H61.3696V67.974C61.3696 68.388 61.5556 68.592 61.8916 68.592C62.3416 68.592 62.7556 68.082 62.7556 67.242V65.976H63.2596V69H62.7556V68.442C62.5336 68.832 62.1736 69.048 61.7536 69.048C61.2016 69.048 60.8656 68.706 60.8656 68.106ZM64.6118 68.13C64.6118 68.418 64.7918 68.592 65.1098 68.592C65.4998 68.592 65.9558 68.352 65.9558 67.668V67.596H65.4158C64.8998 67.596 64.6118 67.788 64.6118 68.13ZM66.4598 67.068V69H66.0638L65.9798 68.574C65.7878 68.85 65.4818 69.048 65.0318 69.048C64.5278 69.048 64.0958 68.778 64.0958 68.13C64.0958 67.482 64.6358 67.14 65.4638 67.14H65.9558V67.008C65.9558 66.54 65.6618 66.384 65.2958 66.384C64.9838 66.384 64.7318 66.558 64.6658 66.858L64.2218 66.756C64.3058 66.246 64.7258 65.928 65.2958 65.928C65.9618 65.928 66.4598 66.264 66.4598 67.068ZM68.7947 67.488C68.7947 66.582 69.2507 65.928 70.1387 65.928C70.5227 65.928 70.9187 66.162 71.0207 66.336V64.752H71.5247V69H71.0207V68.628C70.8767 68.85 70.5047 69.048 70.1387 69.048C69.2507 69.048 68.7947 68.394 68.7947 67.488ZM69.3107 67.488C69.3107 68.136 69.6527 68.592 70.1867 68.592C70.7387 68.592 71.0627 68.136 71.0627 67.488C71.0627 66.84 70.7387 66.384 70.1867 66.384C69.6527 66.384 69.3107 66.84 69.3107 67.488ZM72.322 67.488C72.322 66.666 72.868 65.928 73.774 65.928C74.68 65.928 75.226 66.666 75.226 67.488C75.226 68.31 74.68 69.048 73.774 69.048C72.868 69.048 72.322 68.31 72.322 67.488ZM72.838 67.488C72.838 68.046 73.156 68.592 73.774 68.592C74.392 68.592 74.71 68.046 74.71 67.488C74.71 66.93 74.392 66.384 73.774 66.384C73.156 66.384 72.838 66.93 72.838 67.488ZM76.0127 64.752H76.5167V69H76.0127V64.752ZM77.2908 67.488C77.2908 66.666 77.8368 65.928 78.7428 65.928C79.6488 65.928 80.1948 66.666 80.1948 67.488C80.1948 68.31 79.6488 69.048 78.7428 69.048C77.8368 69.048 77.2908 68.31 77.2908 67.488ZM77.8068 67.488C77.8068 68.046 78.1248 68.592 78.7428 68.592C79.3608 68.592 79.6788 68.046 79.6788 67.488C79.6788 66.93 79.3608 66.384 78.7428 66.384C78.1248 66.384 77.8068 66.93 77.8068 67.488ZM82.7584 66.018L82.6564 66.468C82.5484 66.414 82.4284 66.384 82.3024 66.384C81.8884 66.384 81.4564 66.87 81.4564 67.854V69H80.9524V65.976H81.4564V66.492C81.6364 66.156 82.0084 65.928 82.3444 65.928C82.5124 65.928 82.6684 65.97 82.7584 66.018ZM84.8084 67.488C84.8084 66.582 85.2644 65.928 86.1524 65.928C86.5364 65.928 86.9324 66.162 87.0344 66.336V64.752H87.5384V69H87.0344V68.628C86.8904 68.85 86.5184 69.048 86.1524 69.048C85.2644 69.048 84.8084 68.394 84.8084 67.488ZM85.3244 67.488C85.3244 68.136 85.6664 68.592 86.2004 68.592C86.7524 68.592 87.0764 68.136 87.0764 67.488C87.0764 66.84 86.7524 66.384 86.2004 66.384C85.6664 66.384 85.3244 66.84 85.3244 67.488ZM88.3357 67.488C88.3357 66.666 88.8817 65.928 89.7877 65.928C90.6937 65.928 91.2397 66.666 91.2397 67.488C91.2397 68.31 90.6937 69.048 89.7877 69.048C88.8817 69.048 88.3357 68.31 88.3357 67.488ZM88.8517 67.488C88.8517 68.046 89.1697 68.592 89.7877 68.592C90.4057 68.592 90.7237 68.046 90.7237 67.488C90.7237 66.93 90.4057 66.384 89.7877 66.384C89.1697 66.384 88.8517 66.93 88.8517 67.488ZM10.852 78.13C10.852 78.418 11.032 78.592 11.35 78.592C11.74 78.592 12.196 78.352 12.196 77.668V77.596H11.656C11.14 77.596 10.852 77.788 10.852 78.13ZM12.7 77.068V79H12.304L12.22 78.574C12.028 78.85 11.722 79.048 11.272 79.048C10.768 79.048 10.336 78.778 10.336 78.13C10.336 77.482 10.876 77.14 11.704 77.14H12.196V77.008C12.196 76.54 11.902 76.384 11.536 76.384C11.224 76.384 10.972 76.558 10.906 76.858L10.462 76.756C10.546 76.246 10.966 75.928 11.536 75.928C12.202 75.928 12.7 76.264 12.7 77.068ZM17.6733 76.87V79H17.1693V76.978C17.1693 76.588 17.0013 76.384 16.6833 76.384C16.2453 76.384 15.8793 76.876 15.8793 77.758V79H15.3753V76.978C15.3753 76.588 15.2073 76.384 14.8893 76.384C14.4513 76.384 14.0853 76.876 14.0853 77.758V79H13.5813V75.976H14.0853V76.534C14.2773 76.156 14.6073 75.928 15.0273 75.928C15.4473 75.928 15.7413 76.162 15.8373 76.558C16.0473 76.162 16.3953 75.928 16.8213 75.928C17.3733 75.928 17.6733 76.288 17.6733 76.87ZM21.1987 77.362V77.596H18.9787C19.0087 78.154 19.2847 78.592 19.8307 78.592C20.2747 78.592 20.5027 78.388 20.6707 78.016L21.1147 78.208C20.8327 78.796 20.4547 79.048 19.8307 79.048C18.9127 79.048 18.4627 78.298 18.4627 77.488C18.4627 76.678 18.9127 75.928 19.8307 75.928C20.7247 75.928 21.1987 76.612 21.1987 77.362ZM19.8307 76.384C19.3627 76.384 19.0987 76.702 19.0087 77.14H20.6707C20.5807 76.708 20.3167 76.384 19.8307 76.384ZM21.6813 76.432V75.976H22.2033V75.07L22.7073 74.752V75.976H23.4993V76.432H22.7073V78.094C22.7073 78.418 22.8573 78.592 23.1093 78.592C23.2413 78.592 23.3433 78.568 23.4513 78.496L23.5713 78.934C23.4273 79.018 23.2533 79.048 23.0793 79.048C22.5693 79.048 22.2033 78.736 22.2033 78.052V76.432H21.6813ZM26.8203 75.928C27.1923 75.928 27.4863 76.09 27.6963 76.39L27.3543 76.684C27.1563 76.468 27.0123 76.384 26.8023 76.384C26.5983 76.384 26.4363 76.522 26.4363 76.768C26.4363 77.314 27.8403 77.2 27.8403 78.088C27.8403 78.694 27.4503 79.048 26.8383 79.048C26.2203 79.048 25.8663 78.64 25.7103 78.232L26.1363 77.998C26.2683 78.322 26.5023 78.592 26.8383 78.592C27.1443 78.592 27.3243 78.436 27.3243 78.118C27.3243 77.554 25.9323 77.746 25.9323 76.762C25.9323 76.294 26.2743 75.928 26.8203 75.928ZM28.599 75.976H29.103V79H28.599V75.976ZM28.473 75.136C28.473 74.92 28.635 74.752 28.851 74.752C29.067 74.752 29.229 74.92 29.229 75.136C29.229 75.346 29.067 75.508 28.851 75.508C28.635 75.508 28.473 75.346 28.473 75.136ZM32.3933 76.87V79H31.8893V77.002C31.8893 76.588 31.7033 76.384 31.3673 76.384C30.9173 76.384 30.5033 76.894 30.5033 77.734V79H29.9993V75.976H30.5033V76.534C30.7253 76.144 31.0853 75.928 31.5053 75.928C32.0573 75.928 32.3933 76.27 32.3933 76.87ZM33.0426 76.432V75.976H33.5646V75.07L34.0686 74.752V75.976H34.8606V76.432H34.0686V78.094C34.0686 78.418 34.2186 78.592 34.4706 78.592C34.6026 78.592 34.7046 78.568 34.8126 78.496L34.9326 78.934C34.7886 79.018 34.6146 79.048 34.4406 79.048C33.9306 79.048 33.5646 78.736 33.5646 78.052V76.432H33.0426ZM35.6591 78.646C35.6591 78.436 35.8211 78.268 36.0371 78.268C36.2471 78.268 36.4151 78.436 36.4151 78.646C36.4151 78.862 36.2471 79.024 36.0371 79.024C35.8211 79.024 35.6591 78.862 35.6591 78.646ZM41.4686 74.8H42.0266L40.5806 79H40.0526L38.6066 74.8H39.1646L40.3166 78.25L41.4686 74.8ZM44.8588 77.362V77.596H42.6388C42.6688 78.154 42.9448 78.592 43.4908 78.592C43.9348 78.592 44.1628 78.388 44.3308 78.016L44.7748 78.208C44.4928 78.796 44.1148 79.048 43.4908 79.048C42.5728 79.048 42.1228 78.298 42.1228 77.488C42.1228 76.678 42.5728 75.928 43.4908 75.928C44.3848 75.928 44.8588 76.612 44.8588 77.362ZM43.4908 76.384C43.0228 76.384 42.7588 76.702 42.6688 77.14H44.3308C44.2408 76.708 43.9768 76.384 43.4908 76.384ZM45.6611 74.752H46.1651V79H45.6611V74.752ZM47.0678 75.976H47.5718V79H47.0678V75.976ZM46.9418 75.136C46.9418 74.92 47.1038 74.752 47.3198 74.752C47.5358 74.752 47.6978 74.92 47.6978 75.136C47.6978 75.346 47.5358 75.508 47.3198 75.508C47.1038 75.508 46.9418 75.346 46.9418 75.136ZM48.2594 76.432V75.976H48.7814V75.07L49.2854 74.752V75.976H50.0774V76.432H49.2854V78.094C49.2854 78.418 49.4354 78.592 49.6874 78.592C49.8194 78.592 49.9214 78.568 50.0294 78.496L50.1494 78.934C50.0054 79.018 49.8314 79.048 49.6574 79.048C49.1474 79.048 48.7814 78.736 48.7814 78.052V76.432H48.2594ZM52.3064 77.488C52.3064 76.666 52.8524 75.928 53.7584 75.928C54.6644 75.928 55.2104 76.666 55.2104 77.488C55.2104 78.31 54.6644 79.048 53.7584 79.048C52.8524 79.048 52.3064 78.31 52.3064 77.488ZM52.8224 77.488C52.8224 78.046 53.1404 78.592 53.7584 78.592C54.3764 78.592 54.6944 78.046 54.6944 77.488C54.6944 76.93 54.3764 76.384 53.7584 76.384C53.1404 76.384 52.8224 76.93 52.8224 77.488ZM55.7332 76.432V75.976H56.1652V75.778C56.1652 75.082 56.5312 74.752 57.1432 74.752C57.3112 74.752 57.4792 74.794 57.5752 74.848L57.4732 75.292C57.3652 75.238 57.2452 75.208 57.1372 75.208C56.8072 75.208 56.6692 75.388 56.6692 75.778V75.976H57.3652V76.432H56.6692V79H56.1652V76.432H55.7332ZM57.9187 76.432V75.976H58.3507V75.88C58.3507 75.13 58.8907 74.752 59.5207 74.752C59.8327 74.752 60.0967 74.812 60.2947 74.95L60.1867 75.382C59.9887 75.262 59.7427 75.208 59.5147 75.208C59.1127 75.208 58.8547 75.424 58.8547 75.874V75.976H60.3967V79H59.8927V76.432H58.8547V79H58.3507V76.432H57.9187ZM63.4264 78.034L63.8644 78.214C63.6184 78.778 63.2224 79.048 62.5984 79.048C61.6744 79.048 61.2244 78.298 61.2244 77.488C61.2244 76.678 61.6744 75.928 62.5984 75.928C63.2224 75.928 63.6184 76.198 63.8644 76.762L63.4264 76.942C63.2704 76.576 63.0124 76.384 62.5984 76.384C62.0104 76.384 61.7404 76.882 61.7404 77.488C61.7404 78.094 62.0104 78.592 62.5984 78.592C63.0124 78.592 63.2704 78.4 63.4264 78.034ZM64.6576 75.976H65.1616V79H64.6576V75.976ZM64.5316 75.136C64.5316 74.92 64.6936 74.752 64.9096 74.752C65.1256 74.752 65.2876 74.92 65.2876 75.136C65.2876 75.346 65.1256 75.508 64.9096 75.508C64.6936 75.508 64.5316 75.346 64.5316 75.136ZM66.5336 78.13C66.5336 78.418 66.7136 78.592 67.0316 78.592C67.4216 78.592 67.8776 78.352 67.8776 77.668V77.596H67.3376C66.8216 77.596 66.5336 77.788 66.5336 78.13ZM68.3816 77.068V79H67.9856L67.9016 78.574C67.7096 78.85 67.4036 79.048 66.9536 79.048C66.4496 79.048 66.0176 78.778 66.0176 78.13C66.0176 77.482 66.5576 77.14 67.3856 77.14H67.8776V77.008C67.8776 76.54 67.5836 76.384 67.2176 76.384C66.9056 76.384 66.6536 76.558 66.5876 76.858L66.1436 76.756C66.2276 76.246 66.6476 75.928 67.2176 75.928C67.8836 75.928 68.3816 76.264 68.3816 77.068ZM12.526 88.034L12.964 88.214C12.718 88.778 12.322 89.048 11.698 89.048C10.774 89.048 10.324 88.298 10.324 87.488C10.324 86.678 10.774 85.928 11.698 85.928C12.322 85.928 12.718 86.198 12.964 86.762L12.526 86.942C12.37 86.576 12.112 86.384 11.698 86.384C11.11 86.384 10.84 86.882 10.84 87.488C10.84 88.094 11.11 88.592 11.698 88.592C12.112 88.592 12.37 88.4 12.526 88.034ZM13.576 87.488C13.576 86.666 14.122 85.928 15.028 85.928C15.934 85.928 16.48 86.666 16.48 87.488C16.48 88.31 15.934 89.048 15.028 89.048C14.122 89.048 13.576 88.31 13.576 87.488ZM14.092 87.488C14.092 88.046 14.41 88.592 15.028 88.592C15.646 88.592 15.964 88.046 15.964 87.488C15.964 86.93 15.646 86.384 15.028 86.384C14.41 86.384 14.092 86.93 14.092 87.488ZM19.7077 86.87V89H19.2037V87.002C19.2037 86.588 19.0177 86.384 18.6817 86.384C18.2317 86.384 17.8177 86.894 17.8177 87.734V89H17.3137V85.976H17.8177V86.534C18.0397 86.144 18.3997 85.928 18.8197 85.928C19.3717 85.928 19.7077 86.27 19.7077 86.87ZM21.5351 85.928C21.9071 85.928 22.2011 86.09 22.4111 86.39L22.0691 86.684C21.8711 86.468 21.7271 86.384 21.5171 86.384C21.3131 86.384 21.1511 86.522 21.1511 86.768C21.1511 87.314 22.5551 87.2 22.5551 88.088C22.5551 88.694 22.1651 89.048 21.5531 89.048C20.9351 89.048 20.5811 88.64 20.4251 88.232L20.8511 87.998C20.9831 88.322 21.2171 88.592 21.5531 88.592C21.8591 88.592 22.0391 88.436 22.0391 88.118C22.0391 87.554 20.6471 87.746 20.6471 86.762C20.6471 86.294 20.9891 85.928 21.5351 85.928ZM25.9272 87.362V87.596H23.7072C23.7372 88.154 24.0132 88.592 24.5592 88.592C25.0032 88.592 25.2312 88.388 25.3992 88.016L25.8432 88.208C25.5612 88.796 25.1832 89.048 24.5592 89.048C23.6412 89.048 23.1912 88.298 23.1912 87.488C23.1912 86.678 23.6412 85.928 24.5592 85.928C25.4532 85.928 25.9272 86.612 25.9272 87.362ZM24.5592 86.384C24.0912 86.384 23.8272 86.702 23.7372 87.14H25.3992C25.3092 86.708 25.0452 86.384 24.5592 86.384ZM26.6248 87.488C26.6248 86.582 27.0808 85.928 27.9688 85.928C28.3348 85.928 28.7068 86.126 28.8508 86.348V85.976H29.3548V90.224H28.8508V88.64C28.7488 88.814 28.3528 89.048 27.9688 89.048C27.0808 89.048 26.6248 88.394 26.6248 87.488ZM27.1408 87.488C27.1408 88.136 27.4828 88.592 28.0168 88.592C28.5688 88.592 28.8928 88.136 28.8928 87.488C28.8928 86.84 28.5688 86.384 28.0168 86.384C27.4828 86.384 27.1408 86.84 27.1408 87.488ZM30.2621 88.106V85.976H30.7661V87.974C30.7661 88.388 30.9521 88.592 31.2881 88.592C31.7381 88.592 32.1521 88.082 32.1521 87.242V85.976H32.6561V89H32.1521V88.442C31.9301 88.832 31.5701 89.048 31.1501 89.048C30.5981 89.048 30.2621 88.706 30.2621 88.106ZM34.0083 88.13C34.0083 88.418 34.1883 88.592 34.5063 88.592C34.8963 88.592 35.3523 88.352 35.3523 87.668V87.596H34.8123C34.2963 87.596 34.0083 87.788 34.0083 88.13ZM35.8563 87.068V89H35.4603L35.3763 88.574C35.1843 88.85 34.8783 89.048 34.4283 89.048C33.9243 89.048 33.4923 88.778 33.4923 88.13C33.4923 87.482 34.0323 87.14 34.8603 87.14H35.3523V87.008C35.3523 86.54 35.0583 86.384 34.6923 86.384C34.3803 86.384 34.1283 86.558 34.0623 86.858L33.6183 86.756C33.7023 86.246 34.1223 85.928 34.6923 85.928C35.3583 85.928 35.8563 86.264 35.8563 87.068ZM36.4586 86.432V85.976H36.9806V85.07L37.4846 84.752V85.976H38.2766V86.432H37.4846V88.094C37.4846 88.418 37.6346 88.592 37.8866 88.592C38.0186 88.592 38.1206 88.568 38.2286 88.496L38.3486 88.934C38.2046 89.018 38.0306 89.048 37.8566 89.048C37.3466 89.048 36.9806 88.736 36.9806 88.052V86.432H36.4586ZM40.5056 87.488C40.5056 86.582 40.9616 85.928 41.8496 85.928C42.2336 85.928 42.6296 86.162 42.7316 86.336V84.752H43.2356V89H42.7316V88.628C42.5876 88.85 42.2156 89.048 41.8496 89.048C40.9616 89.048 40.5056 88.394 40.5056 87.488ZM41.0216 87.488C41.0216 88.136 41.3636 88.592 41.8976 88.592C42.4496 88.592 42.7736 88.136 42.7736 87.488C42.7736 86.84 42.4496 86.384 41.8976 86.384C41.3636 86.384 41.0216 86.84 41.0216 87.488ZM44.1547 88.106V85.976H44.6587V87.974C44.6587 88.388 44.8447 88.592 45.1807 88.592C45.6307 88.592 46.0447 88.082 46.0447 87.242V85.976H46.5487V89H46.0447V88.442C45.8227 88.832 45.4627 89.048 45.0427 89.048C44.4907 89.048 44.1547 88.706 44.1547 88.106ZM47.4838 85.976H47.9878V89H47.4838V85.976ZM47.3578 85.136C47.3578 84.92 47.5198 84.752 47.7358 84.752C47.9518 84.752 48.1138 84.92 48.1138 85.136C48.1138 85.346 47.9518 85.508 47.7358 85.508C47.5198 85.508 47.3578 85.346 47.3578 85.136ZM49.8301 85.928C50.2021 85.928 50.4961 86.09 50.7061 86.39L50.3641 86.684C50.1661 86.468 50.0221 86.384 49.8121 86.384C49.6081 86.384 49.4461 86.522 49.4461 86.768C49.4461 87.314 50.8501 87.2 50.8501 88.088C50.8501 88.694 50.4601 89.048 49.8481 89.048C49.2301 89.048 48.8761 88.64 48.7201 88.232L49.1461 87.998C49.2781 88.322 49.5121 88.592 49.8481 88.592C50.1541 88.592 50.3341 88.436 50.3341 88.118C50.3341 87.554 48.9421 87.746 48.9421 86.762C48.9421 86.294 49.2841 85.928 49.8301 85.928ZM55.8452 87.362V87.596H53.6252C53.6552 88.154 53.9312 88.592 54.4772 88.592C54.9212 88.592 55.1492 88.388 55.3172 88.016L55.7612 88.208C55.4792 88.796 55.1012 89.048 54.4772 89.048C53.5592 89.048 53.1092 88.298 53.1092 87.488C53.1092 86.678 53.5592 85.928 54.4772 85.928C55.3712 85.928 55.8452 86.612 55.8452 87.362ZM54.4772 86.384C54.0092 86.384 53.7452 86.702 53.6552 87.14H55.3172C55.2272 86.708 54.9632 86.384 54.4772 86.384ZM59.1003 86.87V89H58.5963V87.002C58.5963 86.588 58.4103 86.384 58.0743 86.384C57.6243 86.384 57.2103 86.894 57.2103 87.734V89H56.7063V85.976H57.2103V86.534C57.4323 86.144 57.7923 85.928 58.2123 85.928C58.7643 85.928 59.1003 86.27 59.1003 86.87ZM60.0873 85.976H60.5913V89H60.0873V85.976ZM59.9613 85.136C59.9613 84.92 60.1233 84.752 60.3393 84.752C60.5553 84.752 60.7173 84.92 60.7173 85.136C60.7173 85.346 60.5553 85.508 60.3393 85.508C60.1233 85.508 59.9613 85.346 59.9613 85.136ZM65.7202 86.87V89H65.2162V86.978C65.2162 86.588 65.0482 86.384 64.7302 86.384C64.2922 86.384 63.9262 86.876 63.9262 87.758V89H63.4222V86.978C63.4222 86.588 63.2542 86.384 62.9362 86.384C62.4982 86.384 62.1322 86.876 62.1322 87.758V89H61.6282V85.976H62.1322V86.534C62.3242 86.156 62.6542 85.928 63.0742 85.928C63.4942 85.928 63.7882 86.162 63.8842 86.558C64.0942 86.162 64.4422 85.928 64.8682 85.928C65.4202 85.928 65.7202 86.288 65.7202 86.87ZM69.9615 85.976H70.4775L69.4815 89H68.9655L67.9695 85.976H68.4855L69.2235 88.358L69.9615 85.976ZM73.6108 87.362V87.596H71.3908C71.4208 88.154 71.6968 88.592 72.2428 88.592C72.6868 88.592 72.9148 88.388 73.0828 88.016L73.5268 88.208C73.2448 88.796 72.8668 89.048 72.2428 89.048C71.3248 89.048 70.8748 88.298 70.8748 87.488C70.8748 86.678 71.3248 85.928 72.2428 85.928C73.1368 85.928 73.6108 86.612 73.6108 87.362ZM72.2428 86.384C71.7748 86.384 71.5108 86.702 71.4208 87.14H73.0828C72.9928 86.708 72.7288 86.384 72.2428 86.384ZM74.413 84.752H74.917V89H74.413V84.752ZM75.8197 85.976H76.3237V89H75.8197V85.976ZM75.6937 85.136C75.6937 84.92 75.8557 84.752 76.0717 84.752C76.2877 84.752 76.4497 84.92 76.4497 85.136C76.4497 85.346 76.2877 85.508 76.0717 85.508C75.8557 85.508 75.6937 85.346 75.6937 85.136ZM77.0113 86.432V85.976H77.5333V85.07L78.0373 84.752V85.976H78.8293V86.432H78.0373V88.094C78.0373 88.418 78.1873 88.592 78.4393 88.592C78.5713 88.592 78.6733 88.568 78.7813 88.496L78.9013 88.934C78.7573 89.018 78.5833 89.048 78.4093 89.048C77.8993 89.048 77.5333 88.736 77.5333 88.052V86.432H77.0113ZM85.3784 86.87V89H84.8744V86.978C84.8744 86.588 84.7064 86.384 84.3884 86.384C83.9504 86.384 83.5844 86.876 83.5844 87.758V89H83.0804V86.978C83.0804 86.588 82.9124 86.384 82.5944 86.384C82.1564 86.384 81.7904 86.876 81.7904 87.758V89H81.2864V85.976H81.7904V86.534C81.9824 86.156 82.3124 85.928 82.7324 85.928C83.1524 85.928 83.4464 86.162 83.5424 86.558C83.7524 86.162 84.1004 85.928 84.5264 85.928C85.0784 85.928 85.3784 86.288 85.3784 86.87ZM86.1678 87.488C86.1678 86.666 86.7138 85.928 87.6198 85.928C88.5258 85.928 89.0718 86.666 89.0718 87.488C89.0718 88.31 88.5258 89.048 87.6198 89.048C86.7138 89.048 86.1678 88.31 86.1678 87.488ZM86.6838 87.488C86.6838 88.046 87.0018 88.592 87.6198 88.592C88.2378 88.592 88.5558 88.046 88.5558 87.488C88.5558 86.93 88.2378 86.384 87.6198 86.384C87.0018 86.384 86.6838 86.93 86.6838 87.488ZM89.8584 84.752H90.3624V89H89.8584V84.752ZM91.3584 84.752H91.8624V89H91.3584V84.752ZM92.765 85.976H93.269V89H92.765V85.976ZM92.639 85.136C92.639 84.92 92.801 84.752 93.017 84.752C93.233 84.752 93.395 84.92 93.395 85.136C93.395 85.346 93.233 85.508 93.017 85.508C92.801 85.508 92.639 85.346 92.639 85.136ZM93.9566 86.432V85.976H94.4786V85.07L94.9826 84.752V85.976H95.7746V86.432H94.9826V88.094C94.9826 88.418 95.1326 88.592 95.3846 88.592C95.5166 88.592 95.6186 88.568 95.7266 88.496L95.8466 88.934C95.7026 89.018 95.5286 89.048 95.3546 89.048C94.8446 89.048 94.4786 88.736 94.4786 88.052V86.432H93.9566ZM96.5732 88.646C96.5732 88.436 96.7352 88.268 96.9512 88.268C97.1612 88.268 97.3292 88.436 97.3292 88.646C97.3292 88.862 97.1612 89.024 96.9512 89.024C96.7352 89.024 96.5732 88.862 96.5732 88.646ZM10.582 94.8H12.994V95.304H11.11V96.51H12.634V97.014H11.11V98.496H13.054V99H10.582V94.8ZM13.6024 95.976H14.1904L14.7724 96.93L15.3544 95.976H15.9424L15.0604 97.404L16.0384 99H15.4504L14.7724 97.878L14.0944 99H13.5064L14.4844 97.404L13.6024 95.976ZM19.0893 97.362V97.596H16.8693C16.8993 98.154 17.1753 98.592 17.7213 98.592C18.1653 98.592 18.3933 98.388 18.5613 98.016L19.0053 98.208C18.7233 98.796 18.3453 99.048 17.7213 99.048C16.8033 99.048 16.3533 98.298 16.3533 97.488C16.3533 96.678 16.8033 95.928 17.7213 95.928C18.6153 95.928 19.0893 96.612 19.0893 97.362ZM17.7213 96.384C17.2533 96.384 16.9893 96.702 16.8993 97.14H18.5613C18.4713 96.708 18.2073 96.384 17.7213 96.384ZM21.6627 96.018L21.5607 96.468C21.4527 96.414 21.3327 96.384 21.2067 96.384C20.7927 96.384 20.3607 96.87 20.3607 97.854V99H19.8567V95.976H20.3607V96.492C20.5407 96.156 20.9127 95.928 21.2487 95.928C21.4167 95.928 21.5727 95.97 21.6627 96.018ZM24.192 98.034L24.63 98.214C24.384 98.778 23.988 99.048 23.364 99.048C22.44 99.048 21.99 98.298 21.99 97.488C21.99 96.678 22.44 95.928 23.364 95.928C23.988 95.928 24.384 96.198 24.63 96.762L24.192 96.942C24.036 96.576 23.778 96.384 23.364 96.384C22.776 96.384 22.506 96.882 22.506 97.488C22.506 98.094 22.776 98.592 23.364 98.592C23.778 98.592 24.036 98.4 24.192 98.034ZM25.4232 95.976H25.9272V99H25.4232V95.976ZM25.2972 95.136C25.2972 94.92 25.4592 94.752 25.6752 94.752C25.8912 94.752 26.0532 94.92 26.0532 95.136C26.0532 95.346 25.8912 95.508 25.6752 95.508C25.4592 95.508 25.2972 95.346 25.2972 95.136ZM26.6148 96.432V95.976H27.1368V95.07L27.6408 94.752V95.976H28.4328V96.432H27.6408V98.094C27.6408 98.418 27.7908 98.592 28.0428 98.592C28.1748 98.592 28.2768 98.568 28.3848 98.496L28.5048 98.934C28.3608 99.018 28.1868 99.048 28.0128 99.048C27.5028 99.048 27.1368 98.736 27.1368 98.052V96.432H26.6148ZM29.5727 98.13C29.5727 98.418 29.7527 98.592 30.0707 98.592C30.4607 98.592 30.9167 98.352 30.9167 97.668V97.596H30.3767C29.8607 97.596 29.5727 97.788 29.5727 98.13ZM31.4207 97.068V99H31.0247L30.9407 98.574C30.7487 98.85 30.4427 99.048 29.9927 99.048C29.4887 99.048 29.0567 98.778 29.0567 98.13C29.0567 97.482 29.5967 97.14 30.4247 97.14H30.9167V97.008C30.9167 96.54 30.6227 96.384 30.2567 96.384C29.9447 96.384 29.6927 96.558 29.6267 96.858L29.1827 96.756C29.2667 96.246 29.6867 95.928 30.2567 95.928C30.9227 95.928 31.4207 96.264 31.4207 97.068ZM32.023 96.432V95.976H32.545V95.07L33.049 94.752V95.976H33.841V96.432H33.049V98.094C33.049 98.418 33.199 98.592 33.451 98.592C33.583 98.592 33.685 98.568 33.793 98.496L33.913 98.934C33.769 99.018 33.595 99.048 33.421 99.048C32.911 99.048 32.545 98.736 32.545 98.052V96.432H32.023ZM34.6869 95.976H35.1909V99H34.6869V95.976ZM34.5609 95.136C34.5609 94.92 34.7229 94.752 34.9389 94.752C35.1549 94.752 35.3169 94.92 35.3169 95.136C35.3169 95.346 35.1549 95.508 34.9389 95.508C34.7229 95.508 34.5609 95.346 34.5609 95.136ZM35.9881 97.488C35.9881 96.666 36.5341 95.928 37.4401 95.928C38.3461 95.928 38.8921 96.666 38.8921 97.488C38.8921 98.31 38.3461 99.048 37.4401 99.048C36.5341 99.048 35.9881 98.31 35.9881 97.488ZM36.5041 97.488C36.5041 98.046 36.8221 98.592 37.4401 98.592C38.0581 98.592 38.3761 98.046 38.3761 97.488C38.3761 96.93 38.0581 96.384 37.4401 96.384C36.8221 96.384 36.5041 96.93 36.5041 97.488ZM42.1198 96.87V99H41.6158V97.002C41.6158 96.588 41.4298 96.384 41.0938 96.384C40.6438 96.384 40.2298 96.894 40.2298 97.734V99H39.7258V95.976H40.2298V96.534C40.4518 96.144 40.8118 95.928 41.2318 95.928C41.7838 95.928 42.1198 96.27 42.1198 96.87ZM46.3482 95.976H46.8642L45.8682 99H45.3522L44.3562 95.976H44.8722L45.6102 98.358L46.3482 95.976ZM49.9975 97.362V97.596H47.7775C47.8075 98.154 48.0835 98.592 48.6295 98.592C49.0735 98.592 49.3015 98.388 49.4695 98.016L49.9135 98.208C49.6315 98.796 49.2535 99.048 48.6295 99.048C47.7115 99.048 47.2615 98.298 47.2615 97.488C47.2615 96.678 47.7115 95.928 48.6295 95.928C49.5235 95.928 49.9975 96.612 49.9975 97.362ZM48.6295 96.384C48.1615 96.384 47.8975 96.702 47.8075 97.14H49.4695C49.3795 96.708 49.1155 96.384 48.6295 96.384ZM53.2526 96.87V99H52.7486V97.002C52.7486 96.588 52.5626 96.384 52.2266 96.384C51.7766 96.384 51.3626 96.894 51.3626 97.734V99H50.8586V95.976H51.3626V96.534C51.5846 96.144 51.9446 95.928 52.3646 95.928C52.9166 95.928 53.2526 96.27 53.2526 96.87ZM54.2396 95.976H54.7436V99H54.2396V95.976ZM54.1136 95.136C54.1136 94.92 54.2756 94.752 54.4916 94.752C54.7076 94.752 54.8696 94.92 54.8696 95.136C54.8696 95.346 54.7076 95.508 54.4916 95.508C54.2756 95.508 54.1136 95.346 54.1136 95.136ZM56.1157 98.13C56.1157 98.418 56.2957 98.592 56.6137 98.592C57.0037 98.592 57.4597 98.352 57.4597 97.668V97.596H56.9197C56.4037 97.596 56.1157 97.788 56.1157 98.13ZM57.9637 97.068V99H57.5677L57.4837 98.574C57.2917 98.85 56.9857 99.048 56.5357 99.048C56.0317 99.048 55.5997 98.778 55.5997 98.13C55.5997 97.482 56.1397 97.14 56.9677 97.14H57.4597V97.008C57.4597 96.54 57.1657 96.384 56.7997 96.384C56.4877 96.384 56.2357 96.558 56.1697 96.858L55.7257 96.756C55.8097 96.246 56.2297 95.928 56.7997 95.928C57.4657 95.928 57.9637 96.264 57.9637 97.068ZM62.937 96.87V99H62.433V96.978C62.433 96.588 62.265 96.384 61.947 96.384C61.509 96.384 61.143 96.876 61.143 97.758V99H60.639V96.978C60.639 96.588 60.471 96.384 60.153 96.384C59.715 96.384 59.349 96.876 59.349 97.758V99H58.845V95.976H59.349V96.534C59.541 96.156 59.871 95.928 60.291 95.928C60.711 95.928 61.005 96.162 61.101 96.558C61.311 96.162 61.659 95.928 62.085 95.928C62.637 95.928 62.937 96.288 62.937 96.87ZM67.5983 98.034L68.0363 98.214C67.7903 98.778 67.3943 99.048 66.7703 99.048C65.8463 99.048 65.3963 98.298 65.3963 97.488C65.3963 96.678 65.8463 95.928 66.7703 95.928C67.3943 95.928 67.7903 96.198 68.0363 96.762L67.5983 96.942C67.4423 96.576 67.1843 96.384 66.7703 96.384C66.1823 96.384 65.9123 96.882 65.9123 97.488C65.9123 98.094 66.1823 98.592 66.7703 98.592C67.1843 98.592 67.4423 98.4 67.5983 98.034ZM68.6482 97.488C68.6482 96.666 69.1942 95.928 70.1002 95.928C71.0062 95.928 71.5522 96.666 71.5522 97.488C71.5522 98.31 71.0062 99.048 70.1002 99.048C69.1942 99.048 68.6482 98.31 68.6482 97.488ZM69.1642 97.488C69.1642 98.046 69.4822 98.592 70.1002 98.592C70.7182 98.592 71.0362 98.046 71.0362 97.488C71.0362 96.93 70.7182 96.384 70.1002 96.384C69.4822 96.384 69.1642 96.93 69.1642 97.488ZM74.78 96.87V99H74.276V97.002C74.276 96.588 74.09 96.384 73.754 96.384C73.304 96.384 72.89 96.894 72.89 97.734V99H72.386V95.976H72.89V96.534C73.112 96.144 73.472 95.928 73.892 95.928C74.444 95.928 74.78 96.27 74.78 96.87ZM76.6074 95.928C76.9794 95.928 77.2734 96.09 77.4834 96.39L77.1414 96.684C76.9434 96.468 76.7994 96.384 76.5894 96.384C76.3854 96.384 76.2234 96.522 76.2234 96.768C76.2234 97.314 77.6274 97.2 77.6274 98.088C77.6274 98.694 77.2374 99.048 76.6254 99.048C76.0074 99.048 75.6534 98.64 75.4974 98.232L75.9234 97.998C76.0554 98.322 76.2894 98.592 76.6254 98.592C76.9314 98.592 77.1114 98.436 77.1114 98.118C77.1114 97.554 75.7194 97.746 75.7194 96.762C75.7194 96.294 76.0614 95.928 76.6074 95.928ZM80.9995 97.362V97.596H78.7795C78.8095 98.154 79.0855 98.592 79.6315 98.592C80.0755 98.592 80.3035 98.388 80.4715 98.016L80.9155 98.208C80.6335 98.796 80.2555 99.048 79.6315 99.048C78.7135 99.048 78.2635 98.298 78.2635 97.488C78.2635 96.678 78.7135 95.928 79.6315 95.928C80.5255 95.928 80.9995 96.612 80.9995 97.362ZM79.6315 96.384C79.1635 96.384 78.8995 96.702 78.8095 97.14H80.4715C80.3815 96.708 80.1175 96.384 79.6315 96.384ZM81.697 97.488C81.697 96.582 82.153 95.928 83.041 95.928C83.407 95.928 83.779 96.126 83.923 96.348V95.976H84.427V100.224H83.923V98.64C83.821 98.814 83.425 99.048 83.041 99.048C82.153 99.048 81.697 98.394 81.697 97.488ZM82.213 97.488C82.213 98.136 82.555 98.592 83.089 98.592C83.641 98.592 83.965 98.136 83.965 97.488C83.965 96.84 83.641 96.384 83.089 96.384C82.555 96.384 82.213 96.84 82.213 97.488ZM85.3344 98.106V95.976H85.8384V97.974C85.8384 98.388 86.0244 98.592 86.3604 98.592C86.8104 98.592 87.2244 98.082 87.2244 97.242V95.976H87.7284V99H87.2244V98.442C87.0024 98.832 86.6424 99.048 86.2224 99.048C85.6704 99.048 85.3344 98.706 85.3344 98.106ZM89.0805 98.13C89.0805 98.418 89.2605 98.592 89.5785 98.592C89.9685 98.592 90.4245 98.352 90.4245 97.668V97.596H89.8845C89.3685 97.596 89.0805 97.788 89.0805 98.13ZM90.9285 97.068V99H90.5325L90.4485 98.574C90.2565 98.85 89.9505 99.048 89.5005 99.048C88.9965 99.048 88.5645 98.778 88.5645 98.13C88.5645 97.482 89.1045 97.14 89.9325 97.14H90.4245V97.008C90.4245 96.54 90.1305 96.384 89.7645 96.384C89.4525 96.384 89.2005 96.558 89.1345 96.858L88.6905 96.756C88.7745 96.246 89.1945 95.928 89.7645 95.928C90.4305 95.928 90.9285 96.264 90.9285 97.068ZM91.5309 96.432V95.976H92.0529V95.07L92.5569 94.752V95.976H93.3489V96.432H92.5569V98.094C92.5569 98.418 92.7069 98.592 92.9589 98.592C93.0909 98.592 93.1929 98.568 93.3009 98.496L93.4209 98.934C93.2769 99.018 93.1029 99.048 92.9289 99.048C92.4189 99.048 92.0529 98.736 92.0529 98.052V96.432H91.5309ZM11.416 105.928C11.788 105.928 12.082 106.09 12.292 106.39L11.95 106.684C11.752 106.468 11.608 106.384 11.398 106.384C11.194 106.384 11.032 106.522 11.032 106.768C11.032 107.314 12.436 107.2 12.436 108.088C12.436 108.694 12.046 109.048 11.434 109.048C10.816 109.048 10.462 108.64 10.306 108.232L10.732 107.998C10.864 108.322 11.098 108.592 11.434 108.592C11.74 108.592 11.92 108.436 11.92 108.118C11.92 107.554 10.528 107.746 10.528 106.762C10.528 106.294 10.87 105.928 11.416 105.928ZM13.2172 108.106V105.976H13.7212V107.974C13.7212 108.388 13.9072 108.592 14.2432 108.592C14.6932 108.592 15.1072 108.082 15.1072 107.242V105.976H15.6112V109H15.1072V108.442C14.8852 108.832 14.5252 109.048 14.1052 109.048C13.5532 109.048 13.2172 108.706 13.2172 108.106ZM19.0222 106.87V109H18.5182V107.002C18.5182 106.588 18.3322 106.384 17.9962 106.384C17.5462 106.384 17.1322 106.894 17.1322 107.734V109H16.6282V105.976H17.1322V106.534C17.3542 106.144 17.7142 105.928 18.1342 105.928C18.6862 105.928 19.0222 106.27 19.0222 106.87ZM19.6715 106.432V105.976H20.1935V105.07L20.6975 104.752V105.976H21.4895V106.432H20.6975V108.094C20.6975 108.418 20.8475 108.592 21.0995 108.592C21.2315 108.592 21.3335 108.568 21.4415 108.496L21.5615 108.934C21.4175 109.018 21.2435 109.048 21.0695 109.048C20.5595 109.048 20.1935 108.736 20.1935 108.052V106.432H19.6715ZM26.3405 106.87V109H25.8365V107.002C25.8365 106.588 25.6505 106.384 25.3145 106.384C24.8645 106.384 24.4505 106.894 24.4505 107.734V109H23.9465V105.976H24.4505V106.534C24.6725 106.144 25.0325 105.928 25.4525 105.928C26.0045 105.928 26.3405 106.27 26.3405 106.87ZM27.1111 107.488C27.1111 106.666 27.6571 105.928 28.5631 105.928C29.4691 105.928 30.0151 106.666 30.0151 107.488C30.0151 108.31 29.4691 109.048 28.5631 109.048C27.6571 109.048 27.1111 108.31 27.1111 107.488ZM27.6271 107.488C27.6271 108.046 27.9451 108.592 28.5631 108.592C29.1811 108.592 29.4991 108.046 29.4991 107.488C29.4991 106.93 29.1811 106.384 28.5631 106.384C27.9451 106.384 27.6271 106.93 27.6271 107.488ZM31.7012 105.928C32.0732 105.928 32.3672 106.09 32.5772 106.39L32.2352 106.684C32.0372 106.468 31.8932 106.384 31.6832 106.384C31.4792 106.384 31.3172 106.522 31.3172 106.768C31.3172 107.314 32.7212 107.2 32.7212 108.088C32.7212 108.694 32.3312 109.048 31.7192 109.048C31.1012 109.048 30.7472 108.64 30.5912 108.232L31.0172 107.998C31.1492 108.322 31.3832 108.592 31.7192 108.592C32.0252 108.592 32.2052 108.436 32.2052 108.118C32.2052 107.554 30.8132 107.746 30.8132 106.762C30.8132 106.294 31.1552 105.928 31.7012 105.928ZM33.148 106.432V105.976H33.67V105.07L34.174 104.752V105.976H34.966V106.432H34.174V108.094C34.174 108.418 34.324 108.592 34.576 108.592C34.708 108.592 34.81 108.568 34.918 108.496L35.038 108.934C34.894 109.018 34.72 109.048 34.546 109.048C34.036 109.048 33.67 108.736 33.67 108.052V106.432H33.148ZM37.6236 106.018L37.5216 106.468C37.4136 106.414 37.2936 106.384 37.1676 106.384C36.7536 106.384 36.3216 106.87 36.3216 107.854V109H35.8176V105.976H36.3216V106.492C36.5016 106.156 36.8736 105.928 37.2096 105.928C37.3776 105.928 37.5336 105.97 37.6236 106.018ZM38.2601 108.106V105.976H38.7641V107.974C38.7641 108.388 38.9501 108.592 39.2861 108.592C39.7361 108.592 40.1501 108.082 40.1501 107.242V105.976H40.6541V109H40.1501V108.442C39.9281 108.832 39.5681 109.048 39.1481 109.048C38.5961 109.048 38.2601 108.706 38.2601 108.106ZM41.4842 107.488C41.4842 106.582 41.9402 105.928 42.8282 105.928C43.2122 105.928 43.6082 106.162 43.7102 106.336V104.752H44.2142V109H43.7102V108.628C43.5662 108.85 43.1942 109.048 42.8282 109.048C41.9402 109.048 41.4842 108.394 41.4842 107.488ZM42.0002 107.488C42.0002 108.136 42.3422 108.592 42.8762 108.592C43.4282 108.592 43.7522 108.136 43.7522 107.488C43.7522 106.84 43.4282 106.384 42.8762 106.384C42.3422 106.384 42.0002 106.84 42.0002 107.488ZM47.2211 108.13C47.2211 108.418 47.4011 108.592 47.7191 108.592C48.1091 108.592 48.5651 108.352 48.5651 107.668V107.596H48.0251C47.5091 107.596 47.2211 107.788 47.2211 108.13ZM49.0691 107.068V109H48.6731L48.5891 108.574C48.3971 108.85 48.0911 109.048 47.6411 109.048C47.1371 109.048 46.7051 108.778 46.7051 108.13C46.7051 107.482 47.2451 107.14 48.0731 107.14H48.5651V107.008C48.5651 106.54 48.2711 106.384 47.9051 106.384C47.5931 106.384 47.3411 106.558 47.2751 106.858L46.8311 106.756C46.9151 106.246 47.3351 105.928 47.9051 105.928C48.5711 105.928 49.0691 106.264 49.0691 107.068ZM54.0424 106.87V109H53.5384V106.978C53.5384 106.588 53.3704 106.384 53.0524 106.384C52.6144 106.384 52.2484 106.876 52.2484 107.758V109H51.7444V106.978C51.7444 106.588 51.5764 106.384 51.2584 106.384C50.8204 106.384 50.4544 106.876 50.4544 107.758V109H49.9504V105.976H50.4544V106.534C50.6464 106.156 50.9764 105.928 51.3964 105.928C51.8164 105.928 52.1104 106.162 52.2064 106.558C52.4164 106.162 52.7644 105.928 53.1904 105.928C53.7424 105.928 54.0424 106.288 54.0424 106.87ZM57.5678 107.362V107.596H55.3478C55.3778 108.154 55.6538 108.592 56.1998 108.592C56.6438 108.592 56.8718 108.388 57.0398 108.016L57.4838 108.208C57.2018 108.796 56.8238 109.048 56.1998 109.048C55.2818 109.048 54.8318 108.298 54.8318 107.488C54.8318 106.678 55.2818 105.928 56.1998 105.928C57.0938 105.928 57.5678 106.612 57.5678 107.362ZM56.1998 106.384C55.7318 106.384 55.4678 106.702 55.3778 107.14H57.0398C56.9498 106.708 56.6858 106.384 56.1998 106.384ZM58.0504 106.432V105.976H58.5724V105.07L59.0764 104.752V105.976H59.8684V106.432H59.0764V108.094C59.0764 108.418 59.2264 108.592 59.4784 108.592C59.6104 108.592 59.7124 108.568 59.8204 108.496L59.9404 108.934C59.7964 109.018 59.6224 109.048 59.4484 109.048C58.9384 109.048 58.5724 108.736 58.5724 108.052V106.432H58.0504ZM60.667 108.646C60.667 108.436 60.829 108.268 61.045 108.268C61.255 108.268 61.423 108.436 61.423 108.646C61.423 108.862 61.255 109.024 61.045 109.024C60.829 109.024 60.667 108.862 60.667 108.646Z" fill="white"/>
<path d="M13.632 115.28L12.92 115.752C12.696 115.328 12.416 115.136 12.088 115.136C11.728 115.136 11.504 115.416 11.504 115.744C11.504 116.848 13.904 116.632 13.904 118.36C13.904 119.384 13.16 120.064 12.152 120.064C11.168 120.064 10.504 119.4 10.304 118.504L11.024 118.048C11.184 118.672 11.512 119.232 12.152 119.232C12.656 119.232 13.008 118.888 13.008 118.392C13.008 117.296 10.624 117.536 10.624 115.808C10.624 114.96 11.272 114.336 12.088 114.336C12.856 114.336 13.336 114.752 13.632 115.28ZM14.6521 114.832C14.6521 114.512 14.9001 114.248 15.2281 114.248C15.5561 114.248 15.8041 114.512 15.8041 114.832C15.8041 115.152 15.5561 115.4 15.2281 115.4C14.9001 115.4 14.6521 115.152 14.6521 114.832ZM14.8121 115.968H15.6441V120H14.8121V115.968ZM16.7583 115.968H17.5903V116.656C17.9183 116.152 18.3183 115.904 18.8063 115.904C19.3503 115.904 19.7983 116.232 19.9183 116.736C20.1983 116.208 20.6543 115.904 21.1743 115.904C21.9103 115.904 22.3263 116.408 22.3263 117.112V120H21.4943V117.296C21.4943 116.856 21.2543 116.64 20.9023 116.64C20.4063 116.64 19.9583 117.272 19.9583 118.384V120H19.1263V117.296C19.1263 116.856 18.8863 116.64 18.5343 116.64C18.0303 116.64 17.5903 117.272 17.5903 118.472V120H16.7583V115.968ZM23.2514 117.984C23.2514 116.848 23.9874 115.904 25.2354 115.904C26.4834 115.904 27.2194 116.848 27.2194 117.984C27.2194 119.12 26.4834 120.064 25.2354 120.064C23.9874 120.064 23.2514 119.12 23.2514 117.984ZM24.1314 117.984C24.1314 118.664 24.5074 119.328 25.2354 119.328C25.9634 119.328 26.3394 118.664 26.3394 117.984C26.3394 117.304 25.9634 116.64 25.2354 116.64C24.5074 116.64 24.1314 117.304 24.1314 117.984ZM28.1411 115.968H28.9731V116.656C29.2611 116.176 29.7411 115.904 30.2771 115.904C30.9811 115.904 31.4611 116.328 31.4611 117.112V120H30.6291V117.376C30.6291 116.832 30.3811 116.64 30.0051 116.64C29.4851 116.64 28.9731 117.256 28.9731 118.368V120H28.1411V115.968ZM36.1723 114.4H37.0043L38.9483 120H38.0523L37.5883 118.608H35.5883L35.1243 120H34.2283L36.1723 114.4ZM36.5883 115.512L35.8523 117.776H37.3243L36.5883 115.512ZM36.0123 113.952L36.5563 112.768H37.6843L36.6523 113.952H36.0123ZM40.5434 120H39.7114V115.968H40.5434V116.64C40.8234 116.16 41.3034 115.904 41.7354 115.904C41.9514 115.904 42.1274 115.952 42.2474 116L42.1034 116.76C41.9754 116.68 41.7994 116.64 41.6314 116.64C41.0954 116.64 40.5434 117.232 40.5434 118.504V120ZM46.7754 117.984C46.7754 119.232 46.1674 120.064 44.9594 120.064C44.4634 120.064 44.0634 119.816 43.8794 119.552V121.632H43.0474V115.968H43.8794V116.432C44.0154 116.2 44.4474 115.904 44.9754 115.904C46.1674 115.904 46.7754 116.696 46.7754 117.984ZM45.8954 117.984C45.8954 117.152 45.4634 116.64 44.8634 116.64C44.2634 116.64 43.8314 117.152 43.8314 117.984C43.8314 118.816 44.2634 119.328 44.8634 119.328C45.4634 119.328 45.8954 118.816 45.8954 117.984ZM47.477 118.84C47.477 118.008 48.189 117.52 49.221 117.52H49.917V117.344C49.917 116.84 49.557 116.64 49.133 116.64C48.805 116.64 48.517 116.816 48.381 117.176L47.621 117.016C47.789 116.336 48.365 115.904 49.141 115.904C50.077 115.904 50.749 116.312 50.749 117.496V120H50.045L49.965 119.472C49.701 119.84 49.285 120.064 48.717 120.064C48.045 120.064 47.477 119.68 47.477 118.84ZM48.357 118.84C48.357 119.112 48.509 119.328 48.861 119.328C49.373 119.328 49.917 119 49.917 118.304V118.216H49.189C48.677 118.216 48.357 118.456 48.357 118.84ZM48.525 115.52L49.069 114.336H50.197L49.165 115.52H48.525ZM51.7045 117.984C51.7045 116.736 52.3125 115.904 53.5205 115.904C53.9205 115.904 54.4165 116.152 54.6005 116.416V114.336H55.4325V120H54.6005V119.536C54.4645 119.768 54.0325 120.064 53.5045 120.064C52.3125 120.064 51.7045 119.272 51.7045 117.984ZM52.5845 117.984C52.5845 118.816 53.0165 119.328 53.6165 119.328C54.2165 119.328 54.6485 118.816 54.6485 117.984C54.6485 117.152 54.2165 116.64 53.6165 116.64C53.0165 116.64 52.5845 117.152 52.5845 117.984Z" fill="white"/>
<path d="M12.478 130.386V129.882H13.888V132H13.438L13.384 131.424C13.186 131.772 12.772 132.048 12.202 132.048C11.248 132.048 10.33 131.358 10.33 129.9C10.33 128.442 11.248 127.752 12.226 127.752C13.108 127.752 13.69 128.262 13.876 129.024L13.366 129.174C13.174 128.586 12.784 128.256 12.226 128.256C11.452 128.256 10.876 128.814 10.876 129.9C10.876 130.986 11.452 131.544 12.226 131.544C12.952 131.544 13.336 131.058 13.384 130.386H12.478ZM14.7705 127.752H15.2745V132H14.7705V127.752ZM16.0486 130.488C16.0486 129.666 16.5946 128.928 17.5006 128.928C18.4066 128.928 18.9526 129.666 18.9526 130.488C18.9526 131.31 18.4066 132.048 17.5006 132.048C16.5946 132.048 16.0486 131.31 16.0486 130.488ZM16.5646 130.488C16.5646 131.046 16.8826 131.592 17.5006 131.592C18.1186 131.592 18.4366 131.046 18.4366 130.488C18.4366 129.93 18.1186 129.384 17.5006 129.384C16.8826 129.384 16.5646 129.93 16.5646 130.488ZM22.4402 130.488C22.4402 131.394 21.9842 132.048 21.0962 132.048C20.7302 132.048 20.3582 131.85 20.2142 131.628V132H19.7102V127.752H20.2142V129.336C20.3162 129.162 20.7122 128.928 21.0962 128.928C21.9842 128.928 22.4402 129.582 22.4402 130.488ZM21.9242 130.488C21.9242 129.84 21.5822 129.384 21.0482 129.384C20.4962 129.384 20.1722 129.84 20.1722 130.488C20.1722 131.136 20.4962 131.592 21.0482 131.592C21.5822 131.592 21.9242 131.136 21.9242 130.488ZM23.6313 131.13C23.6313 131.418 23.8113 131.592 24.1293 131.592C24.5193 131.592 24.9753 131.352 24.9753 130.668V130.596H24.4353C23.9193 130.596 23.6313 130.788 23.6313 131.13ZM25.4793 130.068V132H25.0833L24.9993 131.574C24.8073 131.85 24.5013 132.048 24.0513 132.048C23.5473 132.048 23.1153 131.778 23.1153 131.13C23.1153 130.482 23.6553 130.14 24.4833 130.14H24.9753V130.008C24.9753 129.54 24.6813 129.384 24.3153 129.384C24.0033 129.384 23.7513 129.558 23.6853 129.858L23.2413 129.756C23.3253 129.246 23.7453 128.928 24.3153 128.928C24.9813 128.928 25.4793 129.264 25.4793 130.068ZM26.3896 127.752H26.8936V132H26.3896V127.752ZM29.074 132L30.526 127.8H31.03L32.482 132H31.954L31.582 130.878H29.974L29.602 132H29.074ZM30.142 130.374H31.414L30.778 128.484L30.142 130.374ZM35.0787 131.034L35.5167 131.214C35.2707 131.778 34.8747 132.048 34.2507 132.048C33.3267 132.048 32.8767 131.298 32.8767 130.488C32.8767 129.678 33.3267 128.928 34.2507 128.928C34.8747 128.928 35.2707 129.198 35.5167 129.762L35.0787 129.942C34.9227 129.576 34.6647 129.384 34.2507 129.384C33.6627 129.384 33.3927 129.882 33.3927 130.488C33.3927 131.094 33.6627 131.592 34.2507 131.592C34.6647 131.592 34.9227 131.4 35.0787 131.034ZM38.3307 131.034L38.7687 131.214C38.5227 131.778 38.1267 132.048 37.5027 132.048C36.5787 132.048 36.1287 131.298 36.1287 130.488C36.1287 129.678 36.5787 128.928 37.5027 128.928C38.1267 128.928 38.5227 129.198 38.7687 129.762L38.3307 129.942C38.1747 129.576 37.9167 129.384 37.5027 129.384C36.9147 129.384 36.6447 129.882 36.6447 130.488C36.6447 131.094 36.9147 131.592 37.5027 131.592C37.9167 131.592 38.1747 131.4 38.3307 131.034ZM39.3806 130.488C39.3806 129.666 39.9266 128.928 40.8326 128.928C41.7386 128.928 42.2846 129.666 42.2846 130.488C42.2846 131.31 41.7386 132.048 40.8326 132.048C39.9266 132.048 39.3806 131.31 39.3806 130.488ZM39.8966 130.488C39.8966 131.046 40.2146 131.592 40.8326 131.592C41.4506 131.592 41.7686 131.046 41.7686 130.488C41.7686 129.93 41.4506 129.384 40.8326 129.384C40.2146 129.384 39.8966 129.93 39.8966 130.488ZM43.0824 131.106V128.976H43.5864V130.974C43.5864 131.388 43.7724 131.592 44.1084 131.592C44.5584 131.592 44.9724 131.082 44.9724 130.242V128.976H45.4764V132H44.9724V131.442C44.7504 131.832 44.3904 132.048 43.9704 132.048C43.4184 132.048 43.0824 131.706 43.0824 131.106ZM48.8874 129.87V132H48.3834V130.002C48.3834 129.588 48.1974 129.384 47.8614 129.384C47.4114 129.384 46.9974 129.894 46.9974 130.734V132H46.4934V128.976H46.9974V129.534C47.2194 129.144 47.5794 128.928 47.9994 128.928C48.5514 128.928 48.8874 129.27 48.8874 129.87ZM49.5367 129.432V128.976H50.0587V128.07L50.5627 127.752V128.976H51.3547V129.432H50.5627V131.094C50.5627 131.418 50.7127 131.592 50.9647 131.592C51.0967 131.592 51.1987 131.568 51.3067 131.496L51.4267 131.934C51.2827 132.018 51.1087 132.048 50.9347 132.048C50.4247 132.048 50.0587 131.736 50.0587 131.052V129.432H49.5367ZM52.4946 131.13C52.4946 131.418 52.6746 131.592 52.9926 131.592C53.3826 131.592 53.8386 131.352 53.8386 130.668V130.596H53.2986C52.7826 130.596 52.4946 130.788 52.4946 131.13ZM54.3426 130.068V132H53.9466L53.8626 131.574C53.6706 131.85 53.3646 132.048 52.9146 132.048C52.4106 132.048 51.9786 131.778 51.9786 131.13C51.9786 130.482 52.5186 130.14 53.3466 130.14H53.8386V130.008C53.8386 129.54 53.5446 129.384 53.1786 129.384C52.8666 129.384 52.6146 129.558 52.5486 129.858L52.1046 129.756C52.1886 129.246 52.6086 128.928 53.1786 128.928C53.8446 128.928 54.3426 129.264 54.3426 130.068ZM57.9597 130.488C57.9597 131.394 57.5037 132.048 56.6157 132.048C56.2497 132.048 55.8777 131.85 55.7337 131.628V132H55.2297V127.752H55.7337V129.336C55.8357 129.162 56.2317 128.928 56.6157 128.928C57.5037 128.928 57.9597 129.582 57.9597 130.488ZM57.4437 130.488C57.4437 129.84 57.1017 129.384 56.5677 129.384C56.0157 129.384 55.6917 129.84 55.6917 130.488C55.6917 131.136 56.0157 131.592 56.5677 131.592C57.1017 131.592 57.4437 131.136 57.4437 130.488ZM58.7748 128.976H59.2788V132H58.7748V128.976ZM58.6488 128.136C58.6488 127.92 58.8108 127.752 59.0268 127.752C59.2428 127.752 59.4048 127.92 59.4048 128.136C59.4048 128.346 59.2428 128.508 59.0268 128.508C58.8108 128.508 58.6488 128.346 58.6488 128.136ZM60.2627 127.752H60.7667V132H60.2627V127.752ZM61.6693 128.976H62.1733V132H61.6693V128.976ZM61.5433 128.136C61.5433 127.92 61.7053 127.752 61.9213 127.752C62.1373 127.752 62.2993 127.92 62.2993 128.136C62.2993 128.346 62.1373 128.508 61.9213 128.508C61.7053 128.508 61.5433 128.346 61.5433 128.136ZM62.8609 129.432V128.976H63.3829V128.07L63.8869 127.752V128.976H64.6789V129.432H63.8869V131.094C63.8869 131.418 64.0369 131.592 64.2889 131.592C64.4209 131.592 64.5229 131.568 64.6309 131.496L64.7509 131.934C64.6069 132.018 64.4329 132.048 64.2589 132.048C63.7489 132.048 63.3829 131.736 63.3829 131.052V129.432H62.8609ZM67.2323 128.976H67.7603L66.2603 133.224H65.7443L66.2243 131.874L65.1623 128.976H65.7143L66.4823 131.16L67.2323 128.976ZM71.6515 127.752C72.6535 127.752 73.5355 128.502 73.5355 129.9C73.5355 131.298 72.6535 132.048 71.6515 132.048C70.6495 132.048 69.7675 131.298 69.7675 129.9C69.7675 128.502 70.6495 127.752 71.6515 127.752ZM71.6515 128.256C70.9075 128.256 70.3135 128.802 70.3135 129.9C70.3135 130.998 70.9075 131.544 71.6515 131.544C72.3955 131.544 72.9895 130.998 72.9895 129.9C72.9895 128.802 72.3955 128.256 71.6515 128.256ZM74.1492 129.432V128.976H74.5812V128.778C74.5812 128.082 74.9472 127.752 75.5592 127.752C75.7272 127.752 75.8952 127.794 75.9912 127.848L75.8892 128.292C75.7812 128.238 75.6612 128.208 75.5532 128.208C75.2232 128.208 75.0852 128.388 75.0852 128.778V128.976H75.7812V129.432H75.0852V132H74.5812V129.432H74.1492ZM76.3347 129.432V128.976H76.7667V128.88C76.7667 128.13 77.3067 127.752 77.9367 127.752C78.2487 127.752 78.5127 127.812 78.7107 127.95L78.6027 128.382C78.4047 128.262 78.1587 128.208 77.9307 128.208C77.5287 128.208 77.2707 128.424 77.2707 128.874V128.976H78.8127V132H78.3087V129.432H77.2707V132H76.7667V129.432H76.3347ZM81.8424 131.034L82.2804 131.214C82.0344 131.778 81.6384 132.048 81.0144 132.048C80.0904 132.048 79.6404 131.298 79.6404 130.488C79.6404 129.678 80.0904 128.928 81.0144 128.928C81.6384 128.928 82.0344 129.198 82.2804 129.762L81.8424 129.942C81.6864 129.576 81.4284 129.384 81.0144 129.384C80.4264 129.384 80.1564 129.882 80.1564 130.488C80.1564 131.094 80.4264 131.592 81.0144 131.592C81.4284 131.592 81.6864 131.4 81.8424 131.034ZM85.6284 130.362V130.596H83.4084C83.4384 131.154 83.7144 131.592 84.2604 131.592C84.7044 131.592 84.9324 131.388 85.1004 131.016L85.5444 131.208C85.2624 131.796 84.8844 132.048 84.2604 132.048C83.3424 132.048 82.8924 131.298 82.8924 130.488C82.8924 129.678 83.3424 128.928 84.2604 128.928C85.1544 128.928 85.6284 129.612 85.6284 130.362ZM84.2604 129.384C83.7924 129.384 83.5284 129.702 83.4384 130.14H85.1004C85.0104 129.708 84.7464 129.384 84.2604 129.384ZM88.2018 129.018L88.0998 129.468C87.9918 129.414 87.8718 129.384 87.7458 129.384C87.3318 129.384 86.8998 129.87 86.8998 130.854V132H86.3958V128.976H86.8998V129.492C87.0798 129.156 87.4518 128.928 87.7878 128.928C87.9558 128.928 88.1118 128.97 88.2018 129.018Z" fill="white"/>
<g style="mix-blend-mode:multiply">
<path d="M33.7 149L30.4 138.2H31.58L34.29 147.07L37 138.2H38.11L40.83 147.07L43.55 138.2H44.71L41.41 149H40.33L37.56 140.01L34.78 149H33.7ZM54.4272 149V143.38C54.4272 142.7 54.3572 142.093 54.2172 141.56C54.0839 141.027 53.8772 140.573 53.5972 140.2C53.3239 139.827 52.9772 139.543 52.5572 139.35C52.1439 139.157 51.6539 139.06 51.0872 139.06C50.5005 139.06 49.9905 139.163 49.5572 139.37C49.1305 139.57 48.7772 139.853 48.4972 140.22C48.2239 140.587 48.0172 141.023 47.8772 141.53C47.7439 142.03 47.6772 142.577 47.6772 143.17L46.7672 143.06C46.7672 141.893 46.9639 140.933 47.3572 140.18C47.7572 139.42 48.2939 138.86 48.9672 138.5C49.6405 138.133 50.3972 137.95 51.2372 137.95C51.8305 137.95 52.3605 138.037 52.8272 138.21C53.3005 138.383 53.7105 138.63 54.0572 138.95C54.4039 139.263 54.6905 139.637 54.9172 140.07C55.1439 140.497 55.3105 140.967 55.4172 141.48C55.5305 141.993 55.5872 142.53 55.5872 143.09V149H54.4272ZM46.5172 149V134.6H47.5672V142.92H47.6772V149H46.5172ZM61.2973 149.3C60.464 149.3 59.7707 149.153 59.2173 148.86C58.6707 148.567 58.2607 148.18 57.9873 147.7C57.714 147.213 57.5773 146.687 57.5773 146.12C57.5773 145.507 57.704 144.993 57.9573 144.58C58.2173 144.167 58.5607 143.833 58.9873 143.58C59.4207 143.327 59.8973 143.137 60.4173 143.01C61.0107 142.877 61.6507 142.763 62.3373 142.67C63.024 142.57 63.6773 142.483 64.2973 142.41C64.924 142.337 65.434 142.273 65.8273 142.22L65.4073 142.47C65.434 141.303 65.214 140.437 64.7473 139.87C64.2873 139.297 63.474 139.01 62.3073 139.01C61.4873 139.01 60.8107 139.197 60.2773 139.57C59.7507 139.937 59.3807 140.507 59.1673 141.28L57.9873 140.95C58.234 139.97 58.7307 139.217 59.4773 138.69C60.224 138.163 61.1807 137.9 62.3473 137.9C63.3407 137.9 64.174 138.093 64.8473 138.48C65.5273 138.867 66.0007 139.41 66.2673 140.11C66.3807 140.397 66.4573 140.733 66.4973 141.12C66.5373 141.5 66.5573 141.883 66.5573 142.27V149H65.5073V146.16L65.8973 146.26C65.5707 147.233 65.0007 147.983 64.1873 148.51C63.374 149.037 62.4107 149.3 61.2973 149.3ZM61.3573 148.24C62.0907 148.24 62.734 148.11 63.2873 147.85C63.8407 147.583 64.2873 147.213 64.6273 146.74C64.974 146.26 65.194 145.697 65.2873 145.05C65.354 144.69 65.3907 144.3 65.3973 143.88C65.404 143.46 65.4073 143.15 65.4073 142.95L65.9073 143.27C65.474 143.323 64.954 143.38 64.3473 143.44C63.7473 143.5 63.134 143.573 62.5073 143.66C61.8807 143.747 61.314 143.857 60.8073 143.99C60.494 144.077 60.1773 144.203 59.8573 144.37C59.544 144.53 59.2807 144.753 59.0673 145.04C58.8607 145.327 58.7573 145.69 58.7573 146.13C58.7573 146.457 58.8373 146.783 58.9973 147.11C59.164 147.437 59.4373 147.707 59.8173 147.92C60.1973 148.133 60.7107 148.24 61.3573 148.24ZM74.8839 149C74.3106 149.127 73.7439 149.173 73.1839 149.14C72.6239 149.113 72.1239 148.99 71.6839 148.77C71.2506 148.543 70.9239 148.197 70.7039 147.73C70.5239 147.35 70.4239 146.967 70.4039 146.58C70.3839 146.193 70.3739 145.75 70.3739 145.25V135.2H71.5339V145.23C71.5339 145.683 71.5372 146.06 71.5439 146.36C71.5572 146.653 71.6272 146.923 71.7539 147.17C71.9939 147.63 72.3739 147.91 72.8939 148.01C73.4139 148.103 74.0772 148.087 74.8839 147.96V149ZM67.9539 139.25V138.2H74.8839V139.25H67.9539ZM84.0708 149.3C83.2374 149.3 82.5441 149.153 81.9908 148.86C81.4441 148.567 81.0341 148.18 80.7608 147.7C80.4874 147.213 80.3508 146.687 80.3508 146.12C80.3508 145.507 80.4774 144.993 80.7308 144.58C80.9908 144.167 81.3341 143.833 81.7608 143.58C82.1941 143.327 82.6708 143.137 83.1908 143.01C83.7841 142.877 84.4241 142.763 85.1108 142.67C85.7974 142.57 86.4508 142.483 87.0708 142.41C87.6974 142.337 88.2074 142.273 88.6008 142.22L88.1808 142.47C88.2074 141.303 87.9874 140.437 87.5208 139.87C87.0608 139.297 86.2474 139.01 85.0808 139.01C84.2608 139.01 83.5841 139.197 83.0508 139.57C82.5241 139.937 82.1541 140.507 81.9408 141.28L80.7608 140.95C81.0074 139.97 81.5041 139.217 82.2508 138.69C82.9974 138.163 83.9541 137.9 85.1208 137.9C86.1141 137.9 86.9474 138.093 87.6208 138.48C88.3008 138.867 88.7741 139.41 89.0408 140.11C89.1541 140.397 89.2308 140.733 89.2708 141.12C89.3108 141.5 89.3308 141.883 89.3308 142.27V149H88.2808V146.16L88.6708 146.26C88.3441 147.233 87.7741 147.983 86.9608 148.51C86.1474 149.037 85.1841 149.3 84.0708 149.3ZM84.1308 148.24C84.8641 148.24 85.5074 148.11 86.0608 147.85C86.6141 147.583 87.0608 147.213 87.4008 146.74C87.7474 146.26 87.9674 145.697 88.0608 145.05C88.1274 144.69 88.1641 144.3 88.1708 143.88C88.1774 143.46 88.1808 143.15 88.1808 142.95L88.6808 143.27C88.2474 143.323 87.7274 143.38 87.1208 143.44C86.5208 143.5 85.9074 143.573 85.2808 143.66C84.6541 143.747 84.0874 143.857 83.5808 143.99C83.2674 144.077 82.9508 144.203 82.6308 144.37C82.3174 144.53 82.0541 144.753 81.8408 145.04C81.6341 145.327 81.5308 145.69 81.5308 146.13C81.5308 146.457 81.6108 146.783 81.7708 147.11C81.9374 147.437 82.2108 147.707 82.5908 147.92C82.9708 148.133 83.4841 148.24 84.1308 148.24ZM91.9273 149V138.2H92.9773V140.79L92.7173 140.45C92.8373 140.143 92.9873 139.86 93.1673 139.6C93.354 139.333 93.544 139.117 93.7373 138.95C94.024 138.683 94.3607 138.483 94.7473 138.35C95.134 138.21 95.524 138.13 95.9173 138.11C96.3107 138.083 96.6673 138.113 96.9873 138.2V139.29C96.5607 139.19 96.1073 139.17 95.6273 139.23C95.1473 139.29 94.6973 139.497 94.2773 139.85C93.9107 140.17 93.644 140.543 93.4773 140.97C93.3107 141.39 93.204 141.833 93.1573 142.3C93.1107 142.76 93.0873 143.21 93.0873 143.65V149H91.9273ZM103.135 149.3C102.102 149.3 101.208 149.07 100.455 148.61C99.7018 148.143 99.1185 147.487 98.7052 146.64C98.2918 145.787 98.0852 144.78 98.0852 143.62C98.0852 142.44 98.2885 141.423 98.6952 140.57C99.1085 139.71 99.6885 139.05 100.435 138.59C101.188 138.13 102.082 137.9 103.115 137.9C104.162 137.9 105.055 138.14 105.795 138.62C106.542 139.093 107.108 139.78 107.495 140.68C107.888 141.58 108.075 142.663 108.055 143.93H106.855V143.53C106.822 142.05 106.488 140.923 105.855 140.15C105.222 139.377 104.315 138.99 103.135 138.99C101.915 138.99 100.972 139.393 100.305 140.2C99.6452 141 99.3152 142.133 99.3152 143.6C99.3152 145.053 99.6452 146.18 100.305 146.98C100.972 147.78 101.908 148.18 103.115 148.18C103.948 148.18 104.675 147.987 105.295 147.6C105.922 147.207 106.418 146.647 106.785 145.92L107.825 146.38C107.392 147.313 106.765 148.033 105.945 148.54C105.125 149.047 104.188 149.3 103.135 149.3ZM98.8752 143.93V142.89H107.405V143.93H98.8752ZM37.13 166C36.5567 166.127 35.99 166.173 35.43 166.14C34.87 166.113 34.37 165.99 33.93 165.77C33.4967 165.543 33.17 165.197 32.95 164.73C32.77 164.35 32.67 163.967 32.65 163.58C32.63 163.193 32.62 162.75 32.62 162.25V152.2H33.78V162.23C33.78 162.683 33.7833 163.06 33.79 163.36C33.8033 163.653 33.8733 163.923 34 164.17C34.24 164.63 34.62 164.91 35.14 165.01C35.66 165.103 36.3233 165.087 37.13 164.96V166ZM30.2 156.25V155.2H37.13V156.25H30.2ZM47.103 166V160.38C47.103 159.7 47.033 159.093 46.893 158.56C46.7596 158.027 46.553 157.573 46.273 157.2C45.9996 156.827 45.653 156.543 45.233 156.35C44.8196 156.157 44.3296 156.06 43.763 156.06C43.1763 156.06 42.6663 156.163 42.233 156.37C41.8063 156.57 41.453 156.853 41.173 157.22C40.8996 157.587 40.693 158.023 40.553 158.53C40.4196 159.03 40.353 159.577 40.353 160.17L39.443 160.06C39.443 158.893 39.6396 157.933 40.033 157.18C40.433 156.42 40.9696 155.86 41.643 155.5C42.3163 155.133 43.073 154.95 43.913 154.95C44.5063 154.95 45.0363 155.037 45.503 155.21C45.9763 155.383 46.3863 155.63 46.733 155.95C47.0796 156.263 47.3663 156.637 47.593 157.07C47.8196 157.497 47.9863 157.967 48.093 158.48C48.2063 158.993 48.263 159.53 48.263 160.09V166H47.103ZM39.193 166V151.6H40.243V159.92H40.353V166H39.193ZM55.3031 166.3C54.2698 166.3 53.3765 166.07 52.6231 165.61C51.8698 165.143 51.2865 164.487 50.8731 163.64C50.4598 162.787 50.2531 161.78 50.2531 160.62C50.2531 159.44 50.4565 158.423 50.8631 157.57C51.2765 156.71 51.8565 156.05 52.6031 155.59C53.3565 155.13 54.2498 154.9 55.2831 154.9C56.3298 154.9 57.2231 155.14 57.9631 155.62C58.7098 156.093 59.2765 156.78 59.6631 157.68C60.0565 158.58 60.2431 159.663 60.2231 160.93H59.0231V160.53C58.9898 159.05 58.6565 157.923 58.0231 157.15C57.3898 156.377 56.4831 155.99 55.3031 155.99C54.0831 155.99 53.1398 156.393 52.4731 157.2C51.8131 158 51.4831 159.133 51.4831 160.6C51.4831 162.053 51.8131 163.18 52.4731 163.98C53.1398 164.78 54.0765 165.18 55.2831 165.18C56.1165 165.18 56.8431 164.987 57.4631 164.6C58.0898 164.207 58.5865 163.647 58.9531 162.92L59.9931 163.38C59.5598 164.313 58.9331 165.033 58.1131 165.54C57.2931 166.047 56.3565 166.3 55.3031 166.3ZM51.0431 160.93V159.89H59.5731V160.93H51.0431ZM63.8198 170.8L65.9198 165.15L65.9398 166.83L61.2098 155.2H62.4398L66.4998 165.3H65.8598L69.5498 155.2H70.7598L65.0198 170.8H63.8198ZM80.5658 166.28C79.3191 166.28 78.2891 166.017 77.4758 165.49C76.6691 164.963 76.1691 164.23 75.9758 163.29L77.1558 163.09C77.3224 163.73 77.7158 164.24 78.3358 164.62C78.9558 165 79.7158 165.19 80.6158 165.19C81.5091 165.19 82.2191 165 82.7458 164.62C83.2724 164.24 83.5358 163.72 83.5358 163.06C83.5358 162.7 83.4524 162.407 83.2858 162.18C83.1258 161.947 82.8058 161.733 82.3258 161.54C81.8458 161.347 81.1324 161.12 80.1858 160.86C79.1858 160.593 78.4024 160.327 77.8358 160.06C77.2758 159.793 76.8791 159.49 76.6458 159.15C76.4191 158.81 76.3058 158.393 76.3058 157.9C76.3058 157.307 76.4758 156.787 76.8158 156.34C77.1558 155.887 77.6291 155.533 78.2358 155.28C78.8491 155.027 79.5558 154.9 80.3558 154.9C81.1558 154.9 81.8758 155.033 82.5158 155.3C83.1558 155.56 83.6724 155.927 84.0658 156.4C84.4591 156.867 84.6858 157.41 84.7458 158.03L83.5658 158.25C83.4524 157.557 83.1024 157.01 82.5158 156.61C81.9291 156.203 81.1958 155.997 80.3158 155.99C79.4824 155.977 78.8024 156.143 78.2758 156.49C77.7491 156.83 77.4858 157.28 77.4858 157.84C77.4858 158.16 77.5758 158.433 77.7558 158.66C77.9424 158.88 78.2691 159.083 78.7358 159.27C79.2024 159.457 79.8624 159.657 80.7158 159.87C81.7558 160.137 82.5658 160.41 83.1458 160.69C83.7324 160.97 84.1458 161.3 84.3858 161.68C84.6258 162.053 84.7458 162.517 84.7458 163.07C84.7458 164.07 84.3724 164.857 83.6258 165.43C82.8858 165.997 81.8658 166.28 80.5658 166.28ZM90.0864 166.3C89.2531 166.3 88.5597 166.153 88.0064 165.86C87.4597 165.567 87.0497 165.18 86.7764 164.7C86.5031 164.213 86.3664 163.687 86.3664 163.12C86.3664 162.507 86.4931 161.993 86.7464 161.58C87.0064 161.167 87.3497 160.833 87.7764 160.58C88.2097 160.327 88.6864 160.137 89.2064 160.01C89.7997 159.877 90.4397 159.763 91.1264 159.67C91.8131 159.57 92.4664 159.483 93.0864 159.41C93.7131 159.337 94.2231 159.273 94.6164 159.22L94.1964 159.47C94.2231 158.303 94.0031 157.437 93.5364 156.87C93.0764 156.297 92.2631 156.01 91.0964 156.01C90.2764 156.01 89.5997 156.197 89.0664 156.57C88.5397 156.937 88.1697 157.507 87.9564 158.28L86.7764 157.95C87.0231 156.97 87.5197 156.217 88.2664 155.69C89.0131 155.163 89.9697 154.9 91.1364 154.9C92.1297 154.9 92.9631 155.093 93.6364 155.48C94.3164 155.867 94.7897 156.41 95.0564 157.11C95.1697 157.397 95.2464 157.733 95.2864 158.12C95.3264 158.5 95.3464 158.883 95.3464 159.27V166H94.2964V163.16L94.6864 163.26C94.3597 164.233 93.7897 164.983 92.9764 165.51C92.1631 166.037 91.1997 166.3 90.0864 166.3ZM90.1464 165.24C90.8797 165.24 91.5231 165.11 92.0764 164.85C92.6297 164.583 93.0764 164.213 93.4164 163.74C93.7631 163.26 93.9831 162.697 94.0764 162.05C94.1431 161.69 94.1797 161.3 94.1864 160.88C94.1931 160.46 94.1964 160.15 94.1964 159.95L94.6964 160.27C94.2631 160.323 93.7431 160.38 93.1364 160.44C92.5364 160.5 91.9231 160.573 91.2964 160.66C90.6697 160.747 90.1031 160.857 89.5964 160.99C89.2831 161.077 88.9664 161.203 88.6464 161.37C88.3331 161.53 88.0697 161.753 87.8564 162.04C87.6497 162.327 87.5464 162.69 87.5464 163.13C87.5464 163.457 87.6264 163.783 87.7864 164.11C87.9531 164.437 88.2264 164.707 88.6064 164.92C88.9864 165.133 89.4997 165.24 90.1464 165.24ZM98.9175 170.8L101.018 165.15L101.038 166.83L96.3075 155.2H97.5375L101.598 165.3H100.958L104.648 155.2H105.858L100.118 170.8H98.9175ZM110.56 162.07C110.56 161.53 110.576 161.067 110.61 160.68C110.65 160.293 110.78 159.893 111 159.48C111.2 159.093 111.456 158.77 111.77 158.51C112.09 158.243 112.416 157.997 112.75 157.77C113.09 157.537 113.396 157.273 113.67 156.98C113.923 156.687 114.093 156.387 114.18 156.08C114.273 155.767 114.32 155.437 114.32 155.09C114.32 154.717 114.27 154.383 114.17 154.09C114.076 153.797 113.933 153.543 113.74 153.33C113.446 152.983 113.09 152.747 112.67 152.62C112.25 152.493 111.82 152.43 111.38 152.43C110.92 152.43 110.49 152.497 110.09 152.63C109.696 152.763 109.373 152.967 109.12 153.24C108.886 153.467 108.716 153.743 108.61 154.07C108.503 154.39 108.45 154.727 108.45 155.08H107.27C107.283 154.593 107.376 154.11 107.55 153.63C107.723 153.15 107.99 152.74 108.35 152.4C108.75 152.013 109.22 151.733 109.76 151.56C110.3 151.387 110.843 151.3 111.39 151.3C112.016 151.3 112.613 151.397 113.18 151.59C113.746 151.777 114.223 152.087 114.61 152.52C114.936 152.867 115.173 153.257 115.32 153.69C115.473 154.123 115.55 154.593 115.55 155.1C115.55 155.6 115.46 156.08 115.28 156.54C115.1 157 114.84 157.403 114.5 157.75C114.266 158.003 113.99 158.243 113.67 158.47C113.35 158.697 113.043 158.93 112.75 159.17C112.456 159.41 112.23 159.677 112.07 159.97C111.903 160.283 111.813 160.597 111.8 160.91C111.793 161.223 111.79 161.61 111.79 162.07H110.56ZM110.56 166V164.27H111.79V166H110.56Z" fill="black" fill-opacity="0.6"/>
</g>
<path d="M12.3138 30.6508C12.6872 29.5017 14.3128 29.5017 14.6862 30.6508L14.9038 31.3205C15.0708 31.8344 15.5497 32.1824 16.09 32.1824H16.7943C18.0025 32.1824 18.5049 33.7285 17.5274 34.4387L16.9577 34.8526C16.5205 35.1702 16.3376 35.7332 16.5046 36.2471L16.7222 36.9169C17.0955 38.066 15.7803 39.0215 14.8029 38.3113L14.2331 37.8974C13.796 37.5798 13.204 37.5798 12.7669 37.8974L12.1971 38.3113C11.2197 39.0215 9.90445 38.066 10.2778 36.9169L10.4954 36.2471C10.6624 35.7332 10.4795 35.1702 10.0423 34.8526L9.47261 34.4387C8.49512 33.7285 8.99748 32.1824 10.2057 32.1824H10.91C11.4503 32.1824 11.9292 31.8344 12.0962 31.3205L12.3138 30.6508Z" fill="white"/>
<path d="M27.3138 30.6508C27.6872 29.5017 29.3128 29.5017 29.6862 30.6508L29.9038 31.3205C30.0708 31.8344 30.5497 32.1824 31.09 32.1824H31.7943C33.0025 32.1824 33.5049 33.7285 32.5274 34.4387L31.9577 34.8526C31.5205 35.1702 31.3376 35.7332 31.5046 36.2471L31.7222 36.9169C32.0955 38.066 30.7803 39.0215 29.8029 38.3113L29.2331 37.8974C28.796 37.5798 28.204 37.5798 27.7669 37.8974L27.1971 38.3113C26.2197 39.0215 24.9045 38.066 25.2778 36.9169L25.4954 36.2471C25.6624 35.7332 25.4795 35.1702 25.0423 34.8526L24.4726 34.4387C23.4951 33.7285 23.9975 32.1824 25.2057 32.1824H25.91C26.4503 32.1824 26.9292 31.8344 27.0962 31.3205L27.3138 30.6508Z" fill="white"/>
<path d="M42.3138 30.6508C42.6872 29.5017 44.3128 29.5017 44.6862 30.6508L44.9038 31.3205C45.0708 31.8344 45.5497 32.1824 46.09 32.1824H46.7943C48.0025 32.1824 48.5049 33.7285 47.5274 34.4387L46.9577 34.8526C46.5205 35.1702 46.3376 35.7332 46.5046 36.2471L46.7222 36.9169C47.0955 38.066 45.7803 39.0215 44.8029 38.3113L44.2331 37.8974C43.796 37.5798 43.204 37.5798 42.7669 37.8974L42.1971 38.3113C41.2197 39.0215 39.9045 38.066 40.2778 36.9169L40.4954 36.2471C40.6624 35.7332 40.4795 35.1702 40.0423 34.8526L39.4726 34.4387C38.4951 33.7285 38.9975 32.1824 40.2057 32.1824H40.91C41.4503 32.1824 41.9292 31.8344 42.0962 31.3205L42.3138 30.6508Z" fill="white"/>
<path d="M57.3138 30.6508C57.6872 29.5017 59.3128 29.5017 59.6862 30.6508L59.9038 31.3205C60.0708 31.8344 60.5497 32.1824 61.09 32.1824H61.7943C63.0025 32.1824 63.5049 33.7285 62.5274 34.4387L61.9577 34.8526C61.5205 35.1702 61.3376 35.7332 61.5046 36.2471L61.7222 36.9169C62.0955 38.066 60.7803 39.0215 59.8029 38.3113L59.2331 37.8974C58.796 37.5798 58.204 37.5798 57.7669 37.8974L57.1971 38.3113C56.2197 39.0215 54.9045 38.066 55.2778 36.9169L55.4954 36.2471C55.6624 35.7332 55.4795 35.1702 55.0423 34.8526L54.4726 34.4387C53.4951 33.7285 53.9975 32.1824 55.2057 32.1824H55.91C56.4503 32.1824 56.9292 31.8344 57.0962 31.3205L57.3138 30.6508Z" fill="white"/>
<path d="M72.3138 30.6508C72.6872 29.5017 74.3128 29.5017 74.6862 30.6508L74.9038 31.3205C75.0708 31.8344 75.5497 32.1824 76.09 32.1824H76.7943C78.0025 32.1824 78.5049 33.7285 77.5274 34.4387L76.9577 34.8526C76.5205 35.1702 76.3376 35.7332 76.5046 36.2471L76.7222 36.9169C77.0955 38.066 75.7803 39.0215 74.8029 38.3113L74.2331 37.8974C73.796 37.5798 73.204 37.5798 72.7669 37.8974L72.1971 38.3113C71.2197 39.0215 69.9045 38.066 70.2778 36.9169L70.4954 36.2471C70.6624 35.7332 70.4795 35.1702 70.0423 34.8526L69.4726 34.4387C68.4951 33.7285 68.9975 32.1824 70.2057 32.1824H70.91C71.4503 32.1824 71.9292 31.8344 72.0962 31.3205L72.3138 30.6508Z" fill="white"/>
<path d="M108.058 19.176C110.413 19.176 112 20.7644 112 23.1178C112 25.2356 110.176 27 107.705 27C104.999 27 103 24.8822 103 21.6473C103 14.2945 108.529 11.3535 112 11V14.2349C109.646 14.6465 107 16.9404 106.882 19.4713C107 19.4131 107.47 19.176 108.058 19.176ZM96.0595 19.176C98.4115 19.176 100 20.7644 100 23.1178C100 25.2356 98.176 27 95.7055 27C92.9995 27 91 24.8822 91 21.6473C91 14.2945 96.529 11.3535 100 11V14.2349C97.6465 14.6465 95.0005 16.9404 94.882 19.4713C95.0005 19.4131 95.47 19.176 96.0595 19.176Z" fill="white"/>
</svg>
