<svg width="15" height="15" viewBox="0 0 15 15" fill="none" xmlns="http://www.w3.org/2000/svg">
<path d="M12.0782 5.91768C12.0782 5.91768 11.7388 10.1271 11.5419 11.9002C11.4482 12.7471 10.9251 13.2433 10.0682 13.2589C8.43756 13.2883 6.80506 13.2902 5.17506 13.2558C4.35068 13.2389 3.83631 12.7364 3.74443 11.9046C3.54631 10.1158 3.20881 5.91768 3.20881 5.91768M12.9427 3.89988H2.34399M10.9005 3.89986C10.4099 3.89986 9.98737 3.55299 9.89112 3.07236L9.73925 2.31236C9.6455 1.96174 9.328 1.71924 8.96612 1.71924H6.3205C5.95862 1.71924 5.64112 1.96174 5.54737 2.31236L5.3955 3.07236C5.29925 3.55299 4.87675 3.89986 4.38612 3.89986" stroke="#8F959E" stroke-width="1.3" stroke-linecap="round" stroke-linejoin="round"/>
</svg>
