<svg width="86" height="88" viewBox="0 0 86 88" fill="none" xmlns="http://www.w3.org/2000/svg">
<g filter="url(#filter0_d_84_856)">
<rect x="12" y="8" width="62" height="64" rx="8" fill="white" shape-rendering="crispEdges"/>
<rect x="20" y="22" width="4" height="11" rx="2" fill="#E8BD3C"/>
<rect x="27" y="21" width="4" height="12" rx="2" fill="#6D21B1"/>
<rect x="34" y="21" width="4" height="12" rx="2" fill="#E1632C"/>
<rect x="41" y="25" width="4" height="8" rx="2" fill="#EFC136"/>
<rect x="48" y="16" width="4" height="17" rx="2" fill="#E1632C"/>
<rect x="55" y="17" width="4" height="16" rx="2" fill="#8D2CEA"/>
<rect x="62" y="21" width="4" height="12" rx="2" fill="#8B2AEA"/>
<path d="M20.5284 43V38.6364H22.0028C22.3438 38.6364 22.6236 38.6946 22.8423 38.8111C23.0611 38.9261 23.223 39.0845 23.3281 39.2862C23.4332 39.4879 23.4858 39.7173 23.4858 39.9744C23.4858 40.2315 23.4332 40.4595 23.3281 40.6584C23.223 40.8572 23.0618 41.0135 22.8445 41.1271C22.6271 41.2393 22.3494 41.2955 22.0114 41.2955H20.8182V40.8182H21.9943C22.2273 40.8182 22.4148 40.7841 22.5568 40.7159C22.7003 40.6477 22.804 40.5511 22.8679 40.4261C22.9332 40.2997 22.9659 40.1491 22.9659 39.9744C22.9659 39.7997 22.9332 39.647 22.8679 39.5163C22.8026 39.3857 22.6982 39.2848 22.5547 39.2138C22.4112 39.1413 22.2216 39.1051 21.9858 39.1051H21.0568V43H20.5284ZM22.5824 41.0398L23.6562 43H23.0426L21.9858 41.0398H22.5824ZM25.6351 43.0682C25.3198 43.0682 25.0478 42.9986 24.8191 42.8594C24.5918 42.7188 24.4164 42.5227 24.2928 42.2713C24.1706 42.0185 24.1096 41.7244 24.1096 41.3892C24.1096 41.054 24.1706 40.7585 24.2928 40.5028C24.4164 40.2457 24.5882 40.0455 24.8084 39.902C25.03 39.7571 25.2885 39.6847 25.584 39.6847C25.7544 39.6847 25.9228 39.7131 26.089 39.7699C26.2551 39.8267 26.4064 39.919 26.5428 40.0469C26.6792 40.1733 26.7878 40.3409 26.8688 40.5497C26.9498 40.7585 26.9902 41.0156 26.9902 41.321V41.5341H24.4675V41.0994H26.4789C26.4789 40.9148 26.4419 40.75 26.3681 40.6051C26.2956 40.4602 26.1919 40.3459 26.057 40.2621C25.9235 40.1783 25.7658 40.1364 25.584 40.1364C25.3837 40.1364 25.2104 40.1861 25.0641 40.2855C24.9192 40.3835 24.8077 40.5114 24.7296 40.669C24.6515 40.8267 24.6124 40.9957 24.6124 41.1761V41.4659C24.6124 41.7131 24.655 41.9226 24.7402 42.0945C24.8269 42.2649 24.9469 42.3949 25.1003 42.4844C25.2537 42.5724 25.432 42.6165 25.6351 42.6165C25.7672 42.6165 25.8865 42.598 25.9931 42.5611C26.101 42.5227 26.1941 42.4659 26.2722 42.3906C26.3503 42.3139 26.4107 42.2187 26.4533 42.1051L26.9391 42.2415C26.888 42.4062 26.802 42.5511 26.6813 42.6761C26.5605 42.7997 26.4114 42.8963 26.2338 42.9659C26.0563 43.0341 25.8567 43.0682 25.6351 43.0682ZM29.0762 44.2955C28.8333 44.2955 28.6245 44.2642 28.4498 44.2017C28.275 44.1406 28.1294 44.0597 28.013 43.9588C27.8979 43.8594 27.8063 43.7528 27.7381 43.6392L28.1387 43.358C28.1841 43.4176 28.2417 43.4858 28.3113 43.5625C28.3809 43.6406 28.476 43.7081 28.5968 43.7649C28.7189 43.8232 28.8787 43.8523 29.0762 43.8523C29.3404 43.8523 29.5584 43.7884 29.7303 43.6605C29.9022 43.5327 29.9881 43.3324 29.9881 43.0597V42.3949H29.9455C29.9086 42.4545 29.856 42.5284 29.7878 42.6165C29.7211 42.7031 29.6245 42.7805 29.498 42.8487C29.373 42.9155 29.204 42.9489 28.9909 42.9489C28.7267 42.9489 28.4895 42.8864 28.2793 42.7614C28.0705 42.6364 27.905 42.4545 27.7828 42.2159C27.6621 41.9773 27.6017 41.6875 27.6017 41.3466C27.6017 41.0114 27.6607 40.7195 27.7786 40.4709C27.8965 40.2209 28.0605 40.0277 28.2708 39.8913C28.481 39.7536 28.7239 39.6847 28.9995 39.6847C29.2125 39.6847 29.3816 39.7202 29.5066 39.7912C29.633 39.8608 29.7296 39.9403 29.7963 40.0298C29.8645 40.1179 29.9171 40.1903 29.954 40.2472H30.0051V39.7273H30.4909V43.0938C30.4909 43.375 30.427 43.6037 30.2992 43.7798C30.1728 43.9574 30.0023 44.0874 29.7878 44.1697C29.5748 44.2536 29.3375 44.2955 29.0762 44.2955ZM29.0591 42.4972C29.2608 42.4972 29.4313 42.451 29.5705 42.3587C29.7097 42.2663 29.8155 42.1335 29.888 41.9602C29.9604 41.7869 29.9966 41.5795 29.9966 41.3381C29.9966 41.1023 29.9611 40.8942 29.8901 40.7138C29.8191 40.5334 29.714 40.392 29.5748 40.2898C29.4355 40.1875 29.2637 40.1364 29.0591 40.1364C28.8461 40.1364 28.6685 40.1903 28.5265 40.2983C28.3858 40.4062 28.28 40.5511 28.209 40.733C28.1394 40.9148 28.1046 41.1165 28.1046 41.3381C28.1046 41.5653 28.1401 41.7663 28.2111 41.9411C28.2836 42.1143 28.3901 42.2507 28.5307 42.3501C28.6728 42.4482 28.8489 42.4972 29.0591 42.4972ZM33.4739 41.6619V39.7273H33.9767V43H33.4739V42.446H33.4398C33.3631 42.6122 33.2438 42.7536 33.0819 42.87C32.9199 42.9851 32.7154 43.0426 32.4682 43.0426C32.2637 43.0426 32.0819 42.9979 31.9228 42.9084C31.7637 42.8175 31.6387 42.6811 31.5478 42.4993C31.4569 42.3161 31.4114 42.0852 31.4114 41.8068V39.7273H31.9142V41.7727C31.9142 42.0114 31.981 42.2017 32.1145 42.3438C32.2495 42.4858 32.4213 42.5568 32.6301 42.5568C32.7551 42.5568 32.8823 42.5249 33.0115 42.4609C33.1422 42.397 33.2516 42.299 33.3397 42.1669C33.4292 42.0348 33.4739 41.8665 33.4739 41.6619ZM35.4006 38.6364V43H34.8977V38.6364H35.4006ZM37.2846 43.0767C37.0772 43.0767 36.889 43.0376 36.72 42.9595C36.551 42.88 36.4167 42.7656 36.3173 42.6165C36.2179 42.4659 36.1681 42.2841 36.1681 42.071C36.1681 41.8835 36.2051 41.7315 36.2789 41.6151C36.3528 41.4972 36.4515 41.4048 36.5751 41.3381C36.6987 41.2713 36.835 41.2216 36.9842 41.1889C37.1348 41.1548 37.286 41.1278 37.438 41.108C37.6369 41.0824 37.7981 41.0632 37.9217 41.0504C38.0467 41.0362 38.1376 41.0128 38.1944 40.9801C38.2527 40.9474 38.2818 40.8906 38.2818 40.8097V40.7926C38.2818 40.5824 38.2243 40.419 38.1092 40.3026C37.9956 40.1861 37.823 40.1278 37.5914 40.1278C37.3514 40.1278 37.1632 40.1804 37.0268 40.2855C36.8904 40.3906 36.7946 40.5028 36.7392 40.6222L36.2619 40.4517C36.3471 40.2528 36.4608 40.098 36.6028 39.9872C36.7463 39.875 36.9025 39.7969 37.0716 39.7528C37.242 39.7074 37.4096 39.6847 37.5744 39.6847C37.6795 39.6847 37.8002 39.6974 37.9366 39.723C38.0744 39.7472 38.2072 39.7976 38.335 39.8743C38.4643 39.951 38.5716 40.0668 38.6568 40.2216C38.742 40.3764 38.7846 40.5838 38.7846 40.8438V43H38.2818V42.5568H38.2562C38.2221 42.6278 38.1653 42.7038 38.0858 42.7848C38.0062 42.8658 37.9004 42.9347 37.7683 42.9915C37.6362 43.0483 37.475 43.0767 37.2846 43.0767ZM37.3613 42.625C37.5602 42.625 37.7278 42.5859 37.8642 42.5078C38.002 42.4297 38.1056 42.3288 38.1752 42.2053C38.2463 42.0817 38.2818 41.9517 38.2818 41.8153V41.3551C38.2605 41.3807 38.2136 41.4041 38.1412 41.4254C38.0701 41.4453 37.9877 41.4631 37.894 41.4787C37.8017 41.4929 37.7115 41.5057 37.6234 41.517C37.5368 41.527 37.4664 41.5355 37.4125 41.5426C37.2818 41.5597 37.1596 41.5874 37.046 41.6257C36.9338 41.6626 36.8429 41.7187 36.7733 41.794C36.7051 41.8679 36.671 41.9687 36.671 42.0966C36.671 42.2713 36.7356 42.4034 36.8649 42.4929C36.9956 42.581 37.161 42.625 37.3613 42.625ZM39.7024 43V39.7273H40.1882V40.2216H40.2223C40.282 40.0597 40.3899 39.9283 40.5462 39.8274C40.7024 39.7266 40.8786 39.6761 41.0746 39.6761C41.1115 39.6761 41.1577 39.6768 41.2131 39.6783C41.2685 39.6797 41.3104 39.6818 41.3388 39.6847V40.196C41.3217 40.1918 41.2827 40.1854 41.2216 40.1768C41.1619 40.1669 41.0987 40.1619 41.032 40.1619C40.8729 40.1619 40.7308 40.1953 40.6058 40.2621C40.4822 40.3274 40.3842 40.4183 40.3118 40.5348C40.2408 40.6499 40.2053 40.7812 40.2053 40.929V43H39.7024ZM45.6848 41.6619V39.7273H46.1877V43H45.6848V42.446H45.6507C45.574 42.6122 45.4547 42.7536 45.2928 42.87C45.1309 42.9851 44.9263 43.0426 44.6792 43.0426C44.4746 43.0426 44.2928 42.9979 44.1337 42.9084C43.9746 42.8175 43.8496 42.6811 43.7587 42.4993C43.6678 42.3161 43.6223 42.0852 43.6223 41.8068V39.7273H44.1252V41.7727C44.1252 42.0114 44.1919 42.2017 44.3255 42.3438C44.4604 42.4858 44.6323 42.5568 44.8411 42.5568C44.9661 42.5568 45.0932 42.5249 45.2225 42.4609C45.3532 42.397 45.4625 42.299 45.5506 42.1669C45.6401 42.0348 45.6848 41.8665 45.6848 41.6619ZM49.4268 40.4602L48.9751 40.5881C48.9467 40.5128 48.9048 40.4396 48.8494 40.3686C48.7955 40.2962 48.7216 40.2365 48.6278 40.1896C48.5341 40.1428 48.4141 40.1193 48.2678 40.1193C48.0675 40.1193 47.9006 40.1655 47.767 40.2578C47.6349 40.3487 47.5689 40.4645 47.5689 40.6051C47.5689 40.7301 47.6143 40.8288 47.7053 40.9013C47.7962 40.9737 47.9382 41.0341 48.1314 41.0824L48.6172 41.2017C48.9098 41.2727 49.1278 41.3814 49.2713 41.5277C49.4148 41.6726 49.4865 41.8594 49.4865 42.0881C49.4865 42.2756 49.4325 42.4432 49.3246 42.5909C49.218 42.7386 49.0689 42.8551 48.8771 42.9403C48.6854 43.0256 48.4624 43.0682 48.2081 43.0682C47.8743 43.0682 47.598 42.9957 47.3793 42.8509C47.1605 42.706 47.022 42.4943 46.9638 42.2159L47.4411 42.0966C47.4865 42.2727 47.5724 42.4048 47.6989 42.4929C47.8267 42.581 47.9936 42.625 48.1996 42.625C48.4339 42.625 48.62 42.5753 48.7578 42.4759C48.897 42.375 48.9666 42.2543 48.9666 42.1136C48.9666 42 48.9268 41.9048 48.8473 41.8281C48.7678 41.75 48.6456 41.6918 48.4808 41.6534L47.9354 41.5256C47.6357 41.4545 47.4155 41.3445 47.2749 41.1953C47.1357 41.0447 47.0661 40.8565 47.0661 40.6307C47.0661 40.446 47.1179 40.2827 47.2216 40.1406C47.3267 39.9986 47.4695 39.8871 47.6499 39.8061C47.8317 39.7251 48.0376 39.6847 48.2678 39.6847C48.5916 39.6847 48.8459 39.7557 49.0305 39.8977C49.2166 40.0398 49.3487 40.2273 49.4268 40.4602ZM51.6156 43.0682C51.3002 43.0682 51.0282 42.9986 50.7995 42.8594C50.5723 42.7188 50.3968 42.5227 50.2733 42.2713C50.1511 42.0185 50.09 41.7244 50.09 41.3892C50.09 41.054 50.1511 40.7585 50.2733 40.5028C50.3968 40.2457 50.5687 40.0455 50.7889 39.902C51.0105 39.7571 51.269 39.6847 51.5645 39.6847C51.7349 39.6847 51.9032 39.7131 52.0694 39.7699C52.2356 39.8267 52.3869 39.919 52.5233 40.0469C52.6596 40.1733 52.7683 40.3409 52.8493 40.5497C52.9302 40.7585 52.9707 41.0156 52.9707 41.321V41.5341H50.448V41.0994H52.4593C52.4593 40.9148 52.4224 40.75 52.3485 40.6051C52.2761 40.4602 52.1724 40.3459 52.0375 40.2621C51.9039 40.1783 51.7463 40.1364 51.5645 40.1364C51.3642 40.1364 51.1909 40.1861 51.0446 40.2855C50.8997 40.3835 50.7882 40.5114 50.71 40.669C50.6319 40.8267 50.5929 40.9957 50.5929 41.1761V41.4659C50.5929 41.7131 50.6355 41.9226 50.7207 42.0945C50.8074 42.2649 50.9274 42.3949 51.0808 42.4844C51.2342 42.5724 51.4125 42.6165 51.6156 42.6165C51.7477 42.6165 51.867 42.598 51.9735 42.5611C52.0815 42.5227 52.1745 42.4659 52.2527 42.3906C52.3308 42.3139 52.3912 42.2187 52.4338 42.1051L52.9196 42.2415C52.8684 42.4062 52.7825 42.5511 52.6618 42.6761C52.541 42.7997 52.3919 42.8963 52.2143 42.9659C52.0368 43.0341 51.8372 43.0682 51.6156 43.0682ZM53.7356 43V39.7273H54.2214V40.2216H54.2555C54.3152 40.0597 54.4231 39.9283 54.5794 39.8274C54.7356 39.7266 54.9118 39.6761 55.1078 39.6761C55.1447 39.6761 55.1909 39.6768 55.2463 39.6783C55.3017 39.6797 55.3436 39.6818 55.372 39.6847V40.196C55.3549 40.1918 55.3159 40.1854 55.2548 40.1768C55.1951 40.1669 55.1319 40.1619 55.0652 40.1619C54.9061 40.1619 54.764 40.1953 54.639 40.2621C54.5154 40.3274 54.4174 40.4183 54.345 40.5348C54.274 40.6499 54.2385 40.7812 54.2385 40.929V43H53.7356Z" fill="#646464"/>
<path d="M20.7074 60V58.6705L23.8139 55.794C24.0781 55.5384 24.2997 55.3082 24.4787 55.1037C24.6605 54.8991 24.7983 54.6989 24.892 54.5028C24.9858 54.304 25.0327 54.0895 25.0327 53.8594C25.0327 53.6037 24.9744 53.3835 24.858 53.1989C24.7415 53.0114 24.5824 52.8679 24.3807 52.7685C24.179 52.6662 23.9503 52.6151 23.6946 52.6151C23.4276 52.6151 23.1946 52.669 22.9957 52.777C22.7969 52.8849 22.6435 53.0398 22.5355 53.2415C22.4276 53.4432 22.3736 53.6832 22.3736 53.9616H20.6222C20.6222 53.3906 20.7514 52.8949 21.0099 52.4744C21.2685 52.054 21.6307 51.7287 22.0966 51.4986C22.5625 51.2685 23.0994 51.1534 23.7074 51.1534C24.3324 51.1534 24.8764 51.2642 25.3395 51.4858C25.8054 51.7045 26.1676 52.0085 26.4261 52.3977C26.6847 52.7869 26.8139 53.233 26.8139 53.7358C26.8139 54.0653 26.7486 54.3906 26.6179 54.7116C26.4901 55.0327 26.2614 55.3892 25.9318 55.7812C25.6023 56.1705 25.1378 56.6378 24.5384 57.1832L23.2642 58.4318V58.4915H26.929V60H20.7074ZM27.9464 58.4659V57.0128L31.5898 51.2727H32.8427V53.2841H32.1012L29.8043 56.919V56.9872H34.9819V58.4659H27.9464ZM32.1353 60V58.0227L32.1694 57.3793V51.2727H33.8995V60H32.1353ZM36.2283 60V53.4545H37.9585V54.6094H38.0352C38.1715 54.2259 38.3988 53.9233 38.717 53.7017C39.0352 53.4801 39.4158 53.3693 39.859 53.3693C40.3079 53.3693 40.69 53.4815 41.0053 53.706C41.3207 53.9276 41.5309 54.2287 41.636 54.6094H41.7042C41.8377 54.2344 42.0792 53.9347 42.4286 53.7102C42.7809 53.483 43.1971 53.3693 43.6772 53.3693C44.288 53.3693 44.7837 53.5639 45.1644 53.9531C45.5479 54.3395 45.7397 54.8878 45.7397 55.598V60H43.9286V55.956C43.9286 55.5923 43.832 55.3196 43.6388 55.1378C43.4457 54.956 43.2042 54.8651 42.9144 54.8651C42.5849 54.8651 42.3278 54.9702 42.1431 55.1804C41.9585 55.3878 41.8661 55.6619 41.8661 56.0028V60H40.1062V55.9176C40.1062 55.5966 40.0138 55.3409 39.8292 55.1506C39.6474 54.9602 39.4073 54.8651 39.109 54.8651C38.9073 54.8651 38.7255 54.9162 38.5636 55.0185C38.4045 55.1179 38.2781 55.2585 38.1843 55.4403C38.0906 55.6193 38.0437 55.8295 38.0437 56.071V60H36.2283Z" fill="#3E3E3E"/>
</g>
<defs>
<filter id="filter0_d_84_856" x="0" y="0" width="86" height="88" filterUnits="userSpaceOnUse" color-interpolation-filters="sRGB">
<feFlood flood-opacity="0" result="BackgroundImageFix"/>
<feColorMatrix in="SourceAlpha" type="matrix" values="0 0 0 0 0 0 0 0 0 0 0 0 0 0 0 0 0 0 127 0" result="hardAlpha"/>
<feOffset dy="4"/>
<feGaussianBlur stdDeviation="6"/>
<feComposite in2="hardAlpha" operator="out"/>
<feColorMatrix type="matrix" values="0 0 0 0 0 0 0 0 0 0 0 0 0 0 0 0 0 0 0.16 0"/>
<feBlend mode="normal" in2="BackgroundImageFix" result="effect1_dropShadow_84_856"/>
<feBlend mode="normal" in="SourceGraphic" in2="effect1_dropShadow_84_856" result="shape"/>
</filter>
</defs>
</svg>
