<svg width="138" height="129" viewBox="0 0 138 129" fill="none" xmlns="http://www.w3.org/2000/svg">
<g filter="url(#filter0_d_84_974)">
<rect x="4" width="130" height="121" rx="4" fill="white" shape-rendering="crispEdges"/>
<g filter="url(#filter1_d_84_974)">
<rect x="20" y="16" width="98" height="14" rx="4" fill="white"/>
<rect x="20.25" y="16.25" width="97.5" height="13.5" rx="3.75" stroke="#5D5DFF" stroke-width="0.5"/>
<rect width="54" height="14" transform="translate(20 16)" fill="#5D5DFF"/>
<path d="M33.986 25.09C33.676 25.09 33.396 25.037 33.146 24.931C32.898 24.823 32.693 24.67 32.531 24.472C32.371 24.272 32.267 24.035 32.219 23.761L32.873 23.662C32.939 23.926 33.077 24.132 33.287 24.28C33.497 24.426 33.742 24.499 34.022 24.499C34.196 24.499 34.356 24.472 34.502 24.418C34.648 24.362 34.765 24.283 34.853 24.181C34.943 24.077 34.988 23.953 34.988 23.809C34.988 23.731 34.974 23.662 34.946 23.602C34.92 23.542 34.883 23.49 34.835 23.446C34.789 23.4 34.732 23.361 34.664 23.329C34.598 23.295 34.525 23.266 34.445 23.242L33.338 22.915C33.23 22.883 33.12 22.842 33.008 22.792C32.896 22.74 32.793 22.673 32.699 22.591C32.607 22.507 32.532 22.404 32.474 22.282C32.416 22.158 32.387 22.008 32.387 21.832C32.387 21.566 32.455 21.341 32.591 21.157C32.729 20.971 32.915 20.831 33.149 20.737C33.383 20.641 33.645 20.593 33.935 20.593C34.227 20.597 34.488 20.649 34.718 20.749C34.95 20.849 35.142 20.993 35.294 21.181C35.448 21.367 35.554 21.593 35.612 21.859L34.94 21.973C34.91 21.811 34.846 21.672 34.748 21.556C34.65 21.438 34.53 21.348 34.388 21.286C34.246 21.222 34.092 21.189 33.926 21.187C33.766 21.183 33.619 21.207 33.485 21.259C33.353 21.311 33.247 21.384 33.167 21.478C33.089 21.572 33.05 21.68 33.05 21.802C33.05 21.922 33.085 22.019 33.155 22.093C33.225 22.167 33.311 22.226 33.413 22.27C33.517 22.312 33.62 22.347 33.722 22.375L34.52 22.6C34.62 22.628 34.733 22.666 34.859 22.714C34.987 22.76 35.11 22.825 35.228 22.909C35.348 22.993 35.447 23.105 35.525 23.245C35.603 23.383 35.642 23.557 35.642 23.767C35.642 23.985 35.598 24.177 35.51 24.343C35.422 24.507 35.301 24.645 35.147 24.757C34.995 24.867 34.819 24.95 34.619 25.006C34.419 25.062 34.208 25.09 33.986 25.09ZM38.1353 25C37.9313 25.04 37.7313 25.057 37.5353 25.051C37.3393 25.045 37.1643 25.007 37.0103 24.937C36.8563 24.867 36.7403 24.757 36.6623 24.607C36.5923 24.473 36.5543 24.337 36.5483 24.199C36.5443 24.059 36.5423 23.901 36.5423 23.725V20.86H37.1723V23.695C37.1723 23.825 37.1733 23.938 37.1753 24.034C37.1793 24.13 37.2003 24.211 37.2383 24.277C37.3103 24.401 37.4243 24.472 37.5803 24.49C37.7383 24.506 37.9233 24.499 38.1353 24.469V25ZM35.9213 22.264V21.76H38.1353V22.264H35.9213ZM39.7334 25.09C39.4934 25.09 39.2924 25.046 39.1304 24.958C38.9684 24.868 38.8454 24.75 38.7614 24.604C38.6794 24.456 38.6384 24.294 38.6384 24.118C38.6384 23.954 38.6674 23.81 38.7254 23.686C38.7834 23.562 38.8694 23.457 38.9834 23.371C39.0974 23.283 39.2374 23.212 39.4034 23.158C39.5474 23.116 39.7104 23.079 39.8924 23.047C40.0744 23.015 40.2654 22.985 40.4654 22.957C40.6674 22.929 40.8674 22.901 41.0654 22.873L40.8374 22.999C40.8414 22.745 40.7874 22.557 40.6754 22.435C40.5654 22.311 40.3754 22.249 40.1054 22.249C39.9354 22.249 39.7794 22.289 39.6374 22.369C39.4954 22.447 39.3964 22.577 39.3404 22.759L38.7554 22.579C38.8354 22.301 38.9874 22.08 39.2114 21.916C39.4374 21.752 39.7374 21.67 40.1114 21.67C40.4014 21.67 40.6534 21.72 40.8674 21.82C41.0834 21.918 41.2414 22.074 41.3414 22.288C41.3934 22.394 41.4254 22.506 41.4374 22.624C41.4494 22.742 41.4554 22.869 41.4554 23.005V25H40.9004V24.259L41.0084 24.355C40.8744 24.603 40.7034 24.788 40.4954 24.91C40.2894 25.03 40.0354 25.09 39.7334 25.09ZM39.8444 24.577C40.0224 24.577 40.1754 24.546 40.3034 24.484C40.4314 24.42 40.5344 24.339 40.6124 24.241C40.6904 24.143 40.7414 24.041 40.7654 23.935C40.7994 23.839 40.8184 23.731 40.8224 23.611C40.8284 23.491 40.8314 23.395 40.8314 23.323L41.0354 23.398C40.8374 23.428 40.6574 23.455 40.4954 23.479C40.3334 23.503 40.1864 23.527 40.0544 23.551C39.9244 23.573 39.8084 23.6 39.7064 23.632C39.6204 23.662 39.5434 23.698 39.4754 23.74C39.4094 23.782 39.3564 23.833 39.3164 23.893C39.2784 23.953 39.2594 24.026 39.2594 24.112C39.2594 24.196 39.2804 24.274 39.3224 24.346C39.3644 24.416 39.4284 24.472 39.5144 24.514C39.6004 24.556 39.7104 24.577 39.8444 24.577ZM44.0885 25C43.8845 25.04 43.6845 25.057 43.4885 25.051C43.2925 25.045 43.1175 25.007 42.9635 24.937C42.8095 24.867 42.6935 24.757 42.6155 24.607C42.5455 24.473 42.5075 24.337 42.5015 24.199C42.4975 24.059 42.4955 23.901 42.4955 23.725V20.86H43.1255V23.695C43.1255 23.825 43.1265 23.938 43.1285 24.034C43.1325 24.13 43.1535 24.211 43.1915 24.277C43.2635 24.401 43.3775 24.472 43.5335 24.49C43.6915 24.506 43.8765 24.499 44.0885 24.469V25ZM41.8745 22.264V21.76H44.0885V22.264H41.8745ZM46.0106 25.087C45.6166 25.087 45.2956 25 45.0476 24.826C44.7996 24.652 44.6476 24.407 44.5916 24.091L45.2336 23.992C45.2736 24.16 45.3656 24.293 45.5096 24.391C45.6556 24.487 45.8366 24.535 46.0526 24.535C46.2486 24.535 46.4016 24.495 46.5116 24.415C46.6236 24.335 46.6796 24.225 46.6796 24.085C46.6796 24.003 46.6596 23.937 46.6196 23.887C46.5816 23.835 46.5006 23.786 46.3766 23.74C46.2526 23.694 46.0636 23.637 45.8096 23.569C45.5316 23.497 45.3106 23.42 45.1466 23.338C44.9846 23.254 44.8686 23.157 44.7986 23.047C44.7306 22.935 44.6966 22.8 44.6966 22.642C44.6966 22.446 44.7486 22.275 44.8526 22.129C44.9566 21.983 45.1026 21.87 45.2906 21.79C45.4806 21.71 45.7026 21.67 45.9566 21.67C46.2046 21.67 46.4256 21.709 46.6196 21.787C46.8136 21.865 46.9706 21.976 47.0906 22.12C47.2106 22.262 47.2826 22.429 47.3066 22.621L46.6646 22.738C46.6426 22.582 46.5696 22.459 46.4456 22.369C46.3216 22.279 46.1606 22.23 45.9626 22.222C45.7726 22.214 45.6186 22.246 45.5006 22.318C45.3826 22.388 45.3236 22.485 45.3236 22.609C45.3236 22.681 45.3456 22.742 45.3896 22.792C45.4356 22.842 45.5236 22.89 45.6536 22.936C45.7836 22.982 45.9756 23.037 46.2296 23.101C46.5016 23.171 46.7176 23.249 46.8776 23.335C47.0376 23.419 47.1516 23.52 47.2196 23.638C47.2896 23.754 47.3246 23.895 47.3246 24.061C47.3246 24.381 47.2076 24.632 46.9736 24.814C46.7416 24.996 46.4206 25.087 46.0106 25.087ZM50.5755 25.09C50.2435 25.09 49.9615 25.016 49.7295 24.868C49.4975 24.72 49.3195 24.517 49.1955 24.259C49.0735 24.001 49.0115 23.708 49.0095 23.38C49.0115 23.046 49.0755 22.751 49.2015 22.495C49.3275 22.237 49.5075 22.035 49.7415 21.889C49.9755 21.743 50.2565 21.67 50.5845 21.67C50.9385 21.67 51.2405 21.758 51.4905 21.934C51.7425 22.11 51.9085 22.351 51.9885 22.657L51.3645 22.837C51.3025 22.655 51.2005 22.514 51.0585 22.414C50.9185 22.312 50.7575 22.261 50.5755 22.261C50.3695 22.261 50.2005 22.31 50.0685 22.408C49.9365 22.504 49.8385 22.636 49.7745 22.804C49.7105 22.972 49.6775 23.164 49.6755 23.38C49.6775 23.714 49.7535 23.984 49.9035 24.19C50.0555 24.396 50.2795 24.499 50.5755 24.499C50.7775 24.499 50.9405 24.453 51.0645 24.361C51.1905 24.267 51.2865 24.133 51.3525 23.959L51.9885 24.109C51.8825 24.425 51.7075 24.668 51.4635 24.838C51.2195 25.006 50.9235 25.09 50.5755 25.09ZM54.8737 25V23.407C54.8737 23.281 54.8627 23.152 54.8407 23.02C54.8207 22.886 54.7807 22.762 54.7207 22.648C54.6627 22.534 54.5797 22.442 54.4717 22.372C54.3657 22.302 54.2267 22.267 54.0547 22.267C53.9427 22.267 53.8367 22.286 53.7367 22.324C53.6367 22.36 53.5487 22.419 53.4727 22.501C53.3987 22.583 53.3397 22.691 53.2957 22.825C53.2537 22.959 53.2327 23.122 53.2327 23.314L52.8427 23.167C52.8427 22.873 52.8977 22.614 53.0077 22.39C53.1177 22.164 53.2757 21.988 53.4817 21.862C53.6877 21.736 53.9367 21.673 54.2287 21.673C54.4527 21.673 54.6407 21.709 54.7927 21.781C54.9447 21.853 55.0677 21.948 55.1617 22.066C55.2577 22.182 55.3307 22.309 55.3807 22.447C55.4307 22.585 55.4647 22.72 55.4827 22.852C55.5007 22.984 55.5097 23.1 55.5097 23.2V25H54.8737ZM52.5967 25V20.68H53.1577V23.011H53.2327V25H52.5967ZM57.2061 25.09C56.9661 25.09 56.7651 25.046 56.6031 24.958C56.4411 24.868 56.3181 24.75 56.2341 24.604C56.1521 24.456 56.1111 24.294 56.1111 24.118C56.1111 23.954 56.1401 23.81 56.1981 23.686C56.2561 23.562 56.3421 23.457 56.4561 23.371C56.5701 23.283 56.7101 23.212 56.8761 23.158C57.0201 23.116 57.1831 23.079 57.3651 23.047C57.5471 23.015 57.7381 22.985 57.9381 22.957C58.1401 22.929 58.3401 22.901 58.5381 22.873L58.3101 22.999C58.3141 22.745 58.2601 22.557 58.1481 22.435C58.0381 22.311 57.8481 22.249 57.5781 22.249C57.4081 22.249 57.2521 22.289 57.1101 22.369C56.9681 22.447 56.8691 22.577 56.8131 22.759L56.2281 22.579C56.3081 22.301 56.4601 22.08 56.6841 21.916C56.9101 21.752 57.2101 21.67 57.5841 21.67C57.8741 21.67 58.1261 21.72 58.3401 21.82C58.5561 21.918 58.7141 22.074 58.8141 22.288C58.8661 22.394 58.8981 22.506 58.9101 22.624C58.9221 22.742 58.9281 22.869 58.9281 23.005V25H58.3731V24.259L58.4811 24.355C58.3471 24.603 58.1761 24.788 57.9681 24.91C57.7621 25.03 57.5081 25.09 57.2061 25.09ZM57.3171 24.577C57.4951 24.577 57.6481 24.546 57.7761 24.484C57.9041 24.42 58.0071 24.339 58.0851 24.241C58.1631 24.143 58.2141 24.041 58.2381 23.935C58.2721 23.839 58.2911 23.731 58.2951 23.611C58.3011 23.491 58.3041 23.395 58.3041 23.323L58.5081 23.398C58.3101 23.428 58.1301 23.455 57.9681 23.479C57.8061 23.503 57.6591 23.527 57.5271 23.551C57.3971 23.573 57.2811 23.6 57.1791 23.632C57.0931 23.662 57.0161 23.698 56.9481 23.74C56.8821 23.782 56.8291 23.833 56.7891 23.893C56.7511 23.953 56.7321 24.026 56.7321 24.112C56.7321 24.196 56.7531 24.274 56.7951 24.346C56.8371 24.416 56.9011 24.472 56.9871 24.514C57.0731 24.556 57.1831 24.577 57.3171 24.577ZM59.7071 25V21.76H60.2651V22.546L60.1871 22.444C60.2271 22.34 60.2791 22.245 60.3431 22.159C60.4071 22.071 60.4811 21.999 60.5651 21.943C60.6471 21.883 60.7381 21.837 60.8381 21.805C60.9401 21.771 61.0441 21.751 61.1501 21.745C61.2561 21.737 61.3581 21.742 61.4561 21.76V22.348C61.3501 22.32 61.2321 22.312 61.1021 22.324C60.9741 22.336 60.8561 22.377 60.7481 22.447C60.6461 22.513 60.5651 22.593 60.5051 22.687C60.4471 22.781 60.4051 22.886 60.3791 23.002C60.3531 23.116 60.3401 23.237 60.3401 23.365V25H59.7071Z" fill="white"/>
<path d="M88.8 25.058C88.5987 25.058 88.428 25.0033 88.288 24.894C88.148 24.7847 88.052 24.638 88 24.454L88.354 24.37C88.3753 24.4673 88.4267 24.55 88.508 24.618C88.5907 24.686 88.6853 24.72 88.792 24.72C88.8613 24.72 88.932 24.7033 89.004 24.67C89.076 24.6353 89.1313 24.5793 89.17 24.502C89.1967 24.4487 89.212 24.39 89.216 24.326C89.22 24.2607 89.222 24.184 89.222 24.096V22.12H89.582V24.096C89.582 24.1787 89.5813 24.2527 89.58 24.318C89.58 24.3833 89.5733 24.446 89.56 24.506C89.548 24.5647 89.524 24.6247 89.488 24.686C89.416 24.8127 89.3193 24.9067 89.198 24.968C89.078 25.028 88.9453 25.058 88.8 25.058ZM90.7963 25.06C90.635 25.06 90.4997 25.0307 90.3903 24.972C90.2823 24.912 90.2003 24.8333 90.1443 24.736C90.0897 24.6387 90.0623 24.532 90.0623 24.416C90.0623 24.3027 90.0837 24.2047 90.1263 24.122C90.1703 24.038 90.2317 23.9687 90.3103 23.914C90.389 23.858 90.483 23.814 90.5923 23.782C90.695 23.754 90.8097 23.73 90.9363 23.71C91.0643 23.6887 91.1937 23.6693 91.3243 23.652C91.455 23.6347 91.577 23.618 91.6903 23.602L91.5623 23.676C91.5663 23.484 91.5277 23.342 91.4463 23.25C91.3663 23.158 91.2277 23.112 91.0303 23.112C90.8997 23.112 90.785 23.142 90.6863 23.202C90.589 23.2607 90.5203 23.3567 90.4803 23.49L90.1423 23.388C90.1943 23.1987 90.295 23.05 90.4443 22.942C90.5937 22.834 90.7903 22.78 91.0343 22.78C91.2303 22.78 91.3983 22.8153 91.5383 22.886C91.6797 22.9553 91.781 23.0607 91.8423 23.202C91.873 23.2687 91.8923 23.3413 91.9003 23.42C91.9083 23.4973 91.9123 23.5787 91.9123 23.664V25H91.5963V24.482L91.6703 24.53C91.589 24.7047 91.475 24.8367 91.3283 24.926C91.183 25.0153 91.0057 25.06 90.7963 25.06ZM90.8503 24.762C90.9783 24.762 91.089 24.7393 91.1823 24.694C91.277 24.6473 91.353 24.5867 91.4103 24.512C91.4677 24.436 91.505 24.3533 91.5223 24.264C91.5423 24.1973 91.553 24.1233 91.5543 24.042C91.557 23.9593 91.5583 23.896 91.5583 23.852L91.6823 23.906C91.5663 23.922 91.4523 23.9373 91.3403 23.952C91.2283 23.9667 91.1223 23.9827 91.0223 24C90.9223 24.016 90.8323 24.0353 90.7523 24.058C90.6937 24.0767 90.6383 24.1007 90.5863 24.13C90.5357 24.1593 90.4943 24.1973 90.4623 24.244C90.4317 24.2893 90.4163 24.346 90.4163 24.414C90.4163 24.4727 90.431 24.5287 90.4603 24.582C90.491 24.6353 90.5377 24.6787 90.6003 24.712C90.6643 24.7453 90.7477 24.762 90.8503 24.762ZM93.9703 25V23.918C93.9703 23.8153 93.961 23.7167 93.9423 23.622C93.925 23.5273 93.8937 23.4427 93.8483 23.368C93.8043 23.292 93.7443 23.232 93.6683 23.188C93.5937 23.144 93.499 23.122 93.3843 23.122C93.295 23.122 93.2137 23.1373 93.1403 23.168C93.0683 23.1973 93.0063 23.2427 92.9543 23.304C92.9023 23.3653 92.8617 23.4427 92.8323 23.536C92.8043 23.628 92.7903 23.7367 92.7903 23.862L92.5563 23.79C92.5563 23.5807 92.5937 23.4013 92.6683 23.252C92.7443 23.1013 92.8503 22.986 92.9863 22.906C93.1237 22.8247 93.285 22.784 93.4703 22.784C93.6103 22.784 93.7297 22.806 93.8283 22.85C93.927 22.894 94.009 22.9527 94.0743 23.026C94.1397 23.098 94.191 23.1793 94.2283 23.27C94.2657 23.3593 94.2917 23.4507 94.3063 23.544C94.3223 23.636 94.3303 23.7233 94.3303 23.806V25H93.9703ZM92.4303 25V22.84H92.7503V23.418H92.7903V25H92.4303ZM95.6703 25.056C95.5316 25.056 95.4123 25.034 95.3123 24.99C95.2136 24.946 95.1316 24.8873 95.0663 24.814C95.001 24.7407 94.9496 24.6593 94.9123 24.57C94.875 24.4807 94.8483 24.3893 94.8323 24.296C94.8176 24.2027 94.8103 24.1153 94.8103 24.034V22.84H95.1703V23.922C95.1703 24.0233 95.1796 24.1213 95.1983 24.216C95.217 24.3107 95.2483 24.396 95.2923 24.472C95.3376 24.548 95.3976 24.608 95.4723 24.652C95.5483 24.696 95.643 24.718 95.7563 24.718C95.8456 24.718 95.927 24.7027 96.0003 24.672C96.0736 24.6413 96.1363 24.596 96.1883 24.536C96.2403 24.4747 96.2803 24.3973 96.3083 24.304C96.3363 24.2107 96.3503 24.102 96.3503 23.978L96.5843 24.05C96.5843 24.258 96.5463 24.4373 96.4703 24.588C96.3956 24.7387 96.2896 24.8547 96.1523 24.936C96.0163 25.016 95.8556 25.056 95.6703 25.056ZM96.3903 25V24.422H96.3503V22.84H96.7083V25H96.3903ZM97.8823 25.06C97.7209 25.06 97.5856 25.0307 97.4763 24.972C97.3683 24.912 97.2863 24.8333 97.2303 24.736C97.1756 24.6387 97.1483 24.532 97.1483 24.416C97.1483 24.3027 97.1696 24.2047 97.2123 24.122C97.2563 24.038 97.3176 23.9687 97.3963 23.914C97.4749 23.858 97.5689 23.814 97.6783 23.782C97.7809 23.754 97.8956 23.73 98.0223 23.71C98.1503 23.6887 98.2796 23.6693 98.4103 23.652C98.5409 23.6347 98.6629 23.618 98.7763 23.602L98.6483 23.676C98.6523 23.484 98.6136 23.342 98.5323 23.25C98.4523 23.158 98.3136 23.112 98.1163 23.112C97.9856 23.112 97.8709 23.142 97.7723 23.202C97.6749 23.2607 97.6063 23.3567 97.5663 23.49L97.2283 23.388C97.2803 23.1987 97.3809 23.05 97.5303 22.942C97.6796 22.834 97.8763 22.78 98.1203 22.78C98.3163 22.78 98.4843 22.8153 98.6243 22.886C98.7656 22.9553 98.8669 23.0607 98.9283 23.202C98.9589 23.2687 98.9783 23.3413 98.9863 23.42C98.9943 23.4973 98.9983 23.5787 98.9983 23.664V25H98.6823V24.482L98.7563 24.53C98.6749 24.7047 98.5609 24.8367 98.4143 24.926C98.2689 25.0153 98.0916 25.06 97.8823 25.06ZM97.9363 24.762C98.0643 24.762 98.1749 24.7393 98.2683 24.694C98.3629 24.6473 98.4389 24.5867 98.4963 24.512C98.5536 24.436 98.5909 24.3533 98.6083 24.264C98.6283 24.1973 98.6389 24.1233 98.6403 24.042C98.6429 23.9593 98.6443 23.896 98.6443 23.852L98.7683 23.906C98.6523 23.922 98.5383 23.9373 98.4263 23.952C98.3143 23.9667 98.2083 23.9827 98.1083 24C98.0083 24.016 97.9183 24.0353 97.8383 24.058C97.7796 24.0767 97.7243 24.1007 97.6723 24.13C97.6216 24.1593 97.5803 24.1973 97.5483 24.244C97.5176 24.2893 97.5023 24.346 97.5023 24.414C97.5023 24.4727 97.5169 24.5287 97.5463 24.582C97.5769 24.6353 97.6236 24.6787 97.6863 24.712C97.7503 24.7453 97.8336 24.762 97.9363 24.762ZM99.5183 25V22.84H99.8363V23.362L99.7843 23.294C99.8096 23.2273 99.8423 23.166 99.8823 23.11C99.9236 23.054 99.9696 23.008 100.02 22.972C100.076 22.9267 100.14 22.892 100.21 22.868C100.281 22.844 100.353 22.83 100.426 22.826C100.5 22.8207 100.568 22.8253 100.632 22.84V23.174C100.558 23.154 100.476 23.1487 100.386 23.158C100.297 23.1673 100.214 23.2 100.138 23.256C100.069 23.3053 100.015 23.3653 99.9763 23.436C99.9389 23.5067 99.9129 23.5833 99.8983 23.666C99.8836 23.7473 99.8763 23.8307 99.8763 23.916V25H99.5183ZM101.271 25.96L101.689 24.824L101.695 25.16L100.751 22.84H101.125L101.865 24.706H101.737L102.431 22.84H102.793L101.617 25.96H101.271ZM103.845 24.998L103.847 24.678L105.125 23.528C105.231 23.432 105.303 23.3413 105.339 23.256C105.376 23.1693 105.395 23.0807 105.395 22.99C105.395 22.8793 105.369 22.7793 105.319 22.69C105.268 22.6007 105.199 22.53 105.111 22.478C105.024 22.426 104.925 22.4 104.815 22.4C104.7 22.4 104.598 22.4273 104.509 22.482C104.419 22.5353 104.349 22.6067 104.297 22.696C104.246 22.7853 104.221 22.8827 104.223 22.988H103.859C103.859 22.8067 103.901 22.6467 103.985 22.508C104.069 22.368 104.183 22.2587 104.327 22.18C104.472 22.1 104.637 22.06 104.821 22.06C104.999 22.06 105.159 22.1013 105.301 22.184C105.442 22.2653 105.553 22.3767 105.635 22.518C105.717 22.658 105.759 22.8167 105.759 22.994C105.759 23.1193 105.743 23.228 105.711 23.32C105.68 23.412 105.632 23.4973 105.567 23.576C105.501 23.6533 105.419 23.736 105.321 23.824L104.259 24.778L104.213 24.658H105.759V24.998H103.845ZM107.209 25.06C107.022 25.06 106.856 25.018 106.709 24.934C106.564 24.8487 106.448 24.7333 106.363 24.588C106.279 24.4413 106.237 24.2747 106.237 24.088V23.032C106.237 22.8453 106.279 22.6787 106.363 22.532C106.448 22.3853 106.564 22.27 106.709 22.186C106.856 22.102 107.022 22.06 107.209 22.06C107.396 22.06 107.562 22.102 107.709 22.186C107.856 22.27 107.971 22.3853 108.055 22.532C108.139 22.6787 108.181 22.8453 108.181 23.032V24.088C108.181 24.2747 108.139 24.4413 108.055 24.588C107.971 24.7333 107.856 24.8487 107.709 24.934C107.562 25.018 107.396 25.06 107.209 25.06ZM107.209 24.718C107.322 24.718 107.425 24.6907 107.517 24.636C107.609 24.5813 107.682 24.508 107.737 24.416C107.792 24.3227 107.819 24.22 107.819 24.108V23.01C107.819 22.8967 107.792 22.794 107.737 22.702C107.682 22.61 107.609 22.5367 107.517 22.482C107.425 22.4273 107.322 22.4 107.209 22.4C107.097 22.4 106.994 22.4273 106.901 22.482C106.809 22.5367 106.736 22.61 106.681 22.702C106.626 22.794 106.599 22.8967 106.599 23.01V24.108C106.599 24.22 106.626 24.3227 106.681 24.416C106.736 24.508 106.809 24.5813 106.901 24.636C106.994 24.6907 107.097 24.718 107.209 24.718ZM108.661 24.998L108.663 24.678L109.941 23.528C110.048 23.432 110.119 23.3413 110.155 23.256C110.192 23.1693 110.211 23.0807 110.211 22.99C110.211 22.8793 110.186 22.7793 110.135 22.69C110.084 22.6007 110.015 22.53 109.927 22.478C109.84 22.426 109.742 22.4 109.631 22.4C109.516 22.4 109.414 22.4273 109.325 22.482C109.236 22.5353 109.165 22.6067 109.113 22.696C109.062 22.7853 109.038 22.8827 109.039 22.988H108.675C108.675 22.8067 108.717 22.6467 108.801 22.508C108.885 22.368 108.999 22.2587 109.143 22.18C109.288 22.1 109.453 22.06 109.637 22.06C109.816 22.06 109.976 22.1013 110.117 22.184C110.258 22.2653 110.37 22.3767 110.451 22.518C110.534 22.658 110.575 22.8167 110.575 22.994C110.575 23.1193 110.559 23.228 110.527 23.32C110.496 23.412 110.448 23.4973 110.383 23.576C110.318 23.6533 110.236 23.736 110.137 23.824L109.075 24.778L109.029 24.658H110.575V24.998H108.661ZM111.843 25.056C111.701 25.056 111.568 25.03 111.445 24.978C111.323 24.9247 111.217 24.85 111.127 24.754C111.039 24.6567 110.975 24.5413 110.933 24.408L111.275 24.31C111.319 24.4433 111.393 24.5447 111.495 24.614C111.598 24.6833 111.713 24.7173 111.841 24.716C111.959 24.7133 112.06 24.6867 112.145 24.636C112.232 24.584 112.299 24.5133 112.345 24.424C112.393 24.3347 112.417 24.2313 112.417 24.114C112.417 23.9353 112.364 23.7907 112.257 23.68C112.151 23.568 112.011 23.512 111.837 23.512C111.789 23.512 111.739 23.5187 111.685 23.532C111.633 23.5453 111.585 23.564 111.539 23.588L111.367 23.306L112.435 22.34L112.481 22.46H111.047V22.12H112.745V22.462L111.835 23.334L111.831 23.208C112.022 23.1947 112.189 23.226 112.331 23.302C112.474 23.378 112.585 23.4867 112.663 23.628C112.743 23.7693 112.783 23.9313 112.783 24.114C112.783 24.298 112.742 24.4607 112.659 24.602C112.577 24.7433 112.465 24.8547 112.323 24.936C112.182 25.016 112.022 25.056 111.843 25.056Z" fill="#646464"/>
</g>
<path d="M21.7818 52.0833C21.5172 52.0833 21.2794 52.0213 21.0685 51.8973C20.8594 51.7733 20.6938 51.6013 20.5717 51.3811C20.4496 51.1591 20.3885 50.9028 20.3885 50.6123V49.4522C20.3885 49.1377 20.4496 48.8666 20.5717 48.6391C20.6938 48.4096 20.8659 48.2339 21.0879 48.1118C21.31 47.9878 21.5708 47.9258 21.8706 47.9258C22.0648 47.9258 22.2499 47.9545 22.4256 48.0118C22.6014 48.0692 22.7624 48.1663 22.9086 48.3033L22.3701 48.8417C22.3035 48.7751 22.2267 48.7233 22.1398 48.6863C22.0528 48.6492 21.9631 48.6307 21.8706 48.6307C21.7263 48.6307 21.6004 48.665 21.4931 48.7334C21.3877 48.8 21.3053 48.8879 21.2461 48.9971C21.1888 49.1044 21.1601 49.2191 21.1601 49.3412V49.9352L21.0324 49.7964C21.1471 49.6798 21.2794 49.591 21.4293 49.53C21.581 49.467 21.7374 49.4356 21.8983 49.4356C22.15 49.4356 22.3711 49.492 22.5616 49.6049C22.7541 49.7178 22.9039 49.8722 23.0112 50.0684C23.1204 50.2645 23.175 50.4884 23.175 50.74C23.175 50.9916 23.1111 51.2192 22.9835 51.4227C22.8558 51.6244 22.6865 51.7854 22.4756 51.9056C22.2647 52.0241 22.0334 52.0833 21.7818 52.0833ZM21.7818 51.3617C21.8965 51.3617 22.001 51.3339 22.0954 51.2784C22.1916 51.2229 22.2674 51.148 22.323 51.0536C22.3803 50.9592 22.409 50.8547 22.409 50.74C22.409 50.6253 22.3812 50.5207 22.3257 50.4264C22.2702 50.3302 22.1953 50.2543 22.1009 50.1988C22.0066 50.1415 21.902 50.1128 21.7873 50.1128C21.6726 50.1128 21.5671 50.1415 21.4709 50.1988C21.3766 50.2543 21.3007 50.3302 21.2433 50.4264C21.1878 50.5207 21.1601 50.6253 21.1601 50.74C21.1601 50.851 21.1878 50.9537 21.2433 51.0481C21.2989 51.1424 21.3738 51.2183 21.4682 51.2756C21.5625 51.333 21.6671 51.3617 21.7818 51.3617ZM25.3235 52.0833C25.0274 52.0833 24.7684 52.0213 24.5464 51.8973C24.3244 51.7733 24.1514 51.6004 24.0274 51.3783C23.9034 51.1563 23.8415 50.8973 23.8415 50.6012V49.4023C23.8415 49.1063 23.9034 48.8472 24.0274 48.6252C24.1514 48.4032 24.3244 48.2302 24.5464 48.1062C24.7684 47.9822 25.0274 47.9203 25.3235 47.9203C25.6195 47.9203 25.8785 47.9822 26.1006 48.1062C26.3226 48.2302 26.4956 48.4032 26.6196 48.6252C26.7435 48.8472 26.8055 49.1063 26.8055 49.4023V50.6012C26.8055 50.8973 26.7435 51.1563 26.6196 51.3783C26.4956 51.6004 26.3226 51.7733 26.1006 51.8973C25.8785 52.0213 25.6195 52.0833 25.3235 52.0833ZM25.3235 51.3672C25.4567 51.3672 25.577 51.3358 25.6843 51.2729C25.7916 51.21 25.8767 51.1248 25.9396 51.0175C26.0025 50.9102 26.034 50.79 26.034 50.6567V49.3412C26.034 49.208 26.0025 49.0877 25.9396 48.9804C25.8767 48.8731 25.7916 48.788 25.6843 48.7251C25.577 48.6622 25.4567 48.6307 25.3235 48.6307C25.1903 48.6307 25.07 48.6622 24.9627 48.7251C24.8554 48.788 24.7703 48.8731 24.7074 48.9804C24.6444 49.0877 24.613 49.208 24.613 49.3412V50.6567C24.613 50.79 24.6444 50.9102 24.7074 51.0175C24.7703 51.1248 24.8554 51.21 24.9627 51.2729C25.07 51.3358 25.1903 51.3672 25.3235 51.3672ZM22.0149 67V66.3783H20.2775V65.6734L21.5375 63.0035H22.4034L21.1434 65.6734H22.0149V64.6743H22.7809V65.6734H23.1361V66.3783H22.7809V67H22.0149ZM25.2855 67.0833C24.9895 67.0833 24.7305 67.0213 24.5084 66.8973C24.2864 66.7733 24.1134 66.6004 23.9895 66.3783C23.8655 66.1563 23.8035 65.8973 23.8035 65.6012V64.4023C23.8035 64.1063 23.8655 63.8472 23.9895 63.6252C24.1134 63.4032 24.2864 63.2302 24.5084 63.1062C24.7305 62.9822 24.9895 62.9203 25.2855 62.9203C25.5816 62.9203 25.8406 62.9822 26.0626 63.1062C26.2847 63.2302 26.4577 63.4032 26.5816 63.6252C26.7056 63.8472 26.7676 64.1063 26.7676 64.4023V65.6012C26.7676 65.8973 26.7056 66.1563 26.5816 66.3783C26.4577 66.6004 26.2847 66.7733 26.0626 66.8973C25.8406 67.0213 25.5816 67.0833 25.2855 67.0833ZM25.2855 66.3672C25.4188 66.3672 25.539 66.3358 25.6463 66.2729C25.7536 66.21 25.8388 66.1248 25.9017 66.0175C25.9646 65.9102 25.996 65.79 25.996 65.6567V64.3412C25.996 64.208 25.9646 64.0877 25.9017 63.9804C25.8388 63.8731 25.7536 63.788 25.6463 63.7251C25.539 63.6622 25.4188 63.6307 25.2855 63.6307C25.1523 63.6307 25.0321 63.6622 24.9247 63.7251C24.8174 63.788 24.7323 63.8731 24.6694 63.9804C24.6065 64.0877 24.5751 64.208 24.5751 64.3412V65.6567C24.5751 65.79 24.6065 65.9102 24.6694 66.0175C24.7323 66.1248 24.8174 66.21 24.9247 66.2729C25.0321 66.3358 25.1523 66.3672 25.2855 66.3672ZM20.2775 82.9944V82.3395L21.9538 80.8519C22.0797 80.7409 22.1685 80.6363 22.2203 80.5383C22.2721 80.4402 22.298 80.3486 22.298 80.2635C22.298 80.1414 22.273 80.0332 22.223 79.9388C22.1731 79.8426 22.1028 79.7677 22.0121 79.714C21.9215 79.6585 21.8151 79.6307 21.693 79.6307C21.5653 79.6307 21.4524 79.6603 21.3544 79.7196C21.2582 79.7769 21.1832 79.8537 21.1296 79.9499C21.0759 80.0443 21.0509 80.147 21.0546 80.258H20.2775C20.2775 79.9841 20.3377 79.7473 20.4579 79.5475C20.5782 79.3477 20.7456 79.1932 20.9603 79.084C21.1749 78.9748 21.4247 78.9203 21.7096 78.9203C21.9705 78.9203 22.2036 78.9776 22.409 79.0923C22.6162 79.2052 22.779 79.3634 22.8974 79.5669C23.0159 79.7704 23.0751 80.0063 23.0751 80.2746C23.0751 80.4726 23.0473 80.6373 22.9918 80.7686C22.9363 80.8981 22.854 81.0184 22.7448 81.1294C22.6356 81.2386 22.5015 81.3626 22.3424 81.5013L21.26 82.4505L21.1989 82.284H23.0751V82.9944H20.2775ZM25.2205 83.0833C24.9245 83.0833 24.6654 83.0213 24.4434 82.8973C24.2214 82.7733 24.0484 82.6004 23.9244 82.3783C23.8004 82.1563 23.7385 81.8973 23.7385 81.6012V80.4023C23.7385 80.1063 23.8004 79.8472 23.9244 79.6252C24.0484 79.4032 24.2214 79.2302 24.4434 79.1062C24.6654 78.9822 24.9245 78.9203 25.2205 78.9203C25.5165 78.9203 25.7756 78.9822 25.9976 79.1062C26.2196 79.2302 26.3926 79.4032 26.5166 79.6252C26.6405 79.8472 26.7025 80.1063 26.7025 80.4023V81.6012C26.7025 81.8973 26.6405 82.1563 26.5166 82.3783C26.3926 82.6004 26.2196 82.7733 25.9976 82.8973C25.7756 83.0213 25.5165 83.0833 25.2205 83.0833ZM25.2205 82.3672C25.3537 82.3672 25.474 82.3358 25.5813 82.2729C25.6886 82.21 25.7737 82.1248 25.8366 82.0175C25.8995 81.9102 25.931 81.79 25.931 81.6567V80.3412C25.931 80.208 25.8995 80.0877 25.8366 79.9804C25.7737 79.8731 25.6886 79.788 25.5813 79.7251C25.474 79.6622 25.3537 79.6307 25.2205 79.6307C25.0873 79.6307 24.967 79.6622 24.8597 79.7251C24.7524 79.788 24.6673 79.8731 24.6044 79.9804C24.5415 80.0877 24.51 80.208 24.51 80.3412V81.6567C24.51 81.79 24.5415 81.9102 24.6044 82.0175C24.6673 82.1248 24.7524 82.21 24.8597 82.2729C24.967 82.3358 25.0873 82.3672 25.2205 82.3672ZM21.8706 99.0833C21.5745 99.0833 21.3155 99.0213 21.0935 98.8973C20.8715 98.7733 20.6985 98.6004 20.5745 98.3783C20.4505 98.1563 20.3885 97.8973 20.3885 97.6012V96.4023C20.3885 96.1063 20.4505 95.8472 20.5745 95.6252C20.6985 95.4032 20.8715 95.2302 21.0935 95.1062C21.3155 94.9822 21.5745 94.9203 21.8706 94.9203C22.1666 94.9203 22.4256 94.9822 22.6477 95.1062C22.8697 95.2302 23.0427 95.4032 23.1667 95.6252C23.2906 95.8472 23.3526 96.1063 23.3526 96.4023V97.6012C23.3526 97.8973 23.2906 98.1563 23.1667 98.3783C23.0427 98.6004 22.8697 98.7733 22.6477 98.8973C22.4256 99.0213 22.1666 99.0833 21.8706 99.0833ZM21.8706 98.3672C22.0038 98.3672 22.1241 98.3358 22.2314 98.2729C22.3387 98.21 22.4238 98.1248 22.4867 98.0175C22.5496 97.9102 22.5811 97.79 22.5811 97.6567V96.3412C22.5811 96.208 22.5496 96.0877 22.4867 95.9804C22.4238 95.8731 22.3387 95.788 22.2314 95.7251C22.1241 95.6622 22.0038 95.6307 21.8706 95.6307C21.7374 95.6307 21.6171 95.6622 21.5098 95.7251C21.4025 95.788 21.3174 95.8731 21.2545 95.9804C21.1915 96.0877 21.1601 96.208 21.1601 96.3412V97.6567C21.1601 97.79 21.1915 97.9102 21.2545 98.0175C21.3174 98.1248 21.4025 98.21 21.5098 98.2729C21.6171 98.3358 21.7374 98.3672 21.8706 98.3672ZM25.6108 99.0833C25.3147 99.0833 25.0557 99.0213 24.8337 98.8973C24.6117 98.7733 24.4387 98.6004 24.3147 98.3783C24.1907 98.1563 24.1287 97.8973 24.1287 97.6012V96.4023C24.1287 96.1063 24.1907 95.8472 24.3147 95.6252C24.4387 95.4032 24.6117 95.2302 24.8337 95.1062C25.0557 94.9822 25.3147 94.9203 25.6108 94.9203C25.9068 94.9203 26.1658 94.9822 26.3879 95.1062C26.6099 95.2302 26.7829 95.4032 26.9069 95.6252C27.0308 95.8472 27.0928 96.1063 27.0928 96.4023V97.6012C27.0928 97.8973 27.0308 98.1563 26.9069 98.3783C26.7829 98.6004 26.6099 98.7733 26.3879 98.8973C26.1658 99.0213 25.9068 99.0833 25.6108 99.0833ZM25.6108 98.3672C25.744 98.3672 25.8643 98.3358 25.9716 98.2729C26.0789 98.21 26.164 98.1248 26.2269 98.0175C26.2898 97.9102 26.3213 97.79 26.3213 97.6567V96.3412C26.3213 96.208 26.2898 96.0877 26.2269 95.9804C26.164 95.8731 26.0789 95.788 25.9716 95.7251C25.8643 95.6622 25.744 95.6307 25.6108 95.6307C25.4776 95.6307 25.3573 95.6622 25.25 95.7251C25.1427 95.788 25.0576 95.8731 24.9946 95.9804C24.9317 96.0877 24.9003 96.208 24.9003 96.3412V97.6567C24.9003 97.79 24.9317 97.9102 24.9946 98.0175C25.0576 98.1248 25.1427 98.21 25.25 98.2729C25.3573 98.3358 25.4776 98.3672 25.6108 98.3672Z" fill="#1E1E1E"/>
<rect x="40" y="75" width="6" height="30" rx="3" fill="#6A6A6A"/>
<rect x="58" y="88" width="6" height="17" rx="3" fill="#3E66DF"/>
<rect x="76" y="60" width="6" height="45" rx="3" fill="#5D5DFF"/>
<rect x="94" y="65" width="6" height="40" rx="3" fill="#050505"/>
<rect x="112" y="86" width="6" height="19" rx="3" fill="#3E66DF"/>
<rect x="71" y="51" width="16.5" height="6" rx="3" fill="#5D5DFF"/>
<path d="M74.6005 55.545C74.4905 55.545 74.388 55.5225 74.293 55.4775C74.198 55.4315 74.116 55.3685 74.047 55.2885C73.979 55.2085 73.93 55.1155 73.9 55.0095L74.248 54.9165C74.262 54.9745 74.2875 55.0245 74.3245 55.0665C74.3625 55.1085 74.4065 55.141 74.4565 55.164C74.5075 55.187 74.56 55.1985 74.614 55.1985C74.684 55.1985 74.748 55.1815 74.806 55.1475C74.864 55.1135 74.91 55.068 74.944 55.011C74.978 54.953 74.995 54.889 74.995 54.819C74.995 54.749 74.9775 54.6855 74.9425 54.6285C74.9085 54.5705 74.8625 54.525 74.8045 54.492C74.7465 54.458 74.683 54.441 74.614 54.441C74.531 54.441 74.462 54.456 74.407 54.486C74.353 54.516 74.3115 54.548 74.2825 54.582L73.9735 54.483L74.0395 53.34H75.2125V53.679H74.233L74.368 53.5515L74.32 54.3465L74.254 54.2655C74.31 54.2145 74.375 54.1765 74.449 54.1515C74.523 54.1265 74.5945 54.114 74.6635 54.114C74.7985 54.114 74.918 54.145 75.022 54.207C75.127 54.268 75.209 54.3515 75.268 54.4575C75.328 54.5635 75.358 54.684 75.358 54.819C75.358 54.954 75.323 55.0765 75.253 55.1865C75.183 55.2955 75.0905 55.3825 74.9755 55.4475C74.8615 55.5125 74.7365 55.545 74.6005 55.545ZM76.3358 55.5405C76.2278 55.5405 76.1258 55.5195 76.0298 55.4775C75.9338 55.4355 75.8503 55.376 75.7793 55.299C75.7093 55.222 75.6588 55.131 75.6278 55.026L75.9773 54.9315C76.0023 55.0175 76.0478 55.084 76.1138 55.131C76.1808 55.177 76.2543 55.1995 76.3343 55.1985C76.4053 55.1985 76.4688 55.182 76.5248 55.149C76.5808 55.116 76.6248 55.0715 76.6568 55.0155C76.6888 54.9585 76.7048 54.895 76.7048 54.825C76.7048 54.718 76.6703 54.6285 76.6013 54.5565C76.5323 54.4845 76.4433 54.4485 76.3343 54.4485C76.3013 54.4485 76.2688 54.453 76.2368 54.462C76.2058 54.471 76.1758 54.4835 76.1468 54.4995L75.9818 54.2145L76.7078 53.5935L76.7393 53.6805H75.7118V53.34H77.0363V53.682L76.4528 54.243L76.4498 54.1365C76.5808 54.1455 76.6923 54.182 76.7843 54.246C76.8773 54.31 76.9483 54.3925 76.9973 54.4935C77.0473 54.5945 77.0723 54.705 77.0723 54.825C77.0723 54.961 77.0388 55.083 76.9718 55.191C76.9058 55.299 76.8168 55.3845 76.7048 55.4475C76.5938 55.5095 76.4708 55.5405 76.3358 55.5405ZM77.431 55.8825L77.452 55.7265C77.498 55.7305 77.5345 55.7225 77.5615 55.7025C77.5885 55.6835 77.6065 55.656 77.6155 55.62C77.6255 55.585 77.628 55.545 77.623 55.5H77.431V55.1145H77.8015V55.515C77.8015 55.646 77.7705 55.745 77.7085 55.812C77.6465 55.879 77.554 55.9025 77.431 55.8825ZM78.3121 55.497V55.182L79.2361 54.3585C79.3081 54.2945 79.3581 54.234 79.3861 54.177C79.4141 54.12 79.4281 54.065 79.4281 54.012C79.4281 53.94 79.4126 53.876 79.3816 53.82C79.3506 53.763 79.3076 53.718 79.2526 53.685C79.1986 53.652 79.1361 53.6355 79.0651 53.6355C78.9901 53.6355 78.9236 53.653 78.8656 53.688C78.8086 53.722 78.7641 53.7675 78.7321 53.8245C78.7001 53.8815 78.6851 53.943 78.6871 54.009H78.3151C78.3151 53.865 78.3471 53.7395 78.4111 53.6325C78.4761 53.5255 78.5651 53.4425 78.6781 53.3835C78.7921 53.3245 78.9236 53.295 79.0726 53.295C79.2106 53.295 79.3346 53.326 79.4446 53.388C79.5546 53.449 79.6411 53.534 79.7041 53.643C79.7671 53.751 79.7986 53.8755 79.7986 54.0165C79.7986 54.1195 79.7846 54.206 79.7566 54.276C79.7286 54.346 79.6866 54.4105 79.6306 54.4695C79.5756 54.5285 79.5071 54.594 79.4251 54.666L78.7696 55.2465L78.7366 55.1565H79.7986V55.497H78.3121ZM80.9362 55.545C80.7832 55.545 80.6482 55.5125 80.5312 55.4475C80.4142 55.3815 80.3227 55.29 80.2567 55.173C80.1917 55.056 80.1592 54.921 80.1592 54.768V54.072C80.1592 53.919 80.1917 53.784 80.2567 53.667C80.3227 53.55 80.4142 53.459 80.5312 53.394C80.6482 53.328 80.7832 53.295 80.9362 53.295C81.0892 53.295 81.2237 53.328 81.3397 53.394C81.4567 53.459 81.5482 53.55 81.6142 53.667C81.6802 53.784 81.7132 53.919 81.7132 54.072V54.768C81.7132 54.921 81.6802 55.056 81.6142 55.173C81.5482 55.29 81.4567 55.3815 81.3397 55.4475C81.2237 55.5125 81.0892 55.545 80.9362 55.545ZM80.9362 55.2015C81.0122 55.2015 81.0812 55.1835 81.1432 55.1475C81.2052 55.1105 81.2542 55.0615 81.2902 55.0005C81.3262 54.9385 81.3442 54.8695 81.3442 54.7935V54.045C81.3442 53.968 81.3262 53.899 81.2902 53.838C81.2542 53.776 81.2052 53.727 81.1432 53.691C81.0812 53.654 81.0122 53.6355 80.9362 53.6355C80.8602 53.6355 80.7912 53.654 80.7292 53.691C80.6672 53.727 80.6182 53.776 80.5822 53.838C80.5462 53.899 80.5282 53.968 80.5282 54.045V54.7935C80.5282 54.8695 80.5462 54.9385 80.5822 55.0005C80.6182 55.0615 80.6672 55.1105 80.7292 55.1475C80.7912 55.1835 80.8602 55.2015 80.9362 55.2015ZM82.9108 55.545C82.7578 55.545 82.6228 55.5125 82.5058 55.4475C82.3888 55.3815 82.2973 55.29 82.2313 55.173C82.1663 55.056 82.1338 54.921 82.1338 54.768V54.072C82.1338 53.919 82.1663 53.784 82.2313 53.667C82.2973 53.55 82.3888 53.459 82.5058 53.394C82.6228 53.328 82.7578 53.295 82.9108 53.295C83.0638 53.295 83.1983 53.328 83.3143 53.394C83.4313 53.459 83.5228 53.55 83.5888 53.667C83.6548 53.784 83.6878 53.919 83.6878 54.072V54.768C83.6878 54.921 83.6548 55.056 83.5888 55.173C83.5228 55.29 83.4313 55.3815 83.3143 55.4475C83.1983 55.5125 83.0638 55.545 82.9108 55.545ZM82.9108 55.2015C82.9868 55.2015 83.0558 55.1835 83.1178 55.1475C83.1798 55.1105 83.2288 55.0615 83.2648 55.0005C83.3008 54.9385 83.3188 54.8695 83.3188 54.7935V54.045C83.3188 53.968 83.3008 53.899 83.2648 53.838C83.2288 53.776 83.1798 53.727 83.1178 53.691C83.0558 53.654 82.9868 53.6355 82.9108 53.6355C82.8348 53.6355 82.7658 53.654 82.7038 53.691C82.6418 53.727 82.5928 53.776 82.5568 53.838C82.5208 53.899 82.5028 53.968 82.5028 54.045V54.7935C82.5028 54.8695 82.5208 54.9385 82.5568 55.0005C82.5928 55.0615 82.6418 55.1105 82.7038 55.1475C82.7658 55.1835 82.8348 55.2015 82.9108 55.2015Z" fill="white"/>
<path d="M79 58L78.134 56.5L79.866 56.5L79 58Z" fill="#5D5DFF"/>
</g>
<defs>
<filter id="filter0_d_84_974" x="0" y="0" width="138" height="129" filterUnits="userSpaceOnUse" color-interpolation-filters="sRGB">
<feFlood flood-opacity="0" result="BackgroundImageFix"/>
<feColorMatrix in="SourceAlpha" type="matrix" values="0 0 0 0 0 0 0 0 0 0 0 0 0 0 0 0 0 0 127 0" result="hardAlpha"/>
<feOffset dy="4"/>
<feGaussianBlur stdDeviation="2"/>
<feComposite in2="hardAlpha" operator="out"/>
<feColorMatrix type="matrix" values="0 0 0 0 0 0 0 0 0 0 0 0 0 0 0 0 0 0 0.16 0"/>
<feBlend mode="normal" in2="BackgroundImageFix" result="effect1_dropShadow_84_974"/>
<feBlend mode="normal" in="SourceGraphic" in2="effect1_dropShadow_84_974" result="shape"/>
</filter>
<filter id="filter1_d_84_974" x="16" y="12" width="110" height="26" filterUnits="userSpaceOnUse" color-interpolation-filters="sRGB">
<feFlood flood-opacity="0" result="BackgroundImageFix"/>
<feColorMatrix in="SourceAlpha" type="matrix" values="0 0 0 0 0 0 0 0 0 0 0 0 0 0 0 0 0 0 127 0" result="hardAlpha"/>
<feOffset dx="2" dy="2"/>
<feGaussianBlur stdDeviation="3"/>
<feComposite in2="hardAlpha" operator="out"/>
<feColorMatrix type="matrix" values="0 0 0 0 0 0 0 0 0 0 0 0 0 0 0 0 0 0 0.04 0"/>
<feBlend mode="normal" in2="BackgroundImageFix" result="effect1_dropShadow_84_974"/>
<feBlend mode="normal" in="SourceGraphic" in2="effect1_dropShadow_84_974" result="shape"/>
</filter>
</defs>
</svg>
