<svg width="157" height="155" viewBox="0 0 157 155" fill="none" xmlns="http://www.w3.org/2000/svg">
<path d="M71.1794 8.69889C75.0026 4.15591 81.9974 4.1559 85.8206 8.69888L94.8062 19.3763C97.0098 21.9948 100.444 23.2369 103.813 22.6337L117.648 20.1567C123.533 19.1031 128.932 23.6439 128.902 29.622L128.835 43.203C128.818 46.6736 130.682 49.8813 133.705 51.5854L145.653 58.3195C150.909 61.2815 152.145 68.3089 148.216 72.8865L139.39 83.1685C137.119 85.8149 136.467 89.4877 137.689 92.754L142.42 105.395C144.527 111.025 140.982 117.18 135.055 118.183L121.335 120.503C117.939 121.078 115.113 123.434 113.937 126.672L109.24 139.607C107.21 145.199 100.623 147.602 95.4689 144.631L83.2782 137.604C80.3208 135.9 76.6792 135.9 73.7218 137.604L61.5311 144.631C56.377 147.602 49.7899 145.199 47.7595 139.607L43.0627 126.672C41.887 123.434 39.0614 121.078 35.6648 120.503L21.9449 118.183C16.0179 117.18 12.4725 111.025 14.5796 105.395L19.3107 92.754C20.5332 89.4877 19.8815 85.8149 17.6099 83.1685L8.7842 72.8865C4.85491 68.3089 6.09103 61.2815 11.3466 58.3195L23.2948 51.5854C26.3183 49.8813 28.182 46.6736 28.1649 43.203L28.0979 29.622C28.0684 23.6439 33.4673 19.1031 39.3519 20.1567L53.187 22.6337C56.5558 23.2369 59.9902 21.9948 62.1938 19.3763L71.1794 8.69889Z" fill="#8552FF"/>
<path d="M52.9639 87.0503L74.3352 103.333L105.928 53.5801" stroke="white" stroke-width="9.5679" stroke-linecap="round" stroke-linejoin="round"/>
</svg>
