<svg width="49" height="50" viewBox="0 0 49 50" fill="none" xmlns="http://www.w3.org/2000/svg">
<path d="M21.5417 33.6666C21.1461 33.6666 20.7594 33.7839 20.4305 34.0036C20.1016 34.2234 19.8453 34.5358 19.6939 34.9012C19.5425 35.2667 19.5029 35.6688 19.5801 36.0568C19.6573 36.4447 19.8477 36.8011 20.1275 37.0808C20.4072 37.3605 20.7635 37.551 21.1515 37.6282C21.5394 37.7053 21.9416 37.6657 22.307 37.5143C22.6725 37.363 22.9848 37.1066 23.2046 36.7777C23.4244 36.4488 23.5417 36.0621 23.5417 35.6666C23.5417 35.1362 23.331 34.6274 22.9559 34.2524C22.5808 33.8773 22.0721 33.6666 21.5417 33.6666ZM35.5417 29.6666H19.5417C19.188 29.6666 18.8489 29.5261 18.5989 29.2761C18.3488 29.026 18.2083 28.6869 18.2083 28.3333C18.2083 27.9796 18.3488 27.6405 18.5989 27.3904C18.8489 27.1404 19.188 26.9999 19.5417 26.9999H30.8633C31.7318 26.9971 32.5761 26.7129 33.2696 26.1899C33.963 25.6669 34.4683 24.9332 34.7097 24.0989L36.8236 16.6998C36.8803 16.5013 36.8902 16.2925 36.8524 16.0896C36.8147 15.8866 36.7304 15.6953 36.6061 15.5305C36.4818 15.3657 36.321 15.232 36.1363 15.14C35.9516 15.0479 35.7481 15 35.5417 14.9999H19.1938C18.9177 14.2231 18.4089 13.5502 17.7366 13.073C17.0643 12.5958 16.2613 12.3375 15.4369 12.3333H14.2083C13.8547 12.3333 13.5156 12.4737 13.2655 12.7238C13.0155 12.9738 12.875 13.313 12.875 13.6666C12.875 14.0202 13.0155 14.3593 13.2655 14.6094C13.5156 14.8594 13.8547 14.9999 14.2083 14.9999H15.4369C15.7263 15.0009 16.0076 15.0957 16.2387 15.27C16.4698 15.4442 16.6382 15.6887 16.7187 15.9667L16.9261 16.693L16.9264 16.6998L19.1139 24.356C18.096 24.4655 17.1588 24.9612 16.4954 25.7409C15.8319 26.5206 15.4926 27.525 15.5474 28.5473C15.6023 29.5697 16.047 30.5321 16.79 31.2364C17.5331 31.9406 18.5179 32.3332 19.5417 32.3333H35.5417C35.8953 32.3333 36.2344 32.1928 36.4845 31.9427C36.7345 31.6927 36.875 31.3535 36.875 30.9999C36.875 30.6463 36.7345 30.3072 36.4845 30.0571C36.2344 29.8071 35.8953 29.6666 35.5417 29.6666ZM33.7741 17.6666L32.1458 23.3658C32.0654 23.644 31.8969 23.8887 31.6657 24.0631C31.4345 24.2376 31.1529 24.3323 30.8633 24.3333H21.8809L21.5409 23.1436L19.9769 17.6666H33.7741ZM32.2083 33.6666C31.8128 33.6666 31.4261 33.7839 31.0972 34.0036C30.7683 34.2234 30.5119 34.5358 30.3606 34.9012C30.2092 35.2667 30.1696 35.6688 30.2468 36.0568C30.3239 36.4447 30.5144 36.8011 30.7941 37.0808C31.0738 37.3605 31.4302 37.551 31.8182 37.6282C32.2061 37.7053 32.6082 37.6657 32.9737 37.5143C33.3392 37.363 33.6515 37.1066 33.8713 36.7777C34.091 36.4488 34.2083 36.0621 34.2083 35.6666C34.2083 35.1362 33.9976 34.6274 33.6225 34.2524C33.2475 33.8773 32.7388 33.6666 32.2083 33.6666Z" fill="#676D75"/>
</svg>
