<svg width="14" height="19" viewBox="0 0 14 19" fill="none" xmlns="http://www.w3.org/2000/svg">
<path d="M13 18V4.07949C12.9999 3.93031 12.9338 3.78492 12.8111 3.66388C12.6883 3.54285 12.5151 3.45229 12.316 3.40501L2.316 1.03677C2.16564 1.00097 2.00544 0.991126 1.84866 1.00805C1.69187 1.02497 1.54302 1.06818 1.41441 1.1341C1.2858 1.20001 1.18113 1.28674 1.10907 1.3871C1.037 1.48747 0.999618 1.59858 1 1.71125V18" stroke="#F8A435" stroke-opacity="0.5" stroke-width="1.6" stroke-linecap="round" stroke-linejoin="round"/>
<path d="M8.99866 13.5137V14.2241" stroke="#F8A435" stroke-opacity="0.5" stroke-width="1.6" stroke-linecap="round" stroke-linejoin="round"/>
<path d="M8.99866 9.96143V10.6719" stroke="#F8A435" stroke-opacity="0.5" stroke-width="1.6" stroke-linecap="round" stroke-linejoin="round"/>
<path d="M8.99866 6.40894V7.11941" stroke="#F8A435" stroke-opacity="0.5" stroke-width="1.6" stroke-linecap="round" stroke-linejoin="round"/>
<path d="M5.00098 13.5137V14.2241" stroke="#F8A435" stroke-opacity="0.5" stroke-width="1.6" stroke-linecap="round" stroke-linejoin="round"/>
<path d="M5.00098 9.96143V10.6719" stroke="#F8A435" stroke-opacity="0.5" stroke-width="1.6" stroke-linecap="round" stroke-linejoin="round"/>
<path d="M5.00098 6.40894V7.11941" stroke="#F8A435" stroke-opacity="0.5" stroke-width="1.6" stroke-linecap="round" stroke-linejoin="round"/>
</svg>
