<svg width="32" height="32" viewBox="0 0 32 32" fill="none" xmlns="http://www.w3.org/2000/svg">
<path d="M26.6668 14.6667C26.6668 11.8377 25.543 9.12458 23.5426 7.12419C21.5422 5.12381 18.8291 4 16.0002 4C13.1712 4 10.4581 5.12381 8.45769 7.12419C6.4573 9.12458 5.3335 11.8377 5.3335 14.6667" stroke="black" stroke-width="2" stroke-linecap="round" stroke-linejoin="round"/>
<path d="M2.66675 20.5839V18.0826C2.66684 17.4879 2.86569 16.9104 3.23169 16.4417C3.59769 15.973 4.10984 15.6401 4.68675 15.4959L7.00675 14.9146C7.12464 14.8852 7.24766 14.8831 7.3665 14.9084C7.48533 14.9336 7.59684 14.9856 7.69258 15.0604C7.78832 15.1352 7.86577 15.2308 7.91905 15.34C7.97232 15.4492 8.00004 15.5691 8.00008 15.6906V22.9746C8.00029 23.0963 7.97271 23.2165 7.91944 23.326C7.86617 23.4355 7.78862 23.5313 7.6927 23.6063C7.59677 23.6813 7.485 23.7334 7.36589 23.7586C7.24679 23.7838 7.1235 23.7815 7.00542 23.7519L4.68541 23.1719C4.10876 23.0275 3.5969 22.6945 3.23116 22.2258C2.86542 21.7571 2.66676 21.1797 2.66675 20.5852V20.5839Z" stroke="black" stroke-width="2"/>
<path d="M29.3333 20.5839V18.0826C29.3332 17.4879 29.1344 16.9104 28.7684 16.4417C28.4024 15.973 27.8902 15.6401 27.3133 15.4959L24.9933 14.9146C24.8754 14.8852 24.7524 14.8831 24.6336 14.9084C24.5148 14.9336 24.4032 14.9856 24.3075 15.0604C24.2118 15.1352 24.1343 15.2308 24.081 15.34C24.0278 15.4492 24 15.5691 24 15.6906V22.9746C23.9998 23.0962 24.0274 23.2162 24.0806 23.3256C24.1338 23.4349 24.2112 23.5307 24.307 23.6057C24.4027 23.6806 24.5143 23.7327 24.6333 23.7581C24.7522 23.7834 24.8753 23.7813 24.9933 23.7519L27.3133 23.1719C27.8902 23.0277 28.4024 22.6948 28.7684 22.2261C29.1344 21.7575 29.3332 21.1799 29.3333 20.5852V20.5839Z" stroke="black" stroke-width="2"/>
<path d="M26.6668 24V24.6667C26.6668 25.3739 26.3859 26.0522 25.8858 26.5523C25.3857 27.0524 24.7074 27.3333 24.0002 27.3333H19.3335" stroke="black" stroke-width="2"/>
<path d="M18 29.3333H14C13.4696 29.3333 12.9609 29.1225 12.5858 28.7475C12.2107 28.3724 12 27.8637 12 27.3333C12 26.8028 12.2107 26.2941 12.5858 25.919C12.9609 25.544 13.4696 25.3333 14 25.3333H18C18.5304 25.3333 19.0391 25.544 19.4142 25.919C19.7893 26.2941 20 26.8028 20 27.3333C20 27.8637 19.7893 28.3724 19.4142 28.7475C19.0391 29.1225 18.5304 29.3333 18 29.3333Z" stroke="black" stroke-width="2"/>
</svg>
