<svg width="25" height="24" viewBox="0 0 25 24" fill="none" xmlns="http://www.w3.org/2000/svg">
<path fill-rule="evenodd" clip-rule="evenodd" d="M12.0111 1.21065C12.3722 0.929784 12.8778 0.929784 13.2389 1.21065L22.2389 8.21065C22.4825 8.4001 22.625 8.69141 22.625 9V20C22.625 20.7957 22.3089 21.5587 21.7463 22.1213C21.1837 22.6839 20.4207 23 19.625 23H5.625C4.82935 23 4.06629 22.6839 3.50368 22.1213C2.94107 21.5587 2.625 20.7957 2.625 20V9C2.625 8.69141 2.76747 8.4001 3.01106 8.21065L12.0111 1.21065ZM4.625 9.48908V20C4.625 20.2652 4.73036 20.5196 4.91789 20.7071C5.10543 20.8946 5.35978 21 5.625 21H19.625C19.8902 21 20.1446 20.8946 20.3321 20.7071C20.5196 20.5196 20.625 20.2652 20.625 20V9.48908L12.625 3.26686L4.625 9.48908Z" fill="#F8A435"/>
<path fill-rule="evenodd" clip-rule="evenodd" d="M8.625 12C8.625 11.4477 9.07272 11 9.625 11H15.625C16.1773 11 16.625 11.4477 16.625 12V22C16.625 22.5523 16.1773 23 15.625 23C15.0727 23 14.625 22.5523 14.625 22V13H10.625V22C10.625 22.5523 10.1773 23 9.625 23C9.07272 23 8.625 22.5523 8.625 22V12Z" fill="#F8A435"/>
</svg>
