<svg width="25" height="24" viewBox="0 0 25 24" fill="none" xmlns="http://www.w3.org/2000/svg">
<path fill-rule="evenodd" clip-rule="evenodd" d="M11.875 4C8.00901 4 4.875 7.13401 4.875 11C4.875 14.866 8.00901 18 11.875 18C15.741 18 18.875 14.866 18.875 11C18.875 7.13401 15.741 4 11.875 4ZM2.875 11C2.875 6.02944 6.90444 2 11.875 2C16.8456 2 20.875 6.02944 20.875 11C20.875 15.9706 16.8456 20 11.875 20C6.90444 20 2.875 15.9706 2.875 11Z" fill="#676D75"/>
<path fill-rule="evenodd" clip-rule="evenodd" d="M16.8179 15.9428C17.2084 15.5523 17.8416 15.5523 18.2321 15.9428L22.5821 20.2928C22.9727 20.6833 22.9727 21.3165 22.5821 21.707C22.1916 22.0975 21.5584 22.0975 21.1679 21.707L16.8179 17.357C16.4274 16.9665 16.4274 16.3333 16.8179 15.9428Z" fill="#676D75"/>
</svg>
