<svg width="25" height="24" viewBox="0 0 25 24" fill="none" xmlns="http://www.w3.org/2000/svg">
<path fill-rule="evenodd" clip-rule="evenodd" d="M4.83947 15.4645C5.77715 14.5268 7.04892 14 8.375 14H16.375C17.7011 14 18.9729 14.5268 19.9105 15.4645C20.8482 16.4021 21.375 17.6739 21.375 19V21C21.375 21.5523 20.9273 22 20.375 22C19.8227 22 19.375 21.5523 19.375 21V19C19.375 18.2044 19.0589 17.4413 18.4963 16.8787C17.9337 16.3161 17.1706 16 16.375 16H8.375C7.57935 16 6.81629 16.3161 6.25368 16.8787C5.69107 17.4413 5.375 18.2044 5.375 19V21C5.375 21.5523 4.92728 22 4.375 22C3.82272 22 3.375 21.5523 3.375 21V19C3.375 17.6739 3.90178 16.4021 4.83947 15.4645Z" fill="#676D75"/>
<path fill-rule="evenodd" clip-rule="evenodd" d="M12.375 4C10.7181 4 9.375 5.34315 9.375 7C9.375 8.65685 10.7181 10 12.375 10C14.0319 10 15.375 8.65685 15.375 7C15.375 5.34315 14.0319 4 12.375 4ZM7.375 7C7.375 4.23858 9.61358 2 12.375 2C15.1364 2 17.375 4.23858 17.375 7C17.375 9.76142 15.1364 12 12.375 12C9.61358 12 7.375 9.76142 7.375 7Z" fill="#676D75"/>
</svg>
