<svg width="22" height="21" viewBox="0 0 22 21" fill="none" xmlns="http://www.w3.org/2000/svg">
<path fill-rule="evenodd" clip-rule="evenodd" d="M10.7043 4.60862C12.2443 2.80612 15.0968 2.07112 17.4068 3.64612C18.6318 4.48612 19.4018 5.90362 19.4543 7.39112C19.568 10.7861 16.5668 13.5074 11.973 17.6724L11.8768 17.7599C11.2118 18.3724 10.188 18.3724 9.52304 17.7686L9.43554 17.6899L9.38268 17.6418C4.81871 13.4952 1.83226 10.7818 1.95429 7.39987C2.00679 5.90362 2.77679 4.48612 4.00179 3.64612C6.31179 2.06237 9.16429 2.80612 10.7043 4.60862ZM10.7043 16.4736L10.7918 16.3861C14.9568 12.6149 17.7043 10.1211 17.7043 7.59237C17.7043 5.84237 16.3918 4.52987 14.6418 4.52987C13.2943 4.52987 11.9818 5.39612 11.5268 6.59487H9.89054C9.42679 5.39612 8.11429 4.52987 6.76679 4.52987C5.01679 4.52987 3.70429 5.84237 3.70429 7.59237C3.70429 10.1211 6.45179 12.6149 10.6168 16.3861L10.7043 16.4736Z" fill="#1B1B1B" fill-opacity="0.6"/>
</svg>
