<svg width="32" height="32" viewBox="0 0 32 32" fill="none" xmlns="http://www.w3.org/2000/svg">
<path d="M15.9999 6.33325C17.1492 6.33325 18.2514 6.7898 19.064 7.60246C19.8767 8.41511 20.3333 9.51731 20.3333 10.6666C20.3333 11.8159 19.8767 12.9181 19.064 13.7307C18.2514 14.5434 17.1492 14.9999 15.9999 14.9999C14.8506 14.9999 13.7484 14.5434 12.9358 13.7307C12.1231 12.9181 11.6666 11.8159 11.6666 10.6666C11.6666 9.51731 12.1231 8.41511 12.9358 7.60246C13.7484 6.7898 14.8506 6.33325 15.9999 6.33325ZM15.9999 19.6666C18.8251 19.6666 21.3322 20.2408 23.096 21.1227C24.9194 22.0343 25.6666 23.1092 25.6666 23.9999V25.6666H6.33325V23.9999C6.33325 23.1092 7.08046 22.0343 8.9038 21.1227C10.6676 20.2408 13.1747 19.6666 15.9999 19.6666Z" stroke="black" stroke-width="2"/>
</svg>
