<svg width="49" height="48" viewBox="0 0 49 48" fill="none" xmlns="http://www.w3.org/2000/svg">
<path d="M35.426 19.9562C35.426 19.9562 35.426 19.9562 35.426 19.896C34.578 17.5807 33.0393 15.5818 31.0181 14.1696C28.9969 12.7573 26.5907 12 24.125 12C21.6593 12 19.2531 12.7573 17.2319 14.1696C15.2107 15.5818 13.672 17.5807 12.824 19.896C12.824 19.896 12.824 19.896 12.824 19.9562C11.877 22.5689 11.877 25.4311 12.824 28.0438C12.824 28.0438 12.824 28.0438 12.824 28.104C13.672 30.4193 15.2107 32.4182 17.2319 33.8304C19.2531 35.2427 21.6593 36 24.125 36C26.5907 36 28.9969 35.2427 31.0181 33.8304C33.0393 32.4182 34.578 30.4193 35.426 28.104C35.426 28.104 35.426 28.104 35.426 28.0438C36.373 25.4311 36.373 22.5689 35.426 19.9562ZM14.7858 26.407C14.3684 24.8295 14.3684 23.1705 14.7858 21.593H17.0243C16.8318 23.1919 16.8318 24.8081 17.0243 26.407H14.7858ZM15.7726 28.814H17.4575C17.74 29.8874 18.1438 30.9251 18.6611 31.9071C17.4808 31.103 16.4941 30.0465 15.7726 28.814ZM17.4575 19.186H15.7726C16.4837 17.9573 17.4578 16.9011 18.625 16.0929C18.1201 17.0765 17.7285 18.1141 17.4575 19.186ZM22.8974 33.267C21.4192 32.1823 20.3811 30.6015 19.9729 28.814H22.8974V33.267ZM22.8974 26.407H19.4554C19.2308 24.8102 19.2308 23.1898 19.4554 21.593H22.8974V26.407ZM22.8974 19.186H19.9729C20.3811 17.3985 21.4192 15.8177 22.8974 14.733V19.186ZM32.4292 19.186H30.7443C30.4618 18.1126 30.058 17.0749 29.5408 16.0929C30.7211 16.897 31.7077 17.9535 32.4292 19.186ZM25.3044 14.733C26.7826 15.8177 27.8208 17.3985 28.229 19.186H25.3044V14.733ZM25.3044 33.267V28.814H28.229C27.8208 30.6015 26.7826 32.1823 25.3044 33.267ZM28.7465 26.407H25.3044V21.593H28.7465C28.9711 23.1898 28.9711 24.8102 28.7465 26.407ZM29.5769 31.9071C30.0942 30.9251 30.4979 29.8874 30.7804 28.814H32.4653C31.7438 30.0465 30.7572 31.103 29.5769 31.9071ZM33.4161 26.407H31.1776C31.2754 25.6084 31.3237 24.8046 31.322 24C31.3233 23.1955 31.2751 22.3916 31.1776 21.593H33.4161C33.8334 23.1705 33.8334 24.8295 33.4161 26.407Z" fill="#676D75"/>
</svg>
