<svg width="32" height="32" viewBox="0 0 32 32" fill="none" xmlns="http://www.w3.org/2000/svg">
<path d="M26.4287 21.5984L26.4295 21.5995C26.4613 21.6378 26.512 21.6994 26.5653 21.7642C26.6269 21.839 26.6918 21.9179 26.7347 21.9696C26.8808 22.146 26.9733 22.3607 27.0011 22.5881L27.9937 22.4666L27.0011 22.5881C27.0289 22.8155 26.991 23.0461 26.8918 23.2525L26.891 23.2541C26.6777 23.7001 26.2223 23.9981 25.6563 23.9981H6.35065C5.77737 23.9981 5.31953 23.6972 5.10844 23.2525L5.10706 23.2496C5.0083 23.0432 4.97072 22.8128 4.99879 22.5858C5.02686 22.3587 5.11939 22.1444 5.26543 21.9683L5.26546 21.9683L5.2713 21.9612C5.35902 21.8534 5.44529 21.7493 5.53353 21.6429C5.54602 21.6279 5.55855 21.6128 5.57113 21.5976L5.57134 21.5973L5.60183 21.5605C6.27399 20.7493 6.92165 19.9677 7.36093 18.756C7.7992 17.5471 8.00815 15.9825 8.00815 13.5844C8.00815 11.5776 8.4099 10.0082 9.15653 8.79495C9.89757 7.59074 11.0266 6.65836 12.6251 6.00033L12.6802 5.97765L12.7322 5.94859C12.8485 5.88362 12.953 5.79969 13.0416 5.70028L13.1895 5.53435L13.2531 5.32141C13.6924 3.85199 14.8403 3 16 3C17.1597 3 18.3081 3.85191 18.7475 5.32301L18.8082 5.52631L18.9462 5.68743C19.0378 5.79435 19.1477 5.88416 19.2708 5.95264L19.3221 5.98119L19.3764 6.00354C20.7509 6.56903 21.7427 7.31091 22.4657 8.25625L22.4663 8.25697C23.4474 9.53738 23.9925 11.3042 23.9925 13.5863C23.9925 15.9837 24.2018 17.5477 24.6402 18.7566C25.079 19.9663 25.7253 20.7478 26.3955 21.5583L26.4287 21.5984Z" stroke="black" stroke-width="2"/>
<path d="M16 30C16.9031 29.9993 17.7892 29.7541 18.5643 29.2905C19.3394 28.827 19.9746 28.1622 20.4025 27.3669C20.4226 27.3288 20.4326 27.2861 20.4314 27.243C20.4302 27.1999 20.4178 27.1578 20.3956 27.1209C20.3733 27.084 20.3418 27.0534 20.3043 27.0323C20.2667 27.0111 20.2243 27 20.1812 27H11.82C11.7768 26.9998 11.7343 27.0109 11.6967 27.032C11.659 27.0532 11.6275 27.0837 11.6052 27.1206C11.5828 27.1576 11.5704 27.1997 11.5692 27.2428C11.568 27.286 11.5779 27.3287 11.5981 27.3669C12.0259 28.1621 12.661 28.8268 13.436 29.2904C14.2109 29.7539 15.0969 29.9992 16 30Z" fill="black"/>
</svg>
