<svg width="31" height="31" viewBox="0 0 31 31" fill="none" xmlns="http://www.w3.org/2000/svg">
<path d="M11.6249 15.4999C14.1178 15.4999 16.1458 13.472 16.1458 10.9791C16.1458 8.48617 14.1178 6.45825 11.6249 6.45825C9.132 6.45825 7.10409 8.48617 7.10409 10.9791C7.10409 13.472 9.132 15.4999 11.6249 15.4999ZM11.6249 9.04159C12.697 9.04159 13.5624 9.907 13.5624 10.9791C13.5624 12.0512 12.697 12.9166 11.6249 12.9166C10.5528 12.9166 9.68742 12.0512 9.68742 10.9791C9.68742 9.907 10.5528 9.04159 11.6249 9.04159ZM11.6249 17.7603C8.60242 17.7603 2.58325 19.2716 2.58325 22.2812V24.5416H20.6666V22.2812C20.6666 19.2716 14.6474 17.7603 11.6249 17.7603ZM5.60575 21.9583C6.69075 21.2091 9.31284 20.3437 11.6249 20.3437C13.937 20.3437 16.5591 21.2091 17.6441 21.9583H5.60575ZM20.7183 17.8378C22.2166 18.9228 23.2499 20.3695 23.2499 22.2812V24.5416H28.4166V22.2812C28.4166 19.672 23.8958 18.1866 20.7183 17.8378ZM19.3749 15.4999C21.8678 15.4999 23.8958 13.472 23.8958 10.9791C23.8958 8.48617 21.8678 6.45825 19.3749 6.45825C18.6774 6.45825 18.0316 6.62617 17.4374 6.91034C18.2512 8.05992 18.7291 9.46784 18.7291 10.9791C18.7291 12.4903 18.2512 13.8983 17.4374 15.0478C18.0316 15.332 18.6774 15.4999 19.3749 15.4999Z" fill="black"/>
</svg>
