<svg width="14" height="19" viewBox="0 0 14 19" fill="none" xmlns="http://www.w3.org/2000/svg">
<path d="M11.1538 1H2.84615C1.82655 1 1 1.66184 1 2.47826V16.5217C1 17.3382 1.82655 18 2.84615 18H11.1538C12.1734 18 13 17.3382 13 16.5217V2.47826C13 1.66184 12.1734 1 11.1538 1Z" stroke="#F8A435" stroke-opacity="0.5" stroke-width="1.6" stroke-linecap="round" stroke-linejoin="round"/>
<path d="M10.0238 1V1.9685C10.0238 2.22536 9.89639 2.4717 9.66956 2.65333C9.44273 2.83495 9.13508 2.93699 8.81429 2.93699H5.18572C4.86493 2.93699 4.55729 2.83495 4.33046 2.65333C4.10363 2.4717 3.9762 2.22536 3.9762 1.9685V1" stroke="#F8A435" stroke-opacity="0.5" stroke-width="1.6" stroke-linecap="round" stroke-linejoin="round"/>
</svg>
