<svg width="29" height="29" viewBox="0 0 29 29" fill="none" xmlns="http://www.w3.org/2000/svg">
<path d="M24.6683 9.38429L24.6684 9.38429C25.6118 9.53533 26.3119 10.2423 26.5543 11.0833C26.7908 11.8954 26.6152 12.821 25.9992 13.4821L24.6683 9.38429ZM24.6683 9.38429L19.1056 8.49379L16.5895 2.87996L16.5892 2.87923C15.7713 1.05712 13.1527 1.07274 12.335 2.87329L12.335 2.87328L12.3317 2.88057L9.81885 8.49386L4.25657 9.38429L4.25625 9.38434C3.31613 9.53505 2.61644 10.235 2.36879 11.0778L2.36816 11.0799C2.1303 11.8939 2.30926 12.827 2.92911 13.4857L7.03387 17.895L6.05924 24.154L6.05922 24.154L6.05822 24.1607C5.93282 24.9908 6.22434 25.9033 6.94625 26.4774C7.67271 27.0552 8.68616 27.1598 9.52508 26.6682L14.4624 23.8109L19.3974 26.6688C19.3981 26.6692 19.3989 26.6696 19.3996 26.67C19.7687 26.8844 20.1668 26.9783 20.5488 26.9783C21.0662 26.9783 21.5629 26.8036 21.9708 26.4837L21.9793 26.477L21.9877 26.4702C22.6961 25.8977 22.9931 24.9974 22.8667 24.1607L22.8657 24.154L21.8911 17.895L25.998 13.4833L24.6683 9.38429Z" fill="#FFD029" stroke="white" stroke-width="2.96448"/>
</svg>
