<svg width="26" height="22" viewBox="0 0 26 22" fill="none" xmlns="http://www.w3.org/2000/svg">
<path d="M25 8.14286H1M11.8 13.8571H5.8M1 5.57143L1 16.4286C1 18.0287 1 18.8288 1.26158 19.44C1.49168 19.9776 1.85883 20.4147 2.31042 20.6886C2.82381 21 3.49587 21 4.84 21L21.16 21C22.5041 21 23.1762 21 23.6896 20.6886C24.1412 20.4147 24.5083 19.9776 24.7384 19.44C25 18.8288 25 18.0287 25 16.4286V5.57143C25 3.97128 25 3.17121 24.7384 2.56003C24.5083 2.02242 24.1412 1.58534 23.6896 1.31141C23.1762 1 22.5041 1 21.16 1L4.84 1C3.49587 1 2.82381 1 2.31042 1.31141C1.85883 1.58533 1.49168 2.02242 1.26158 2.56003C1 3.1712 1 3.97128 1 5.57143Z" stroke="black" stroke-width="2" stroke-linecap="round" stroke-linejoin="round"/>
</svg>
