<svg width="28" height="29" viewBox="0 0 28 29" fill="none" xmlns="http://www.w3.org/2000/svg">
<path d="M24.0426 9.38429L24.0426 9.38429C24.986 9.53533 25.6862 10.2423 25.9286 11.0833C26.1651 11.8954 25.9895 12.821 25.3735 13.4821L24.0426 9.38429ZM24.0426 9.38429L18.4799 8.49379L15.9638 2.87996L15.9634 2.87923C15.1456 1.05712 12.527 1.07274 11.7093 2.87329L11.7093 2.87328L11.706 2.88057L9.19312 8.49386L3.63084 9.38429L3.63052 9.38434C2.6904 9.53505 1.99071 10.235 1.74305 11.0778L1.74243 11.0799C1.50457 11.8939 1.68353 12.827 2.30338 13.4857L6.40814 17.895L5.43351 24.154L5.43349 24.154L5.43249 24.1607C5.30708 24.9908 5.5986 25.9033 6.32052 26.4774C7.04697 27.0552 8.06043 27.1598 8.89935 26.6682L13.8367 23.8109L18.7717 26.6688C18.7724 26.6692 18.7731 26.6696 18.7738 26.67C19.143 26.8844 19.5411 26.9783 19.923 26.9783C20.4404 26.9783 20.9372 26.8036 21.345 26.4837L21.3536 26.477L21.362 26.4702C22.0704 25.8977 22.3674 24.9974 22.241 24.1607L22.2399 24.154L21.2653 17.895L25.3723 13.4833L24.0426 9.38429Z" fill="#EFF0F7" stroke="white" stroke-width="2.96448"/>
</svg>
